<svg xmlns="http://www.w3.org/2000/svg" xmlns:xlink="http://www.w3.org/1999/xlink" width="500" zoomAndPan="magnify" viewBox="0 0 375 374.999991" height="500" preserveAspectRatio="xMidYMid meet" version="1.0"><defs><g/><clipPath id="53e7dad407"><path d="M 288.988281 115.679688 L 321 115.679688 L 321 152 L 288.988281 152 Z M 288.988281 115.679688 " clip-rule="nonzero"/></clipPath><clipPath id="80e25a3c33"><path d="M 319 139 L 340.367188 139 L 340.367188 163.945312 L 319 163.945312 Z M 319 139 " clip-rule="nonzero"/></clipPath><clipPath id="6bed74b438"><path d="M 8.191406 82.9375 L 201.253906 82.9375 L 201.253906 272.890625 L 8.191406 272.890625 Z M 8.191406 82.9375 " clip-rule="nonzero"/></clipPath></defs><g clip-path="url(#53e7dad407)"><path fill="#000000" d="M 300.636719 137.765625 L 288.992188 132.980469 L 300.617188 128.207031 L 304.464844 115.679688 L 308.316406 128.207031 L 320.125 133.058594 L 309.070312 137.773438 L 304.660156 151.242188 Z M 300.636719 137.765625 " fill-opacity="1" fill-rule="nonzero"/></g><g clip-path="url(#80e25a3c33)"><path fill="#000000" d="M 327.210938 154.089844 L 319.28125 150.835938 L 327.199219 147.585938 L 329.816406 139.054688 L 332.441406 147.585938 L 340.480469 150.886719 L 332.953125 154.097656 L 329.949219 163.269531 Z M 327.210938 154.089844 " fill-opacity="1" fill-rule="nonzero"/></g><g clip-path="url(#6bed74b438)"><path fill="#000000" d="M 106.898438 141.996094 L 106.898438 147.445312 C 106.898438 147.683594 106.738281 147.84375 106.5 147.84375 C 106.261719 147.84375 106.101562 147.683594 106.101562 147.445312 L 106.101562 141.996094 C 106.101562 141.757812 106.261719 141.597656 106.5 141.597656 C 106.738281 141.597656 106.898438 141.757812 106.898438 141.996094 Z M 106.5 132.007812 C 106.261719 132.007812 106.101562 132.164062 106.101562 132.402344 L 106.101562 137.976562 C 106.101562 138.214844 106.261719 138.375 106.5 138.375 C 106.738281 138.375 106.898438 138.214844 106.898438 137.976562 L 106.898438 132.402344 C 106.898438 132.164062 106.738281 132.007812 106.5 132.007812 Z M 106.5 96.152344 C 106.261719 96.152344 106.101562 96.308594 106.101562 96.550781 L 106.101562 127.867188 C 106.101562 128.105469 106.261719 128.265625 106.5 128.265625 C 106.738281 128.265625 106.898438 128.105469 106.898438 127.867188 L 106.898438 96.550781 C 106.898438 96.308594 106.738281 96.152344 106.5 96.152344 Z M 106.5 82.9375 C 106.261719 82.9375 106.101562 83.097656 106.101562 83.335938 L 106.101562 93.007812 C 106.101562 93.246094 106.261719 93.40625 106.5 93.40625 C 106.738281 93.40625 106.898438 93.246094 106.898438 93.007812 L 106.898438 83.335938 C 106.898438 83.097656 106.738281 82.9375 106.5 82.9375 Z M 201.53125 178.6875 L 196.714844 178.6875 C 196.476562 178.6875 196.316406 178.84375 196.316406 179.082031 C 196.316406 179.324219 196.476562 179.480469 196.714844 179.480469 L 201.53125 179.480469 C 201.769531 179.480469 201.929688 179.324219 201.929688 179.082031 C 201.929688 178.84375 201.730469 178.6875 201.53125 178.6875 Z M 193.453125 178.6875 L 152.464844 178.6875 C 152.226562 178.6875 152.066406 178.84375 152.066406 179.082031 C 152.066406 179.324219 152.226562 179.480469 152.464844 179.480469 L 193.453125 179.480469 C 193.691406 179.480469 193.851562 179.324219 193.851562 179.082031 C 193.851562 178.84375 193.652344 178.6875 193.453125 178.6875 Z M 143.03125 179.480469 L 149.441406 179.480469 C 149.679688 179.480469 149.835938 179.324219 149.835938 179.082031 C 149.835938 178.84375 149.679688 178.6875 149.441406 178.6875 L 143.03125 178.6875 C 142.792969 178.6875 142.636719 178.84375 142.636719 179.082031 C 142.636719 179.324219 142.792969 179.480469 143.03125 179.480469 Z M 136.226562 178.6875 C 135.988281 178.6875 135.828125 178.84375 135.828125 179.082031 C 135.828125 179.324219 135.988281 179.480469 136.226562 179.480469 L 139.011719 179.480469 C 139.253906 179.480469 139.410156 179.324219 139.410156 179.082031 C 139.410156 178.84375 139.253906 178.6875 139.011719 178.6875 Z M 105.070312 264.960938 C 104.828125 264.960938 104.671875 265.121094 104.671875 265.359375 L 104.671875 272.441406 C 104.671875 272.679688 104.828125 272.839844 105.070312 272.839844 C 105.308594 272.839844 105.464844 272.679688 105.464844 272.441406 L 105.464844 265.359375 C 105.464844 265.121094 105.308594 264.960938 105.070312 264.960938 Z M 105.070312 252.742188 C 104.828125 252.742188 104.671875 252.902344 104.671875 253.140625 L 104.671875 262.8125 C 104.671875 263.050781 104.828125 263.210938 105.070312 263.210938 C 105.308594 263.210938 105.464844 263.050781 105.464844 262.8125 L 105.464844 253.140625 C 105.464844 252.941406 105.308594 252.742188 105.070312 252.742188 Z M 105.070312 227.59375 C 104.828125 227.59375 104.671875 227.753906 104.671875 227.992188 L 104.671875 250.355469 C 104.671875 250.59375 104.828125 250.753906 105.070312 250.753906 C 105.308594 250.753906 105.464844 250.59375 105.464844 250.355469 L 105.464844 227.992188 C 105.464844 227.753906 105.308594 227.59375 105.070312 227.59375 Z M 105.070312 219.15625 C 104.828125 219.15625 104.671875 219.316406 104.671875 219.554688 L 104.671875 224.925781 C 104.671875 225.164062 104.828125 225.324219 105.070312 225.324219 C 105.308594 225.324219 105.464844 225.164062 105.464844 224.925781 L 105.464844 219.554688 C 105.464844 219.355469 105.308594 219.15625 105.070312 219.15625 Z M 105.070312 210.082031 C 104.828125 210.082031 104.671875 210.242188 104.671875 210.480469 L 104.671875 214.699219 C 104.671875 214.9375 104.828125 215.097656 105.070312 215.097656 C 105.308594 215.097656 105.464844 214.9375 105.464844 214.699219 L 105.464844 210.480469 C 105.464844 210.28125 105.308594 210.082031 105.070312 210.082031 Z M 16.644531 177.609375 L 8.644531 177.609375 C 8.40625 177.609375 8.246094 177.769531 8.246094 178.007812 C 8.246094 178.246094 8.40625 178.40625 8.644531 178.40625 L 16.644531 178.40625 C 16.882812 178.40625 17.042969 178.246094 17.042969 178.007812 C 17.042969 177.769531 16.84375 177.609375 16.644531 177.609375 Z M 36.660156 178.007812 C 36.660156 177.769531 36.503906 177.609375 36.261719 177.609375 L 19.828125 177.609375 C 19.589844 177.609375 19.429688 177.769531 19.429688 178.007812 C 19.429688 178.246094 19.589844 178.40625 19.828125 178.40625 L 36.222656 178.40625 C 36.460938 178.40625 36.660156 178.207031 36.660156 178.007812 Z M 59.34375 178.007812 C 59.34375 177.769531 59.183594 177.609375 58.945312 177.609375 L 40.640625 177.609375 C 40.402344 177.609375 40.242188 177.769531 40.242188 178.007812 C 40.242188 178.246094 40.402344 178.40625 40.640625 178.40625 L 58.984375 178.40625 C 59.183594 178.40625 59.34375 178.207031 59.34375 178.007812 Z M 67.78125 178.007812 C 67.78125 177.769531 67.621094 177.609375 67.382812 177.609375 L 63.164062 177.609375 C 62.925781 177.609375 62.765625 177.769531 62.765625 178.007812 C 62.765625 178.246094 62.925781 178.40625 63.164062 178.40625 L 67.382812 178.40625 C 67.582031 178.40625 67.78125 178.207031 67.78125 178.007812 Z M 70.488281 177.609375 C 70.25 177.609375 70.089844 177.769531 70.089844 178.007812 C 70.089844 178.246094 70.25 178.40625 70.488281 178.40625 L 74.785156 178.40625 C 75.023438 178.40625 75.183594 178.246094 75.183594 178.007812 C 75.183594 177.769531 75.023438 177.609375 74.785156 177.609375 Z M 112.113281 132.800781 C 112.113281 132.800781 112.152344 132.800781 112.152344 132.800781 C 112.351562 132.800781 112.511719 132.644531 112.550781 132.445312 L 112.988281 128.902344 C 113.027344 128.703125 112.867188 128.503906 112.628906 128.464844 C 112.429688 128.425781 112.230469 128.582031 112.191406 128.824219 L 111.753906 132.363281 C 111.714844 132.5625 111.875 132.761719 112.113281 132.800781 Z M 113.027344 125.558594 C 113.027344 125.558594 113.066406 125.558594 113.066406 125.558594 C 113.265625 125.558594 113.425781 125.398438 113.464844 125.203125 L 114.816406 114.65625 C 114.859375 114.457031 114.699219 114.257812 114.460938 114.21875 C 114.261719 114.179688 114.0625 114.335938 114.023438 114.578125 L 112.667969 125.121094 C 112.628906 125.320312 112.789062 125.519531 113.027344 125.558594 Z M 114.738281 111.910156 C 114.738281 111.910156 114.777344 111.910156 114.777344 111.910156 C 114.976562 111.910156 115.136719 111.75 115.175781 111.550781 L 116.050781 104.746094 C 116.089844 104.546875 115.933594 104.347656 115.695312 104.308594 C 115.496094 104.269531 115.296875 104.429688 115.257812 104.667969 L 114.378906 111.472656 C 114.378906 111.671875 114.539062 111.871094 114.738281 111.910156 Z M 116.050781 101.644531 C 116.050781 101.644531 116.089844 101.644531 116.089844 101.644531 C 116.289062 101.644531 116.449219 101.484375 116.488281 101.285156 L 116.925781 97.941406 C 116.96875 97.742188 116.808594 97.542969 116.570312 97.503906 C 116.371094 97.464844 116.171875 97.625 116.132812 97.863281 L 115.695312 101.207031 C 115.695312 101.402344 115.8125 101.601562 116.050781 101.644531 Z M 117.246094 138.332031 C 117.285156 138.332031 117.324219 138.332031 117.363281 138.332031 C 117.523438 138.332031 117.683594 138.214844 117.761719 138.054688 L 120.746094 126.515625 C 120.789062 126.316406 120.667969 126.078125 120.46875 126.035156 C 120.269531 125.996094 120.03125 126.117188 119.992188 126.316406 L 117.007812 137.855469 C 116.925781 138.054688 117.046875 138.292969 117.246094 138.332031 Z M 121.144531 123.371094 C 121.183594 123.371094 121.226562 123.371094 121.265625 123.371094 C 121.425781 123.371094 121.582031 123.25 121.664062 123.09375 L 125.003906 110.277344 C 125.046875 110.078125 124.925781 109.839844 124.726562 109.800781 C 124.527344 109.761719 124.289062 109.878906 124.25 110.078125 L 120.90625 122.894531 C 120.828125 123.09375 120.945312 123.332031 121.144531 123.371094 Z M 125.324219 107.414062 C 125.363281 107.414062 125.402344 107.414062 125.445312 107.414062 C 125.601562 107.414062 125.761719 107.292969 125.839844 107.132812 L 128.230469 97.980469 C 128.269531 97.78125 128.148438 97.542969 127.949219 97.503906 C 127.75 97.464844 127.511719 97.582031 127.472656 97.78125 L 125.085938 106.9375 C 124.964844 107.132812 125.125 107.375 125.324219 107.414062 Z M 127.792969 120.503906 C 127.59375 120.425781 127.355469 120.546875 127.273438 120.746094 L 125.722656 125.042969 C 125.640625 125.242188 125.761719 125.480469 125.960938 125.558594 C 126 125.558594 126.039062 125.597656 126.082031 125.597656 C 126.238281 125.597656 126.398438 125.480469 126.4375 125.320312 L 127.992188 121.023438 C 128.109375 120.785156 127.992188 120.585938 127.792969 120.503906 Z M 128.347656 118.953125 C 128.386719 118.953125 128.429688 118.992188 128.46875 118.992188 C 128.628906 118.992188 128.785156 118.875 128.824219 118.714844 L 131.332031 111.75 C 131.414062 111.550781 131.292969 111.3125 131.09375 111.234375 C 130.894531 111.152344 130.65625 111.273438 130.578125 111.472656 L 128.070312 118.4375 C 128.03125 118.636719 128.148438 118.875 128.347656 118.953125 Z M 131.96875 108.886719 C 132.007812 108.886719 132.050781 108.925781 132.089844 108.925781 C 132.25 108.925781 132.40625 108.804688 132.449219 108.648438 L 133.28125 106.378906 C 133.363281 106.179688 133.242188 105.941406 133.042969 105.859375 C 132.84375 105.78125 132.605469 105.902344 132.527344 106.101562 L 131.691406 108.367188 C 131.691406 108.605469 131.769531 108.847656 131.96875 108.886719 Z M 133.679688 104.191406 C 133.722656 104.191406 133.761719 104.230469 133.800781 104.230469 C 133.960938 104.230469 134.117188 104.109375 134.160156 103.949219 L 138.058594 93.125 C 138.136719 92.929688 138.019531 92.6875 137.820312 92.609375 C 137.621094 92.53125 137.382812 92.648438 137.300781 92.847656 L 133.402344 103.671875 C 133.363281 103.910156 133.480469 104.148438 133.679688 104.191406 Z M 127.992188 134.511719 C 127.792969 134.394531 127.550781 134.472656 127.433594 134.671875 L 125.761719 137.777344 C 125.640625 137.976562 125.722656 138.214844 125.921875 138.332031 C 126 138.375 126.039062 138.375 126.121094 138.375 C 126.277344 138.375 126.398438 138.292969 126.476562 138.175781 L 128.148438 135.070312 C 128.269531 134.832031 128.1875 134.59375 127.992188 134.511719 Z M 135.234375 121.101562 C 135.035156 120.984375 134.796875 121.0625 134.675781 121.261719 C 132.6875 124.921875 130.734375 128.582031 129.144531 131.488281 C 129.023438 131.6875 129.105469 131.925781 129.304688 132.046875 C 129.382812 132.085938 129.421875 132.085938 129.503906 132.085938 C 129.660156 132.085938 129.78125 132.007812 129.859375 131.886719 C 131.453125 128.980469 133.402344 125.320312 135.390625 121.660156 C 135.511719 121.460938 135.433594 121.222656 135.234375 121.101562 Z M 136.425781 118.875 C 136.507812 118.914062 136.546875 118.914062 136.625 118.914062 C 136.785156 118.914062 136.90625 118.835938 136.984375 118.714844 C 138.617188 115.691406 140.167969 112.785156 141.480469 110.359375 C 141.601562 110.160156 141.519531 109.921875 141.320312 109.800781 C 141.121094 109.679688 140.882812 109.761719 140.765625 109.960938 C 139.453125 112.386719 137.898438 115.292969 136.269531 118.316406 C 136.148438 118.554688 136.226562 118.792969 136.425781 118.875 Z M 142.792969 107.015625 C 142.832031 107.054688 142.914062 107.054688 142.992188 107.054688 C 143.152344 107.054688 143.273438 106.976562 143.351562 106.855469 C 144.824219 104.070312 144.863281 103.949219 144.863281 103.871094 C 144.902344 103.671875 144.785156 103.433594 144.585938 103.394531 C 144.386719 103.355469 144.148438 103.472656 144.105469 103.671875 C 144.066406 103.753906 143.828125 104.230469 142.636719 106.496094 C 142.515625 106.695312 142.59375 106.9375 142.792969 107.015625 Z M 136.90625 133.675781 L 133.402344 138.574219 C 133.28125 138.730469 133.324219 139.011719 133.480469 139.128906 C 133.5625 139.167969 133.640625 139.210938 133.722656 139.210938 C 133.839844 139.210938 133.960938 139.167969 134.039062 139.050781 L 137.542969 134.15625 C 137.660156 133.996094 137.621094 133.71875 137.460938 133.597656 C 137.261719 133.4375 137.023438 133.519531 136.90625 133.675781 Z M 139.691406 131.128906 L 144.546875 124.40625 C 144.664062 124.246094 144.625 123.96875 144.464844 123.847656 C 144.304688 123.730469 144.027344 123.769531 143.910156 123.929688 L 139.054688 130.652344 C 138.933594 130.8125 138.972656 131.089844 139.132812 131.210938 C 139.210938 131.25 139.292969 131.289062 139.371094 131.289062 C 139.492188 131.289062 139.609375 131.25 139.691406 131.128906 Z M 146.613281 121.261719 C 146.734375 121.261719 146.851562 121.222656 146.933594 121.101562 L 151.867188 114.296875 C 151.988281 114.136719 151.945312 113.859375 151.789062 113.742188 C 151.628906 113.621094 151.351562 113.660156 151.230469 113.820312 L 146.296875 120.625 C 146.175781 120.785156 146.214844 121.0625 146.375 121.183594 C 146.457031 121.222656 146.535156 121.261719 146.613281 121.261719 Z M 168.859375 113.699219 C 168.980469 113.699219 169.058594 113.660156 169.136719 113.582031 L 172.164062 110.4375 C 172.320312 110.277344 172.320312 110.039062 172.164062 109.878906 C 172.003906 109.722656 171.765625 109.722656 171.605469 109.878906 L 168.582031 113.023438 C 168.421875 113.183594 168.421875 113.421875 168.582031 113.582031 C 168.660156 113.660156 168.78125 113.699219 168.859375 113.699219 Z M 153.816406 129.261719 C 153.9375 129.261719 154.015625 129.21875 154.097656 129.140625 L 165.996094 116.84375 C 166.152344 116.683594 166.152344 116.445312 165.996094 116.289062 C 165.835938 116.128906 165.597656 116.128906 165.4375 116.289062 L 153.539062 128.582031 C 153.378906 128.742188 153.378906 128.980469 153.539062 129.140625 C 153.617188 129.21875 153.738281 129.261719 153.816406 129.261719 Z M 146.613281 136.703125 C 146.734375 136.703125 146.8125 136.664062 146.894531 136.582031 L 151.828125 131.488281 C 151.988281 131.328125 151.988281 131.089844 151.828125 130.933594 C 151.667969 130.773438 151.429688 130.773438 151.269531 130.933594 L 146.335938 136.027344 C 146.175781 136.183594 146.175781 136.421875 146.335938 136.582031 C 146.414062 136.664062 146.496094 136.703125 146.613281 136.703125 Z M 134.996094 148.320312 C 135.074219 148.402344 135.152344 148.441406 135.273438 148.441406 C 135.390625 148.441406 135.472656 148.402344 135.550781 148.320312 L 144.464844 139.089844 C 144.625 138.929688 144.625 138.691406 144.464844 138.53125 C 144.304688 138.375 144.066406 138.375 143.910156 138.53125 L 134.996094 147.765625 C 134.835938 147.882812 134.835938 148.164062 134.996094 148.320312 Z M 126.675781 156.917969 C 126.757812 156.996094 126.835938 157.039062 126.957031 157.039062 C 127.074219 157.039062 127.15625 156.996094 127.234375 156.917969 L 133.242188 150.710938 C 133.402344 150.550781 133.402344 150.3125 133.242188 150.152344 C 133.085938 149.992188 132.84375 149.992188 132.6875 150.152344 L 126.675781 156.359375 C 126.519531 156.519531 126.519531 156.757812 126.675781 156.917969 Z M 143.074219 150.988281 C 142.914062 150.828125 142.675781 150.789062 142.515625 150.949219 L 141.320312 151.945312 C 141.164062 152.101562 141.121094 152.339844 141.28125 152.5 C 141.363281 152.582031 141.480469 152.621094 141.601562 152.621094 C 141.679688 152.621094 141.800781 152.582031 141.878906 152.539062 L 143.074219 151.546875 C 143.191406 151.386719 143.230469 151.148438 143.074219 150.988281 Z M 145.460938 149.316406 C 145.539062 149.316406 145.660156 149.277344 145.738281 149.238281 L 150.953125 144.78125 C 151.109375 144.621094 151.152344 144.382812 150.992188 144.222656 C 150.832031 144.0625 150.59375 144.023438 150.433594 144.183594 L 145.222656 148.640625 C 145.0625 148.800781 145.023438 149.039062 145.183594 149.199219 C 145.261719 149.277344 145.378906 149.316406 145.460938 149.316406 Z M 153.300781 142.632812 C 153.378906 142.632812 153.5 142.589844 153.578125 142.550781 L 162.890625 134.59375 C 163.050781 134.433594 163.089844 134.195312 162.929688 134.035156 C 162.769531 133.875 162.53125 133.835938 162.375 133.996094 L 153.0625 141.953125 C 152.902344 142.113281 152.863281 142.351562 153.019531 142.511719 C 153.0625 142.589844 153.179688 142.632812 153.300781 142.632812 Z M 165.117188 132.601562 L 169.097656 129.179688 C 169.257812 129.023438 169.296875 128.78125 169.136719 128.625 C 168.980469 128.464844 168.742188 128.425781 168.582031 128.582031 L 164.601562 132.007812 C 164.441406 132.164062 164.402344 132.402344 164.5625 132.5625 C 164.640625 132.644531 164.761719 132.683594 164.878906 132.683594 C 164.960938 132.683594 165.039062 132.644531 165.117188 132.601562 Z M 178.292969 137.417969 C 178.371094 137.417969 178.449219 137.378906 178.53125 137.339844 L 182.550781 134.59375 C 182.75 134.472656 182.789062 134.234375 182.667969 134.035156 C 182.550781 133.835938 182.308594 133.796875 182.113281 133.917969 L 178.09375 136.664062 C 177.894531 136.78125 177.851562 137.019531 177.972656 137.21875 C 178.050781 137.339844 178.171875 137.417969 178.292969 137.417969 Z M 168.542969 143.707031 C 168.621094 143.824219 168.742188 143.863281 168.859375 143.863281 C 168.9375 143.863281 169.019531 143.824219 169.097656 143.785156 L 176.140625 138.96875 C 176.339844 138.851562 176.382812 138.613281 176.261719 138.414062 C 176.140625 138.214844 175.902344 138.175781 175.703125 138.292969 L 168.621094 143.148438 C 168.460938 143.269531 168.421875 143.507812 168.542969 143.707031 Z M 164.363281 146.570312 C 164.441406 146.691406 164.5625 146.730469 164.679688 146.730469 C 164.761719 146.730469 164.839844 146.691406 164.921875 146.652344 L 166.511719 145.578125 C 166.710938 145.457031 166.75 145.21875 166.632812 145.019531 C 166.511719 144.820312 166.273438 144.78125 166.074219 144.898438 L 164.480469 145.972656 C 164.285156 146.132812 164.242188 146.371094 164.363281 146.570312 Z M 162.730469 147.683594 C 162.613281 147.488281 162.375 147.445312 162.175781 147.566406 L 153.816406 153.296875 C 153.617188 153.414062 153.578125 153.65625 153.699219 153.855469 C 153.777344 153.972656 153.898438 154.011719 154.015625 154.011719 C 154.097656 154.011719 154.175781 153.972656 154.253906 153.933594 L 162.613281 148.203125 C 162.769531 148.125 162.851562 147.882812 162.730469 147.683594 Z M 151.867188 155.128906 C 151.746094 154.929688 151.507812 154.886719 151.308594 155.007812 L 143.550781 160.339844 C 143.351562 160.460938 143.3125 160.699219 143.429688 160.898438 C 143.511719 161.015625 143.628906 161.054688 143.75 161.054688 C 143.828125 161.054688 143.910156 161.015625 143.988281 160.976562 L 151.746094 155.683594 C 151.945312 155.566406 151.988281 155.324219 151.867188 155.128906 Z M 159.746094 158.113281 C 159.828125 158.269531 159.945312 158.351562 160.105469 158.351562 C 160.144531 158.351562 160.222656 158.351562 160.265625 158.3125 C 160.265625 158.3125 162.570312 157.355469 165.996094 155.921875 C 166.195312 155.84375 166.3125 155.605469 166.195312 155.40625 C 166.113281 155.207031 165.875 155.085938 165.675781 155.207031 C 162.292969 156.597656 159.945312 157.59375 159.945312 157.59375 C 159.746094 157.675781 159.667969 157.914062 159.746094 158.113281 Z M 179.046875 150.113281 C 178.96875 149.914062 178.730469 149.835938 178.53125 149.914062 C 175.226562 151.308594 171.765625 152.738281 168.742188 154.011719 C 168.542969 154.09375 168.421875 154.332031 168.542969 154.53125 C 168.621094 154.6875 168.742188 154.769531 168.898438 154.769531 C 168.9375 154.769531 169.019531 154.769531 169.058594 154.730469 C 172.082031 153.457031 175.546875 152.023438 178.847656 150.628906 C 179.007812 150.550781 179.125 150.3125 179.046875 150.113281 Z M 180.558594 149.4375 C 180.640625 149.59375 180.757812 149.675781 180.917969 149.675781 C 180.957031 149.675781 181.035156 149.675781 181.078125 149.636719 C 182.628906 149 184.101562 148.363281 185.453125 147.804688 C 185.652344 147.726562 185.734375 147.488281 185.652344 147.289062 C 185.574219 147.089844 185.335938 147.007812 185.136719 147.089844 C 183.78125 147.644531 182.308594 148.28125 180.757812 148.917969 C 180.597656 149.039062 180.480469 149.238281 180.558594 149.4375 Z M 188 146.730469 C 188.039062 146.730469 188.121094 146.730469 188.160156 146.691406 C 192.058594 145.019531 192.21875 144.898438 192.300781 144.820312 C 192.457031 144.699219 192.496094 144.460938 192.378906 144.261719 C 192.257812 144.105469 192.019531 144.023438 191.820312 144.144531 C 191.703125 144.222656 191.066406 144.542969 187.800781 145.894531 C 187.601562 145.972656 187.523438 146.214844 187.601562 146.410156 C 187.722656 146.609375 187.84375 146.730469 188 146.730469 Z M 189.949219 155.167969 C 189.871094 154.96875 189.671875 154.847656 189.433594 154.929688 L 187.921875 155.40625 C 187.722656 155.484375 187.601562 155.683594 187.683594 155.921875 C 187.722656 156.082031 187.882812 156.203125 188.082031 156.203125 C 188.121094 156.203125 188.160156 156.203125 188.199219 156.203125 L 189.710938 155.722656 C 189.910156 155.605469 189.992188 155.367188 189.949219 155.167969 Z M 182.191406 157.234375 C 181.992188 157.316406 181.871094 157.515625 181.953125 157.753906 C 181.992188 157.914062 182.152344 158.03125 182.351562 158.03125 C 182.390625 158.03125 182.429688 158.03125 182.46875 158.03125 L 185.851562 156.957031 C 186.050781 156.878906 186.171875 156.679688 186.089844 156.441406 C 186.011719 156.242188 185.8125 156.121094 185.574219 156.203125 Z M 180.558594 158.191406 C 180.480469 157.992188 180.28125 157.871094 180.042969 157.953125 L 172.640625 160.339844 C 172.441406 160.417969 172.320312 160.617188 172.402344 160.859375 C 172.441406 161.015625 172.601562 161.136719 172.800781 161.136719 C 172.839844 161.136719 172.878906 161.136719 172.917969 161.136719 L 180.320312 158.75 C 180.480469 158.589844 180.597656 158.390625 180.558594 158.191406 Z M 170.015625 161.136719 L 168.742188 161.535156 C 168.542969 161.613281 168.421875 161.8125 168.5 162.050781 C 168.542969 162.210938 168.699219 162.328125 168.898438 162.328125 C 168.9375 162.328125 168.980469 162.328125 169.019531 162.328125 L 170.292969 161.933594 C 170.492188 161.851562 170.609375 161.652344 170.53125 161.414062 C 170.453125 161.175781 170.210938 161.054688 170.015625 161.136719 Z M 167.027344 162.488281 C 166.949219 162.289062 166.75 162.171875 166.511719 162.25 L 157.320312 165.195312 C 157.121094 165.273438 157 165.472656 157.082031 165.710938 C 157.121094 165.871094 157.28125 165.992188 157.476562 165.992188 C 157.519531 165.992188 157.558594 165.992188 157.597656 165.992188 L 166.789062 163.046875 C 166.988281 162.925781 167.109375 162.726562 167.027344 162.488281 Z M 155.609375 166.148438 C 155.527344 165.953125 155.328125 165.832031 155.089844 165.910156 L 150.554688 167.382812 C 150.355469 167.464844 150.234375 167.664062 150.316406 167.902344 C 150.355469 168.058594 150.515625 168.179688 150.714844 168.179688 C 150.753906 168.179688 150.792969 168.179688 150.832031 168.179688 L 155.371094 166.707031 C 155.566406 166.589844 155.6875 166.390625 155.609375 166.148438 Z M 178.96875 170.25 C 178.96875 170.25 179.007812 170.25 179.007812 170.25 L 188.398438 168.976562 C 188.597656 168.9375 188.757812 168.738281 188.757812 168.539062 C 188.71875 168.339844 188.519531 168.179688 188.320312 168.179688 L 178.929688 169.453125 C 178.730469 169.492188 178.570312 169.691406 178.570312 169.890625 C 178.609375 170.128906 178.769531 170.25 178.96875 170.25 Z M 164.5625 172.238281 C 164.5625 172.238281 164.601562 172.238281 164.601562 172.238281 L 176.140625 170.648438 C 176.339844 170.605469 176.5 170.410156 176.5 170.210938 C 176.460938 170.011719 176.261719 169.851562 176.0625 169.851562 L 164.523438 171.441406 C 164.324219 171.484375 164.164062 171.683594 164.164062 171.878906 C 164.203125 172.078125 164.363281 172.238281 164.5625 172.238281 Z M 156.402344 173.351562 C 156.402344 173.351562 156.445312 173.351562 156.445312 173.351562 L 162.175781 172.558594 C 162.375 172.515625 162.53125 172.320312 162.53125 172.121094 C 162.492188 171.921875 162.292969 171.761719 162.09375 171.761719 L 156.363281 172.558594 C 156.164062 172.597656 156.007812 172.796875 156.007812 172.996094 C 156.046875 173.195312 156.203125 173.351562 156.402344 173.351562 Z M 187.324219 191.179688 C 187.363281 191.179688 187.363281 191.179688 187.402344 191.179688 C 187.601562 191.179688 187.761719 191.023438 187.800781 190.863281 C 187.84375 190.664062 187.683594 190.425781 187.484375 190.425781 L 183.304688 189.789062 C 183.105469 189.75 182.867188 189.90625 182.867188 190.105469 C 182.867188 190.304688 182.988281 190.542969 183.1875 190.542969 Z M 178.09375 189.789062 L 179.84375 190.066406 C 179.882812 190.066406 179.882812 190.066406 179.921875 190.066406 C 180.121094 190.066406 180.28125 189.90625 180.320312 189.75 C 180.359375 189.550781 180.203125 189.3125 180.003906 189.3125 L 178.25 189.03125 C 178.050781 188.992188 177.8125 189.152344 177.8125 189.351562 C 177.8125 189.550781 177.894531 189.75 178.09375 189.789062 Z M 174.550781 189.230469 C 174.589844 189.230469 174.589844 189.230469 174.628906 189.230469 C 174.828125 189.230469 174.988281 189.070312 175.027344 188.914062 C 175.066406 188.714844 174.910156 188.476562 174.710938 188.476562 L 166.632812 187.242188 C 166.433594 187.203125 166.195312 187.359375 166.195312 187.558594 C 166.195312 187.757812 166.3125 187.996094 166.511719 187.996094 Z M 163.527344 187.558594 C 163.566406 187.558594 163.566406 187.558594 163.605469 187.558594 C 163.804688 187.558594 163.964844 187.402344 164.003906 187.242188 C 164.042969 187.042969 163.886719 186.804688 163.6875 186.804688 L 156.523438 185.730469 C 156.324219 185.691406 156.085938 185.847656 156.085938 186.046875 C 156.085938 186.246094 156.203125 186.484375 156.402344 186.484375 Z M 189.554688 204.3125 C 189.710938 204.3125 189.871094 204.195312 189.949219 204.035156 C 190.03125 203.835938 189.871094 203.597656 189.671875 203.558594 L 185.214844 202.285156 C 185.015625 202.203125 184.777344 202.363281 184.738281 202.5625 C 184.660156 202.761719 184.816406 203 185.015625 203.039062 L 189.472656 204.3125 C 189.472656 204.3125 189.511719 204.3125 189.554688 204.3125 Z M 177.496094 200.453125 C 177.414062 200.652344 177.574219 200.890625 177.773438 200.929688 L 181.871094 202.125 C 181.914062 202.125 181.953125 202.125 181.992188 202.125 C 182.152344 202.125 182.308594 202.003906 182.390625 201.847656 C 182.46875 201.648438 182.308594 201.410156 182.113281 201.367188 L 178.011719 200.175781 C 177.773438 200.136719 177.574219 200.253906 177.496094 200.453125 Z M 155.371094 194.085938 C 155.289062 194.285156 155.449219 194.523438 155.648438 194.5625 L 174.988281 200.136719 C 175.027344 200.136719 175.066406 200.136719 175.109375 200.136719 C 175.265625 200.136719 175.425781 200.015625 175.503906 199.855469 C 175.585938 199.65625 175.425781 199.417969 175.226562 199.378906 L 155.886719 193.808594 C 155.648438 193.769531 155.410156 193.886719 155.371094 194.085938 Z M 153.101562 193.011719 L 148.085938 191.578125 C 147.886719 191.5 147.648438 191.660156 147.609375 191.859375 C 147.53125 192.058594 147.6875 192.296875 147.886719 192.335938 L 152.902344 193.769531 C 152.941406 193.769531 152.980469 193.769531 153.019531 193.769531 C 153.179688 193.769531 153.339844 193.648438 153.417969 193.488281 C 153.417969 193.289062 153.300781 193.089844 153.101562 193.011719 Z M 193.574219 214.144531 L 187.523438 211.835938 C 187.324219 211.753906 187.085938 211.875 187.007812 212.074219 C 186.925781 212.273438 187.046875 212.511719 187.246094 212.589844 L 193.292969 214.898438 C 193.332031 214.898438 193.375 214.9375 193.453125 214.9375 C 193.613281 214.9375 193.769531 214.859375 193.8125 214.699219 C 193.890625 214.460938 193.769531 214.222656 193.574219 214.144531 Z M 184.300781 210.640625 L 176.5 207.695312 C 176.300781 207.617188 176.0625 207.734375 175.984375 207.933594 C 175.902344 208.132812 176.023438 208.371094 176.222656 208.453125 L 184.023438 211.398438 C 184.0625 211.398438 184.101562 211.4375 184.179688 211.4375 C 184.339844 211.4375 184.5 211.355469 184.539062 211.199219 C 184.578125 210.917969 184.5 210.71875 184.300781 210.640625 Z M 173.753906 207.457031 C 173.914062 207.457031 174.074219 207.378906 174.113281 207.21875 C 174.191406 207.019531 174.074219 206.78125 173.875 206.703125 L 166.75 203.996094 C 166.550781 203.914062 166.3125 204.035156 166.234375 204.234375 C 166.152344 204.433594 166.273438 204.671875 166.472656 204.75 L 173.59375 207.457031 C 173.675781 207.457031 173.714844 207.457031 173.753906 207.457031 Z M 163.566406 203.597656 C 163.726562 203.597656 163.886719 203.519531 163.925781 203.359375 C 164.003906 203.160156 163.886719 202.921875 163.6875 202.839844 L 159.386719 201.210938 C 159.191406 201.128906 158.949219 201.25 158.871094 201.449219 C 158.792969 201.648438 158.910156 201.886719 159.109375 201.964844 L 163.40625 203.597656 C 163.488281 203.597656 163.527344 203.597656 163.566406 203.597656 Z M 182.550781 224.609375 L 173.039062 218.480469 C 172.839844 218.359375 172.601562 218.402344 172.480469 218.601562 C 172.363281 218.800781 172.402344 219.039062 172.601562 219.15625 L 182.113281 225.285156 C 182.191406 225.324219 182.269531 225.363281 182.308594 225.363281 C 182.429688 225.363281 182.589844 225.285156 182.628906 225.164062 C 182.789062 225.007812 182.707031 224.726562 182.550781 224.609375 Z M 169.972656 217.40625 C 170.09375 217.40625 170.253906 217.328125 170.292969 217.207031 C 170.410156 217.007812 170.371094 216.769531 170.171875 216.648438 L 160.78125 210.601562 C 160.582031 210.480469 160.34375 210.523438 160.222656 210.71875 C 160.105469 210.917969 160.144531 211.160156 160.34375 211.277344 L 169.734375 217.328125 C 169.816406 217.367188 169.894531 217.40625 169.972656 217.40625 Z M 156.523438 207.894531 C 156.324219 207.777344 156.085938 207.816406 155.964844 208.015625 C 155.847656 208.214844 155.886719 208.453125 156.085938 208.570312 L 157.757812 209.644531 C 157.835938 209.6875 157.917969 209.726562 157.957031 209.726562 C 158.074219 209.726562 158.234375 209.644531 158.273438 209.527344 C 158.394531 209.328125 158.355469 209.089844 158.15625 208.96875 Z M 154.136719 206.34375 L 146.175781 201.25 C 145.976562 201.128906 145.738281 201.167969 145.621094 201.367188 C 145.5 201.566406 145.539062 201.804688 145.738281 201.925781 L 153.699219 207.019531 C 153.777344 207.058594 153.855469 207.097656 153.898438 207.097656 C 154.015625 207.097656 154.175781 207.019531 154.214844 206.898438 C 154.375 206.703125 154.335938 206.460938 154.136719 206.34375 Z M 162.375 225.324219 C 162.214844 225.484375 162.253906 225.761719 162.414062 225.882812 L 168.621094 231.136719 C 168.699219 231.214844 168.78125 231.214844 168.859375 231.214844 C 168.980469 231.214844 169.097656 231.175781 169.179688 231.054688 C 169.335938 230.894531 169.296875 230.617188 169.136719 230.5 L 162.929688 225.246094 C 162.730469 225.164062 162.492188 225.164062 162.375 225.324219 Z M 152.824219 217.285156 C 152.664062 217.445312 152.703125 217.722656 152.863281 217.84375 L 159.667969 223.613281 C 159.746094 223.695312 159.828125 223.695312 159.90625 223.695312 C 160.023438 223.695312 160.144531 223.652344 160.222656 223.535156 C 160.382812 223.375 160.34375 223.097656 160.183594 222.976562 L 153.378906 217.207031 C 153.21875 217.085938 152.980469 217.128906 152.824219 217.285156 Z M 151.109375 215.296875 L 145.0625 210.164062 C 144.902344 210.003906 144.625 210.042969 144.503906 210.203125 C 144.347656 210.363281 144.386719 210.640625 144.546875 210.761719 L 150.59375 215.894531 C 150.671875 215.972656 150.753906 215.972656 150.832031 215.972656 C 150.953125 215.972656 151.070312 215.933594 151.152344 215.8125 C 151.269531 215.695312 151.269531 215.457031 151.109375 215.296875 Z M 153.339844 229.226562 C 153.179688 229.066406 152.941406 229.066406 152.78125 229.226562 C 152.625 229.382812 152.625 229.621094 152.78125 229.78125 L 171.605469 249.480469 C 171.683594 249.558594 171.804688 249.601562 171.882812 249.601562 C 171.964844 249.601562 172.082031 249.558594 172.164062 249.480469 C 172.320312 249.320312 172.320312 249.082031 172.164062 248.921875 Z M 147.488281 223.058594 C 147.332031 222.898438 147.09375 222.898438 146.933594 223.058594 C 146.773438 223.214844 146.773438 223.453125 146.933594 223.613281 L 150.234375 227.035156 C 150.316406 227.117188 150.433594 227.15625 150.515625 227.15625 C 150.59375 227.15625 150.714844 227.117188 150.792969 227.035156 C 150.953125 226.878906 150.953125 226.636719 150.792969 226.480469 Z M 144.785156 221.226562 C 144.863281 221.226562 144.984375 221.1875 145.0625 221.105469 C 145.222656 220.949219 145.222656 220.710938 145.0625 220.550781 L 125.882812 200.453125 C 125.722656 200.292969 125.484375 200.292969 125.324219 200.453125 C 125.164062 200.613281 125.164062 200.851562 125.324219 201.011719 L 144.503906 221.105469 C 144.585938 221.1875 144.703125 221.226562 144.785156 221.226562 Z M 149.242188 239.652344 C 149.121094 239.492188 148.84375 239.453125 148.683594 239.570312 C 148.523438 239.691406 148.484375 239.96875 148.605469 240.128906 L 151.90625 244.386719 C 151.988281 244.507812 152.105469 244.546875 152.226562 244.546875 C 152.304688 244.546875 152.382812 244.507812 152.464844 244.464844 C 152.625 244.347656 152.664062 244.070312 152.542969 243.910156 Z M 142.636719 231.136719 C 142.515625 230.976562 142.238281 230.9375 142.078125 231.054688 C 141.917969 231.175781 141.878906 231.453125 142 231.613281 L 146.613281 237.542969 C 146.695312 237.660156 146.8125 237.703125 146.933594 237.703125 C 147.011719 237.703125 147.09375 237.660156 147.171875 237.621094 C 147.332031 237.503906 147.371094 237.222656 147.25 237.066406 Z M 140.644531 229.621094 C 140.726562 229.621094 140.804688 229.582031 140.882812 229.542969 C 141.042969 229.425781 141.082031 229.144531 140.964844 228.984375 L 137.300781 224.25 C 137.183594 224.089844 136.90625 224.050781 136.746094 224.171875 C 136.585938 224.289062 136.546875 224.570312 136.664062 224.726562 L 140.328125 229.464844 C 140.40625 229.582031 140.527344 229.621094 140.644531 229.621094 Z M 135.152344 222.539062 C 135.234375 222.539062 135.3125 222.5 135.390625 222.460938 C 135.550781 222.339844 135.589844 222.0625 135.472656 221.902344 L 133.480469 219.355469 C 133.363281 219.195312 133.085938 219.15625 132.925781 219.277344 C 132.765625 219.394531 132.726562 219.675781 132.84375 219.832031 L 134.835938 222.378906 C 134.914062 222.460938 135.035156 222.539062 135.152344 222.539062 Z M 140.804688 247.492188 C 140.683594 247.292969 140.445312 247.253906 140.246094 247.371094 C 140.046875 247.492188 140.007812 247.730469 140.128906 247.929688 L 144.464844 254.972656 C 144.546875 255.089844 144.664062 255.171875 144.824219 255.171875 C 144.902344 255.171875 144.984375 255.171875 145.023438 255.132812 C 145.222656 255.011719 145.261719 254.773438 145.140625 254.574219 Z M 136.546875 241.28125 C 136.347656 241.402344 136.308594 241.640625 136.425781 241.839844 L 138.417969 245.0625 C 138.496094 245.183594 138.617188 245.261719 138.773438 245.261719 C 138.855469 245.261719 138.933594 245.261719 138.972656 245.222656 C 139.171875 245.101562 139.210938 244.863281 139.09375 244.664062 L 137.101562 241.441406 C 136.984375 241.242188 136.746094 241.164062 136.546875 241.28125 Z M 132.605469 234.875 C 132.40625 234.996094 132.367188 235.234375 132.488281 235.433594 L 135.273438 239.96875 C 135.351562 240.089844 135.472656 240.167969 135.632812 240.167969 C 135.710938 240.167969 135.789062 240.167969 135.828125 240.128906 C 136.027344 240.007812 136.070312 239.769531 135.949219 239.570312 L 133.164062 235.035156 C 133.042969 234.835938 132.804688 234.757812 132.605469 234.875 Z M 130.578125 231.53125 C 130.378906 231.652344 130.339844 231.890625 130.457031 232.089844 L 131.332031 233.5625 C 131.414062 233.683594 131.53125 233.761719 131.691406 233.761719 C 131.769531 233.761719 131.851562 233.761719 131.890625 233.722656 C 132.089844 233.601562 132.128906 233.363281 132.007812 233.164062 L 131.132812 231.691406 C 131.015625 231.453125 130.777344 231.414062 130.578125 231.53125 Z M 128.867188 229.144531 C 128.945312 229.144531 129.023438 229.144531 129.066406 229.105469 C 129.265625 228.984375 129.304688 228.746094 129.183594 228.546875 L 123.574219 219.355469 C 123.453125 219.15625 123.214844 219.117188 123.015625 219.238281 C 122.816406 219.355469 122.777344 219.59375 122.898438 219.792969 L 128.507812 228.984375 C 128.628906 229.066406 128.746094 229.144531 128.867188 229.144531 Z M 134.875 257.320312 C 134.796875 257.121094 134.554688 257.042969 134.359375 257.121094 C 134.160156 257.199219 134.078125 257.441406 134.160156 257.636719 L 138.375 267.546875 C 138.457031 267.707031 138.574219 267.785156 138.734375 267.785156 C 138.773438 267.785156 138.855469 267.785156 138.894531 267.746094 C 139.09375 267.667969 139.171875 267.429688 139.09375 267.230469 Z M 133.085938 253.0625 C 133.003906 252.863281 132.765625 252.785156 132.566406 252.863281 C 132.367188 252.941406 132.289062 253.179688 132.367188 253.378906 L 133.203125 255.332031 C 133.28125 255.488281 133.402344 255.570312 133.5625 255.570312 C 133.601562 255.570312 133.679688 255.570312 133.722656 255.53125 C 133.917969 255.449219 134 255.210938 133.917969 255.011719 Z M 129.304688 244.226562 C 129.222656 244.027344 128.984375 243.949219 128.785156 244.027344 C 128.585938 244.109375 128.507812 244.347656 128.585938 244.546875 L 131.332031 250.953125 C 131.414062 251.113281 131.53125 251.191406 131.691406 251.191406 C 131.730469 251.191406 131.8125 251.191406 131.851562 251.152344 C 132.050781 251.074219 132.128906 250.832031 132.050781 250.632812 Z M 127.671875 241.839844 C 127.710938 241.839844 127.792969 241.839844 127.832031 241.800781 C 128.03125 241.71875 128.109375 241.480469 128.03125 241.28125 L 124.925781 234.039062 C 124.847656 233.839844 124.609375 233.761719 124.410156 233.839844 C 124.210938 233.921875 124.128906 234.160156 124.210938 234.359375 L 127.3125 241.601562 C 127.394531 241.761719 127.511719 241.839844 127.671875 241.839844 Z M 126.636719 256.363281 C 126.558594 256.167969 126.359375 256.046875 126.121094 256.085938 C 125.921875 256.167969 125.800781 256.363281 125.839844 256.605469 L 127.550781 262.09375 C 127.59375 262.253906 127.75 262.375 127.949219 262.375 C 127.992188 262.375 128.03125 262.375 128.070312 262.375 C 128.269531 262.292969 128.386719 262.09375 128.347656 261.855469 Z M 123.054688 244.945312 C 122.976562 244.746094 122.777344 244.625 122.539062 244.664062 C 122.339844 244.746094 122.21875 244.945312 122.261719 245.183594 L 124.886719 253.578125 C 124.925781 253.738281 125.085938 253.859375 125.285156 253.859375 C 125.324219 253.859375 125.363281 253.859375 125.402344 253.859375 C 125.601562 253.777344 125.722656 253.578125 125.683594 253.339844 Z M 122.417969 242.796875 L 121.027344 238.296875 C 120.945312 238.097656 120.746094 237.980469 120.507812 238.019531 C 120.308594 238.097656 120.191406 238.296875 120.230469 238.535156 L 121.625 243.035156 C 121.664062 243.191406 121.820312 243.3125 122.019531 243.3125 C 122.0625 243.3125 122.101562 243.3125 122.140625 243.3125 C 122.339844 243.234375 122.457031 243.035156 122.417969 242.796875 Z M 116.210938 222.976562 C 116.132812 222.777344 115.933594 222.660156 115.695312 222.699219 C 115.496094 222.777344 115.375 222.976562 115.414062 223.214844 L 119.234375 235.433594 C 119.273438 235.59375 119.433594 235.710938 119.632812 235.710938 C 119.671875 235.710938 119.714844 235.710938 119.753906 235.710938 C 119.953125 235.632812 120.070312 235.433594 120.03125 235.195312 Z M 115.773438 256.5625 C 115.574219 256.605469 115.414062 256.804688 115.453125 257 L 116.289062 262.851562 C 116.332031 263.050781 116.488281 263.210938 116.6875 263.210938 C 116.6875 263.210938 116.726562 263.210938 116.726562 263.210938 C 116.925781 263.171875 117.085938 262.972656 117.046875 262.773438 L 116.210938 256.921875 C 116.210938 256.683594 116.011719 256.523438 115.773438 256.5625 Z M 115.574219 255.132812 C 115.773438 255.089844 115.933594 254.894531 115.894531 254.695312 L 115.375 251.191406 C 115.335938 250.992188 115.136719 250.832031 114.9375 250.875 C 114.738281 250.914062 114.578125 251.113281 114.621094 251.3125 L 115.136719 254.8125 C 115.175781 255.011719 115.335938 255.171875 115.535156 255.171875 C 115.535156 255.132812 115.574219 255.132812 115.574219 255.132812 Z M 115.015625 248.328125 L 113.425781 237.105469 C 113.386719 236.90625 113.1875 236.746094 112.988281 236.785156 C 112.789062 236.824219 112.628906 237.023438 112.667969 237.222656 L 114.261719 248.445312 C 114.300781 248.644531 114.460938 248.804688 114.660156 248.804688 C 114.660156 248.804688 114.699219 248.804688 114.699219 248.804688 C 114.898438 248.765625 115.058594 248.527344 115.015625 248.328125 Z M 112.988281 234.160156 L 112.230469 228.789062 C 112.191406 228.589844 111.992188 228.429688 111.792969 228.46875 C 111.59375 228.507812 111.4375 228.707031 111.476562 228.90625 L 112.230469 234.277344 C 112.269531 234.476562 112.429688 234.636719 112.628906 234.636719 C 112.628906 234.636719 112.667969 234.636719 112.667969 234.636719 C 112.867188 234.558594 113.027344 234.359375 112.988281 234.160156 Z M 96.273438 250.039062 C 96.035156 249.996094 95.875 250.15625 95.835938 250.394531 L 94.5625 262.773438 C 94.523438 262.972656 94.683594 263.171875 94.921875 263.210938 C 94.921875 263.210938 94.960938 263.210938 94.960938 263.210938 C 95.160156 263.210938 95.320312 263.050781 95.359375 262.851562 L 96.632812 250.476562 C 96.671875 250.277344 96.511719 250.078125 96.273438 250.039062 Z M 97.1875 241.042969 C 96.949219 241.042969 96.792969 241.164062 96.75 241.402344 L 96.113281 247.570312 C 96.074219 247.769531 96.234375 247.96875 96.472656 248.007812 C 96.472656 248.007812 96.511719 248.007812 96.511719 248.007812 C 96.710938 248.007812 96.871094 247.847656 96.910156 247.648438 L 97.546875 241.480469 C 97.585938 241.28125 97.429688 241.082031 97.1875 241.042969 Z M 98.542969 227.59375 C 98.304688 227.59375 98.144531 227.710938 98.105469 227.953125 L 97.070312 238.296875 C 97.03125 238.496094 97.1875 238.695312 97.429688 238.734375 C 97.429688 238.734375 97.46875 238.734375 97.46875 238.734375 C 97.667969 238.734375 97.824219 238.578125 97.867188 238.378906 L 98.902344 228.03125 C 98.941406 227.792969 98.78125 227.59375 98.542969 227.59375 Z M 83.9375 259.03125 C 83.738281 258.953125 83.5 259.109375 83.460938 259.308594 L 82.503906 262.691406 C 82.425781 262.890625 82.585938 263.128906 82.785156 263.171875 C 82.824219 263.171875 82.863281 263.171875 82.902344 263.171875 C 83.0625 263.171875 83.222656 263.050781 83.300781 262.890625 L 84.257812 259.507812 C 84.257812 259.308594 84.136719 259.109375 83.9375 259.03125 Z M 86.085938 251.429688 C 85.886719 251.351562 85.648438 251.511719 85.609375 251.710938 L 84.375 256.046875 C 84.296875 256.246094 84.453125 256.484375 84.652344 256.523438 C 84.695312 256.523438 84.734375 256.523438 84.773438 256.523438 C 84.933594 256.523438 85.089844 256.40625 85.171875 256.246094 L 86.40625 251.90625 C 86.445312 251.710938 86.324219 251.46875 86.085938 251.429688 Z M 90.582031 235.671875 C 90.382812 235.59375 90.144531 235.75 90.105469 235.949219 L 86.40625 248.964844 C 86.324219 249.164062 86.484375 249.402344 86.683594 249.441406 C 86.722656 249.441406 86.761719 249.441406 86.804688 249.441406 C 86.960938 249.441406 87.121094 249.320312 87.199219 249.164062 L 90.902344 236.148438 C 90.902344 235.949219 90.78125 235.710938 90.582031 235.671875 Z M 93.925781 223.894531 C 93.726562 223.8125 93.488281 223.972656 93.449219 224.171875 L 90.863281 233.324219 C 90.78125 233.523438 90.941406 233.761719 91.140625 233.800781 C 91.179688 233.800781 91.21875 233.800781 91.261719 233.800781 C 91.417969 233.800781 91.578125 233.683594 91.65625 233.523438 L 94.246094 224.371094 C 94.246094 224.171875 94.125 223.972656 93.925781 223.894531 Z M 76.296875 255.289062 C 76.097656 255.210938 75.859375 255.332031 75.78125 255.53125 L 70.40625 269.257812 C 70.328125 269.457031 70.445312 269.695312 70.644531 269.777344 C 70.6875 269.777344 70.726562 269.816406 70.804688 269.816406 C 70.964844 269.816406 71.125 269.734375 71.164062 269.578125 L 76.535156 255.847656 C 76.574219 255.609375 76.496094 255.371094 76.296875 255.289062 Z M 81.550781 241.839844 C 81.351562 241.761719 81.113281 241.878906 81.03125 242.078125 L 76.894531 252.625 C 76.8125 252.824219 76.933594 253.0625 77.132812 253.140625 C 77.171875 253.140625 77.210938 253.179688 77.292969 253.179688 C 77.449219 253.179688 77.609375 253.101562 77.648438 252.941406 L 81.789062 242.398438 C 81.867188 242.160156 81.75 241.917969 81.550781 241.839844 Z M 82.824219 239.730469 L 84.933594 234.359375 C 85.011719 234.160156 84.894531 233.921875 84.695312 233.839844 C 84.496094 233.761719 84.257812 233.882812 84.175781 234.078125 L 82.066406 239.453125 C 81.988281 239.652344 82.105469 239.890625 82.304688 239.96875 C 82.347656 239.96875 82.386719 240.007812 82.464844 240.007812 C 82.585938 240.007812 82.742188 239.890625 82.824219 239.730469 Z M 70.445312 246.417969 C 70.25 246.296875 70.007812 246.375 69.890625 246.535156 L 65.035156 254.535156 C 64.914062 254.734375 64.996094 254.972656 65.15625 255.089844 C 65.234375 255.132812 65.273438 255.132812 65.351562 255.132812 C 65.472656 255.132812 65.632812 255.050781 65.710938 254.933594 L 70.566406 246.933594 C 70.6875 246.773438 70.644531 246.535156 70.445312 246.417969 Z M 72.476562 242.316406 L 71.242188 244.386719 C 71.125 244.585938 71.203125 244.824219 71.363281 244.945312 C 71.441406 244.984375 71.480469 244.984375 71.5625 244.984375 C 71.679688 244.984375 71.839844 244.902344 71.917969 244.785156 L 73.152344 242.714844 C 73.273438 242.515625 73.191406 242.277344 73.035156 242.160156 C 72.835938 242.078125 72.597656 242.160156 72.476562 242.316406 Z M 74.070312 240.488281 C 74.148438 240.527344 74.1875 240.527344 74.265625 240.527344 C 74.386719 240.527344 74.546875 240.445312 74.625 240.328125 L 78.484375 234.039062 C 78.605469 233.839844 78.527344 233.601562 78.367188 233.484375 C 78.167969 233.363281 77.929688 233.441406 77.808594 233.601562 L 73.949219 239.890625 C 73.828125 240.128906 73.871094 240.367188 74.070312 240.488281 Z M 79.519531 231.53125 C 79.601562 231.574219 79.640625 231.574219 79.71875 231.574219 C 79.839844 231.574219 79.996094 231.492188 80.078125 231.375 L 85.726562 222.101562 C 85.847656 221.902344 85.769531 221.664062 85.609375 221.542969 C 85.410156 221.425781 85.171875 221.503906 85.050781 221.664062 L 79.402344 230.976562 C 79.28125 231.175781 79.359375 231.414062 79.519531 231.53125 Z M 63.324219 239.292969 L 58.945312 245.183594 C 58.828125 245.34375 58.867188 245.621094 59.027344 245.738281 C 59.105469 245.78125 59.183594 245.820312 59.265625 245.820312 C 59.382812 245.820312 59.503906 245.78125 59.582031 245.660156 L 63.960938 239.769531 C 64.078125 239.613281 64.039062 239.332031 63.882812 239.214844 C 63.722656 239.09375 63.484375 239.09375 63.324219 239.292969 Z M 65.511719 237.703125 L 68.777344 233.285156 C 68.894531 233.125 68.855469 232.847656 68.695312 232.726562 C 68.535156 232.609375 68.257812 232.648438 68.140625 232.804688 L 64.875 237.222656 C 64.757812 237.382812 64.796875 237.660156 64.957031 237.78125 C 65.035156 237.820312 65.113281 237.859375 65.195312 237.859375 C 65.3125 237.859375 65.433594 237.78125 65.511719 237.703125 Z M 74.746094 224.609375 C 74.585938 224.488281 74.308594 224.527344 74.1875 224.6875 L 70.445312 229.742188 C 70.328125 229.902344 70.367188 230.179688 70.527344 230.300781 C 70.605469 230.339844 70.6875 230.378906 70.765625 230.378906 C 70.886719 230.378906 71.003906 230.339844 71.082031 230.21875 L 74.824219 225.167969 C 74.945312 224.96875 74.902344 224.726562 74.746094 224.609375 Z M 76.574219 222.738281 L 77.929688 220.867188 C 78.046875 220.707031 78.007812 220.429688 77.847656 220.3125 C 77.691406 220.191406 77.410156 220.230469 77.292969 220.390625 L 75.9375 222.261719 C 75.820312 222.421875 75.859375 222.699219 76.019531 222.816406 C 76.097656 222.859375 76.175781 222.898438 76.257812 222.898438 C 76.375 222.898438 76.535156 222.859375 76.574219 222.738281 Z M 43.546875 243.628906 L 39.328125 247.890625 C 39.167969 248.046875 39.167969 248.285156 39.328125 248.445312 C 39.40625 248.527344 39.488281 248.566406 39.605469 248.566406 C 39.726562 248.566406 39.804688 248.527344 39.882812 248.445312 L 44.101562 244.1875 C 44.261719 244.027344 44.261719 243.789062 44.101562 243.628906 C 43.984375 243.472656 43.703125 243.472656 43.546875 243.628906 Z M 57.671875 229.425781 L 45.8125 241.363281 C 45.65625 241.523438 45.65625 241.761719 45.8125 241.917969 C 45.894531 242 45.972656 242.039062 46.09375 242.039062 C 46.210938 242.039062 46.292969 242 46.371094 241.917969 L 58.230469 229.980469 C 58.390625 229.820312 58.390625 229.582031 58.230469 229.425781 C 58.109375 229.265625 57.832031 229.265625 57.671875 229.425781 Z M 63.722656 223.335938 L 59.980469 227.117188 C 59.820312 227.273438 59.820312 227.515625 59.980469 227.671875 C 60.0625 227.753906 60.140625 227.792969 60.257812 227.792969 C 60.378906 227.792969 60.457031 227.753906 60.539062 227.671875 L 64.277344 223.890625 C 64.4375 223.734375 64.4375 223.496094 64.277344 223.335938 C 64.121094 223.175781 63.882812 223.175781 63.722656 223.335938 Z M 80.675781 206.820312 C 80.515625 206.660156 80.277344 206.660156 80.117188 206.820312 L 66.109375 220.949219 C 65.949219 221.105469 65.949219 221.347656 66.109375 221.503906 C 66.1875 221.585938 66.269531 221.625 66.386719 221.625 C 66.507812 221.625 66.585938 221.585938 66.667969 221.503906 L 80.675781 207.378906 C 80.832031 207.21875 80.832031 206.980469 80.675781 206.820312 Z M 84.257812 202.640625 L 82.585938 204.351562 C 82.425781 204.511719 82.425781 204.75 82.585938 204.910156 C 82.664062 204.988281 82.742188 205.03125 82.863281 205.03125 C 82.984375 205.03125 83.0625 204.988281 83.140625 204.910156 L 84.8125 203.199219 C 84.972656 203.039062 84.972656 202.800781 84.8125 202.640625 C 84.652344 202.484375 84.414062 202.484375 84.257812 202.640625 Z M 44.78125 228.109375 L 41.476562 230.894531 C 41.316406 231.054688 41.277344 231.292969 41.4375 231.453125 C 41.515625 231.53125 41.636719 231.613281 41.753906 231.613281 C 41.835938 231.613281 41.953125 231.574219 41.992188 231.53125 L 45.296875 228.746094 C 45.457031 228.589844 45.496094 228.347656 45.335938 228.191406 C 45.175781 227.992188 44.9375 227.953125 44.78125 228.109375 Z M 47.128906 227.035156 C 47.207031 227.035156 47.328125 226.996094 47.367188 226.957031 L 54.488281 220.988281 C 54.648438 220.828125 54.6875 220.589844 54.527344 220.429688 C 54.371094 220.269531 54.132812 220.230469 53.972656 220.390625 L 46.847656 226.359375 C 46.691406 226.519531 46.648438 226.757812 46.808594 226.917969 C 46.886719 226.996094 47.007812 227.035156 47.128906 227.035156 Z M 61.8125 213.785156 L 55.761719 218.878906 C 55.605469 219.039062 55.5625 219.277344 55.722656 219.433594 C 55.800781 219.515625 55.921875 219.59375 56.042969 219.59375 C 56.121094 219.59375 56.242188 219.554688 56.28125 219.515625 L 62.328125 214.421875 C 62.488281 214.261719 62.527344 214.023438 62.367188 213.863281 C 62.210938 213.664062 61.972656 213.664062 61.8125 213.785156 Z M 66.625 210.800781 C 66.785156 210.640625 66.824219 210.402344 66.667969 210.242188 C 66.507812 210.082031 66.269531 210.042969 66.109375 210.203125 L 64.398438 211.636719 C 64.238281 211.796875 64.199219 212.035156 64.359375 212.191406 C 64.4375 212.273438 64.558594 212.351562 64.675781 212.351562 C 64.757812 212.351562 64.875 212.3125 64.914062 212.273438 Z M 32.402344 223.535156 L 28.464844 226.320312 C 28.265625 226.4375 28.226562 226.679688 28.382812 226.878906 C 28.464844 226.996094 28.582031 227.035156 28.703125 227.035156 C 28.78125 227.035156 28.863281 226.996094 28.941406 226.957031 L 32.878906 224.171875 C 33.078125 224.050781 33.121094 223.8125 32.960938 223.613281 C 32.800781 223.453125 32.5625 223.375 32.402344 223.535156 Z M 42.511719 216.808594 C 42.390625 216.609375 42.152344 216.570312 41.953125 216.730469 L 34.75 221.863281 C 34.550781 221.980469 34.511719 222.222656 34.671875 222.421875 C 34.75 222.539062 34.871094 222.578125 34.988281 222.578125 C 35.070312 222.578125 35.148438 222.539062 35.230469 222.5 L 42.429688 217.367188 C 42.589844 217.246094 42.628906 217.007812 42.511719 216.808594 Z M 45.734375 214.0625 L 44.101562 215.21875 C 43.902344 215.335938 43.863281 215.574219 44.023438 215.773438 C 44.101562 215.894531 44.222656 215.933594 44.339844 215.933594 C 44.421875 215.933594 44.5 215.894531 44.582031 215.855469 L 46.210938 214.699219 C 46.410156 214.582031 46.449219 214.34375 46.292969 214.144531 C 46.132812 213.984375 45.894531 213.945312 45.734375 214.0625 Z M 47.882812 213.027344 C 47.964844 213.148438 48.082031 213.1875 48.203125 213.1875 C 48.28125 213.1875 48.359375 213.148438 48.441406 213.109375 L 53.296875 209.644531 C 53.496094 209.527344 53.535156 209.289062 53.375 209.089844 C 53.253906 208.929688 53.015625 208.851562 52.816406 209.007812 L 47.964844 212.472656 C 47.804688 212.589844 47.722656 212.828125 47.882812 213.027344 Z M 64.359375 201.328125 C 64.238281 201.128906 64 201.089844 63.800781 201.25 L 55.085938 207.417969 C 54.886719 207.535156 54.847656 207.777344 55.007812 207.976562 C 55.085938 208.09375 55.207031 208.132812 55.324219 208.132812 C 55.40625 208.132812 55.484375 208.09375 55.5625 208.054688 L 64.277344 201.886719 C 64.4375 201.765625 64.476562 201.527344 64.359375 201.328125 Z M 21.101562 213.425781 L 18.234375 214.660156 C 18.039062 214.738281 17.957031 214.980469 18.039062 215.175781 C 18.117188 215.335938 18.234375 215.417969 18.394531 215.417969 C 18.433594 215.417969 18.515625 215.417969 18.554688 215.375 L 21.417969 214.144531 C 21.617188 214.0625 21.699219 213.824219 21.617188 213.625 C 21.539062 213.464844 21.300781 213.347656 21.101562 213.425781 Z M 28.265625 210.839844 C 28.183594 210.640625 27.945312 210.5625 27.746094 210.640625 L 23.171875 212.589844 C 22.972656 212.671875 22.890625 212.910156 22.972656 213.109375 C 23.050781 213.265625 23.171875 213.347656 23.328125 213.347656 C 23.371094 213.347656 23.449219 213.347656 23.488281 213.308594 L 28.066406 211.355469 C 28.226562 211.277344 28.34375 211.039062 28.265625 210.839844 Z M 32.640625 208.53125 L 30.691406 209.367188 C 30.492188 209.445312 30.414062 209.6875 30.492188 209.886719 C 30.574219 210.042969 30.691406 210.125 30.851562 210.125 C 30.890625 210.125 30.96875 210.125 31.011719 210.082031 L 32.960938 209.25 C 33.160156 209.167969 33.238281 208.929688 33.160156 208.730469 C 33.078125 208.53125 32.839844 208.453125 32.640625 208.53125 Z M 35.070312 208.332031 C 35.109375 208.332031 35.1875 208.332031 35.230469 208.292969 L 39.765625 206.34375 C 39.964844 206.261719 40.042969 206.023438 39.964844 205.824219 C 39.882812 205.625 39.644531 205.546875 39.445312 205.625 L 34.910156 207.578125 C 34.710938 207.65625 34.632812 207.894531 34.710938 208.09375 C 34.75 208.253906 34.910156 208.332031 35.070312 208.332031 Z M 50.429688 201.410156 C 50.351562 201.210938 50.113281 201.128906 49.914062 201.210938 L 41.953125 204.59375 C 41.753906 204.671875 41.675781 204.910156 41.753906 205.109375 C 41.835938 205.269531 41.953125 205.347656 42.113281 205.347656 C 42.152344 205.347656 42.234375 205.347656 42.273438 205.308594 L 50.230469 201.925781 C 50.390625 201.847656 50.511719 201.609375 50.429688 201.410156 Z M 20.902344 204.550781 C 20.941406 204.710938 21.101562 204.832031 21.300781 204.832031 C 21.339844 204.832031 21.378906 204.832031 21.417969 204.832031 L 28.265625 202.640625 C 28.464844 202.5625 28.582031 202.363281 28.503906 202.125 C 28.421875 201.925781 28.226562 201.804688 27.984375 201.886719 L 21.140625 204.074219 C 20.941406 204.113281 20.824219 204.351562 20.902344 204.550781 Z M 39.050781 198.703125 C 38.96875 198.503906 38.769531 198.382812 38.53125 198.464844 L 30.015625 201.210938 C 29.816406 201.289062 29.695312 201.488281 29.777344 201.726562 C 29.816406 201.886719 29.976562 202.003906 30.175781 202.003906 C 30.214844 202.003906 30.253906 202.003906 30.292969 202.003906 L 38.808594 199.257812 C 39.007812 199.140625 39.128906 198.902344 39.050781 198.703125 Z M 40.917969 198.503906 C 40.960938 198.503906 41 198.503906 41.039062 198.503906 L 49.195312 195.878906 C 49.394531 195.796875 49.515625 195.597656 49.433594 195.359375 C 49.355469 195.160156 49.15625 195.042969 48.917969 195.121094 L 40.761719 197.746094 C 40.5625 197.828125 40.441406 198.027344 40.519531 198.265625 C 40.5625 198.382812 40.71875 198.503906 40.917969 198.503906 Z M 56.917969 192.972656 C 56.835938 192.773438 56.636719 192.652344 56.398438 192.734375 L 51.703125 194.246094 C 51.503906 194.324219 51.386719 194.523438 51.464844 194.761719 C 51.503906 194.921875 51.664062 195.042969 51.863281 195.042969 C 51.902344 195.042969 51.941406 195.042969 51.980469 195.042969 L 56.679688 193.527344 C 56.878906 193.410156 56.996094 193.171875 56.917969 192.972656 Z M 58.984375 192.695312 C 59.027344 192.695312 59.066406 192.695312 59.105469 192.695312 L 62.210938 191.699219 C 62.410156 191.617188 62.527344 191.421875 62.449219 191.179688 C 62.367188 190.980469 62.167969 190.863281 61.929688 190.941406 L 58.828125 191.9375 C 58.628906 192.015625 58.507812 192.214844 58.589844 192.453125 C 58.667969 192.574219 58.828125 192.695312 58.984375 192.695312 Z M 23.371094 191.699219 L 26.316406 191.179688 C 26.511719 191.140625 26.671875 190.941406 26.632812 190.703125 C 26.59375 190.503906 26.394531 190.34375 26.15625 190.386719 L 23.210938 190.902344 C 23.011719 190.941406 22.851562 191.140625 22.890625 191.378906 C 22.933594 191.578125 23.089844 191.699219 23.289062 191.699219 C 23.289062 191.699219 23.328125 191.699219 23.371094 191.699219 Z M 43.027344 187.839844 C 42.988281 187.640625 42.789062 187.480469 42.550781 187.519531 L 29.058594 189.867188 C 28.863281 189.90625 28.703125 190.105469 28.742188 190.34375 C 28.78125 190.542969 28.941406 190.664062 29.140625 190.664062 C 29.179688 190.664062 29.179688 190.664062 29.21875 190.664062 L 42.710938 188.316406 C 42.910156 188.277344 43.066406 188.078125 43.027344 187.839844 Z M 45.375 187.042969 C 45.175781 187.082031 45.019531 187.28125 45.058594 187.519531 C 45.097656 187.71875 45.257812 187.839844 45.457031 187.839844 C 45.496094 187.839844 45.496094 187.839844 45.535156 187.839844 L 54.132812 186.328125 C 54.332031 186.285156 54.488281 186.085938 54.449219 185.847656 C 54.410156 185.648438 54.210938 185.492188 53.972656 185.53125 Z M 22.890625 167.863281 C 22.851562 168.058594 23.011719 168.300781 23.210938 168.300781 L 36.503906 170.210938 C 36.503906 170.210938 36.542969 170.210938 36.542969 170.210938 C 36.742188 170.210938 36.898438 170.050781 36.941406 169.851562 C 36.980469 169.652344 36.820312 169.414062 36.621094 169.414062 L 23.328125 167.503906 C 23.132812 167.464844 22.933594 167.621094 22.890625 167.863281 Z M 50.628906 172.277344 C 50.828125 172.277344 50.988281 172.121094 51.027344 171.921875 C 51.066406 171.722656 50.90625 171.484375 50.707031 171.484375 L 39.605469 169.851562 C 39.40625 169.8125 39.167969 169.96875 39.167969 170.167969 C 39.128906 170.367188 39.289062 170.605469 39.488281 170.605469 L 50.589844 172.238281 C 50.589844 172.277344 50.628906 172.277344 50.628906 172.277344 Z M 55.722656 172.996094 C 55.722656 172.996094 55.761719 172.996094 55.761719 172.996094 C 55.960938 172.996094 56.121094 172.835938 56.160156 172.636719 C 56.199219 172.4375 56.042969 172.199219 55.84375 172.199219 L 53.375 171.839844 C 53.175781 171.800781 52.9375 171.960938 52.9375 172.160156 C 52.898438 172.359375 53.058594 172.597656 53.253906 172.597656 Z M 24.722656 156.160156 L 19.507812 154.730469 C 19.3125 154.6875 19.070312 154.808594 19.03125 155.007812 C 18.992188 155.207031 19.113281 155.445312 19.3125 155.484375 L 24.523438 156.917969 C 24.5625 156.917969 24.601562 156.917969 24.644531 156.917969 C 24.800781 156.917969 24.960938 156.796875 25.042969 156.640625 C 25.042969 156.441406 24.921875 156.203125 24.722656 156.160156 Z M 27.308594 157.675781 L 29.378906 158.230469 C 29.417969 158.230469 29.457031 158.230469 29.5 158.230469 C 29.65625 158.230469 29.816406 158.113281 29.894531 157.953125 C 29.9375 157.753906 29.816406 157.515625 29.617188 157.476562 L 27.546875 156.917969 C 27.347656 156.878906 27.109375 156.996094 27.070312 157.195312 C 26.992188 157.394531 27.109375 157.632812 27.308594 157.675781 Z M 32.324219 158.628906 C 32.285156 158.828125 32.402344 159.066406 32.601562 159.105469 L 46.011719 162.769531 C 46.054688 162.769531 46.09375 162.769531 46.132812 162.769531 C 46.292969 162.769531 46.449219 162.648438 46.53125 162.488281 C 46.570312 162.289062 46.449219 162.050781 46.25 162.011719 L 32.839844 158.351562 C 32.601562 158.3125 32.363281 158.429688 32.324219 158.628906 Z M 63.164062 167.464844 C 63.324219 167.464844 63.484375 167.34375 63.5625 167.183594 C 63.601562 166.984375 63.484375 166.746094 63.285156 166.707031 L 49.433594 162.925781 C 49.238281 162.886719 48.996094 163.007812 48.957031 163.207031 C 48.917969 163.40625 49.039062 163.644531 49.238281 163.683594 L 63.085938 167.464844 C 63.085938 167.464844 63.125 167.464844 63.164062 167.464844 Z M 15.886719 143.347656 L 25.359375 147.644531 C 25.398438 147.683594 25.480469 147.683594 25.519531 147.683594 C 25.679688 147.683594 25.796875 147.605469 25.875 147.445312 C 25.957031 147.246094 25.875 147.007812 25.679688 146.929688 L 16.207031 142.632812 C 16.007812 142.550781 15.769531 142.632812 15.6875 142.832031 C 15.609375 143.03125 15.6875 143.269531 15.886719 143.347656 Z M 27.867188 148.800781 L 39.367188 154.011719 C 39.40625 154.050781 39.488281 154.050781 39.527344 154.050781 C 39.6875 154.050781 39.804688 153.972656 39.882812 153.8125 C 39.964844 153.613281 39.882812 153.375 39.6875 153.296875 L 28.183594 148.082031 C 27.984375 148.003906 27.746094 148.082031 27.667969 148.28125 C 27.589844 148.480469 27.667969 148.71875 27.867188 148.800781 Z M 42.351562 154.96875 C 42.273438 155.167969 42.351562 155.40625 42.550781 155.484375 L 51.066406 159.34375 C 51.105469 159.386719 51.1875 159.386719 51.226562 159.386719 C 51.386719 159.386719 51.503906 159.304688 51.585938 159.144531 C 51.664062 158.949219 51.585938 158.707031 51.386719 158.628906 L 42.871094 154.769531 C 42.671875 154.648438 42.429688 154.769531 42.351562 154.96875 Z M 65.351562 158.550781 C 65.472656 158.550781 65.59375 158.46875 65.671875 158.390625 C 65.792969 158.191406 65.75 157.953125 65.550781 157.832031 L 63.246094 156.320312 C 63.046875 156.203125 62.804688 156.242188 62.6875 156.441406 C 62.566406 156.640625 62.609375 156.878906 62.804688 156.996094 L 65.113281 158.507812 C 65.195312 158.507812 65.273438 158.550781 65.351562 158.550781 Z M 50.90625 148.601562 C 50.789062 148.800781 50.828125 149.039062 51.027344 149.15625 L 60.140625 155.207031 C 60.21875 155.246094 60.300781 155.285156 60.378906 155.285156 C 60.5 155.285156 60.617188 155.207031 60.699219 155.128906 C 60.816406 154.929688 60.777344 154.6875 60.578125 154.570312 L 51.464844 148.519531 C 51.265625 148.363281 51.027344 148.402344 50.90625 148.601562 Z M 37.457031 140.203125 L 48.082031 147.207031 C 48.160156 147.246094 48.242188 147.289062 48.320312 147.289062 C 48.441406 147.289062 48.558594 147.207031 48.640625 147.128906 C 48.757812 146.929688 48.71875 146.691406 48.519531 146.570312 L 37.894531 139.566406 C 37.695312 139.449219 37.457031 139.488281 37.335938 139.6875 C 37.21875 139.804688 37.257812 140.042969 37.457031 140.203125 Z M 33.835938 137.816406 L 35.230469 138.730469 C 35.308594 138.769531 35.386719 138.8125 35.46875 138.8125 C 35.585938 138.8125 35.707031 138.730469 35.785156 138.652344 C 35.90625 138.453125 35.867188 138.214844 35.667969 138.09375 L 34.273438 137.179688 C 34.074219 137.058594 33.835938 137.101562 33.714844 137.300781 C 33.597656 137.417969 33.675781 137.695312 33.835938 137.816406 Z M 28.464844 134.234375 L 31.210938 136.066406 C 31.289062 136.105469 31.367188 136.144531 31.449219 136.144531 C 31.566406 136.144531 31.6875 136.066406 31.765625 135.984375 C 31.886719 135.785156 31.847656 135.546875 31.648438 135.429688 L 28.902344 133.597656 C 28.703125 133.480469 28.464844 133.519531 28.34375 133.71875 C 28.226562 133.875 28.265625 134.117188 28.464844 134.234375 Z M 41.398438 127.589844 C 41.238281 127.75 41.277344 128.027344 41.4375 128.144531 L 46.054688 132.085938 C 46.132812 132.164062 46.210938 132.164062 46.292969 132.164062 C 46.410156 132.164062 46.53125 132.125 46.609375 132.046875 C 46.769531 131.886719 46.730469 131.609375 46.570312 131.488281 L 41.953125 127.550781 C 41.792969 127.390625 41.554688 127.429688 41.398438 127.589844 Z M 50.550781 134.871094 L 48.320312 132.960938 C 48.160156 132.800781 47.882812 132.84375 47.765625 133 C 47.605469 133.160156 47.644531 133.4375 47.804688 133.558594 L 50.03125 135.46875 C 50.113281 135.546875 50.191406 135.546875 50.269531 135.546875 C 50.390625 135.546875 50.511719 135.507812 50.589844 135.429688 C 50.707031 135.269531 50.707031 135.03125 50.550781 134.871094 Z M 52.738281 136.742188 C 52.578125 136.582031 52.300781 136.621094 52.179688 136.78125 C 52.023438 136.941406 52.0625 137.21875 52.222656 137.339844 L 57.832031 142.152344 C 57.910156 142.234375 57.992188 142.234375 58.070312 142.234375 C 58.191406 142.234375 58.308594 142.195312 58.390625 142.113281 C 58.546875 141.953125 58.507812 141.675781 58.347656 141.558594 Z M 60.378906 143.824219 C 60.21875 143.984375 60.257812 144.261719 60.417969 144.382812 L 66.625 149.714844 C 66.707031 149.792969 66.785156 149.792969 66.867188 149.792969 C 66.984375 149.792969 67.105469 149.753906 67.183594 149.675781 C 67.34375 149.515625 67.304688 149.238281 67.144531 149.117188 L 60.9375 143.785156 C 60.777344 143.625 60.5 143.667969 60.378906 143.824219 Z M 43.347656 114.496094 C 43.425781 114.578125 43.546875 114.617188 43.625 114.617188 C 43.703125 114.617188 43.824219 114.578125 43.902344 114.496094 C 44.0625 114.335938 44.0625 114.097656 43.902344 113.941406 L 38.96875 108.804688 C 38.808594 108.648438 38.570312 108.648438 38.414062 108.804688 C 38.253906 108.964844 38.253906 109.203125 38.414062 109.363281 Z M 57.710938 129.417969 C 57.792969 129.5 57.910156 129.539062 57.992188 129.539062 C 58.070312 129.539062 58.191406 129.5 58.269531 129.417969 C 58.429688 129.261719 58.429688 129.023438 58.269531 128.863281 L 46.09375 116.207031 C 45.933594 116.046875 45.695312 116.046875 45.535156 116.207031 C 45.375 116.367188 45.375 116.605469 45.535156 116.765625 Z M 60.5 131.128906 C 60.339844 130.972656 60.101562 130.972656 59.941406 131.128906 C 59.78125 131.289062 59.78125 131.527344 59.941406 131.6875 L 64.4375 136.34375 C 64.519531 136.421875 64.636719 136.464844 64.714844 136.464844 C 64.796875 136.464844 64.914062 136.421875 64.996094 136.34375 C 65.15625 136.183594 65.15625 135.945312 64.996094 135.785156 Z M 66.90625 138.332031 C 66.746094 138.492188 66.746094 138.730469 66.90625 138.890625 L 76.21875 148.519531 C 76.296875 148.601562 76.417969 148.640625 76.496094 148.640625 C 76.574219 148.640625 76.695312 148.601562 76.773438 148.519531 C 76.933594 148.363281 76.933594 148.125 76.773438 147.964844 L 67.460938 138.332031 C 67.304688 138.175781 67.066406 138.175781 66.90625 138.332031 Z M 78.964844 150.273438 C 78.804688 150.113281 78.566406 150.113281 78.40625 150.273438 C 78.246094 150.429688 78.246094 150.671875 78.40625 150.828125 L 84.257812 156.917969 C 84.335938 156.996094 84.453125 157.039062 84.535156 157.039062 C 84.613281 157.039062 84.734375 156.996094 84.8125 156.917969 C 84.972656 156.757812 84.972656 156.519531 84.8125 156.359375 Z M 66.707031 124.761719 C 66.785156 124.882812 66.90625 124.921875 67.023438 124.921875 C 67.105469 124.921875 67.183594 124.882812 67.261719 124.84375 C 67.421875 124.722656 67.503906 124.484375 67.34375 124.285156 L 59.464844 113.304688 C 59.34375 113.144531 59.105469 113.0625 58.90625 113.222656 C 58.746094 113.34375 58.667969 113.582031 58.828125 113.78125 Z M 68.578125 126.714844 C 68.417969 126.832031 68.339844 127.070312 68.496094 127.269531 L 73.433594 134.15625 C 73.511719 134.273438 73.628906 134.3125 73.75 134.3125 C 73.828125 134.3125 73.910156 134.273438 73.988281 134.234375 C 74.148438 134.117188 74.226562 133.875 74.070312 133.675781 L 69.132812 126.792969 C 68.976562 126.632812 68.734375 126.59375 68.578125 126.714844 Z M 75.621094 136.542969 C 75.460938 136.664062 75.382812 136.902344 75.539062 137.101562 L 77.53125 139.847656 C 77.609375 139.964844 77.730469 140.003906 77.847656 140.003906 C 77.929688 140.003906 78.007812 139.964844 78.085938 139.925781 C 78.246094 139.804688 78.328125 139.566406 78.167969 139.367188 L 76.175781 136.621094 C 76.019531 136.464844 75.78125 136.421875 75.621094 136.542969 Z M 71.480469 112.785156 C 71.5625 112.90625 71.679688 112.984375 71.839844 112.984375 C 71.917969 112.984375 71.960938 112.984375 72.039062 112.945312 C 72.238281 112.824219 72.316406 112.585938 72.199219 112.386719 L 67.261719 103.59375 C 67.144531 103.394531 66.90625 103.3125 66.707031 103.433594 C 66.507812 103.554688 66.429688 103.792969 66.546875 103.992188 Z M 73.988281 115.609375 C 73.871094 115.410156 73.628906 115.332031 73.433594 115.453125 C 73.234375 115.570312 73.152344 115.808594 73.273438 116.007812 L 77.96875 124.324219 C 78.046875 124.445312 78.167969 124.523438 78.328125 124.523438 C 78.40625 124.523438 78.445312 124.523438 78.527344 124.484375 C 78.722656 124.367188 78.804688 124.125 78.683594 123.929688 Z M 86.246094 138.292969 C 86.445312 138.175781 86.523438 137.9375 86.40625 137.738281 L 80.195312 126.671875 C 80.078125 126.476562 79.839844 126.394531 79.640625 126.515625 C 79.441406 126.632812 79.359375 126.871094 79.480469 127.070312 L 85.6875 138.132812 C 85.769531 138.253906 85.886719 138.332031 86.046875 138.332031 C 86.125 138.332031 86.207031 138.332031 86.246094 138.292969 Z M 74.386719 99.414062 C 74.464844 99.574219 74.585938 99.652344 74.746094 99.652344 C 74.785156 99.652344 74.824219 99.652344 74.902344 99.613281 C 75.101562 99.535156 75.222656 99.296875 75.144531 99.097656 L 71.960938 91.019531 C 71.878906 90.820312 71.640625 90.699219 71.441406 90.777344 C 71.242188 90.859375 71.125 91.097656 71.203125 91.296875 Z M 76.175781 103.910156 C 76.257812 104.070312 76.375 104.148438 76.535156 104.148438 C 76.574219 104.148438 76.617188 104.148438 76.695312 104.109375 C 76.894531 104.03125 77.011719 103.792969 76.933594 103.59375 L 76.257812 101.84375 C 76.175781 101.644531 75.9375 101.523438 75.738281 101.601562 C 75.539062 101.683594 75.421875 101.921875 75.5 102.121094 Z M 76.933594 105.902344 L 82.148438 119.152344 C 82.226562 119.3125 82.347656 119.390625 82.503906 119.390625 C 82.542969 119.390625 82.585938 119.390625 82.664062 119.351562 C 82.863281 119.273438 82.984375 119.035156 82.902344 118.835938 L 77.691406 105.621094 C 77.609375 105.421875 77.371094 105.304688 77.171875 105.382812 C 76.972656 105.464844 76.855469 105.703125 76.933594 105.902344 Z M 84.535156 124.566406 C 84.574219 124.566406 84.613281 124.566406 84.695312 124.523438 C 84.894531 124.445312 85.011719 124.207031 84.933594 124.007812 L 84.015625 121.699219 C 83.9375 121.5 83.699219 121.382812 83.5 121.460938 C 83.300781 121.539062 83.179688 121.777344 83.261719 121.976562 L 84.175781 124.285156 C 84.257812 124.445312 84.375 124.566406 84.535156 124.566406 Z M 85.210938 107.09375 C 85.25 107.253906 85.410156 107.375 85.609375 107.375 C 85.648438 107.375 85.6875 107.375 85.726562 107.375 C 85.925781 107.292969 86.046875 107.09375 86.007812 106.894531 L 82.941406 96.429688 C 82.863281 96.230469 82.664062 96.113281 82.464844 96.152344 C 82.265625 96.230469 82.148438 96.429688 82.1875 96.628906 Z M 89.390625 121.460938 C 89.429688 121.621094 89.589844 121.738281 89.789062 121.738281 C 89.828125 121.738281 89.867188 121.738281 89.90625 121.738281 C 90.105469 121.660156 90.226562 121.460938 90.183594 121.261719 L 86.761719 109.601562 C 86.683594 109.402344 86.484375 109.285156 86.285156 109.324219 C 86.085938 109.402344 85.96875 109.601562 86.007812 109.800781 Z M 92.175781 130.972656 C 92.214844 131.128906 92.375 131.25 92.574219 131.25 C 92.613281 131.25 92.652344 131.25 92.691406 131.25 C 92.890625 131.171875 93.011719 130.972656 92.972656 130.773438 L 91.019531 124.167969 C 90.941406 123.96875 90.742188 123.847656 90.542969 123.886719 C 90.34375 123.96875 90.226562 124.167969 90.265625 124.367188 Z M 93.527344 132.761719 C 93.449219 132.5625 93.25 132.445312 93.050781 132.484375 C 92.851562 132.5625 92.730469 132.761719 92.773438 132.960938 L 93.410156 135.191406 C 93.449219 135.347656 93.609375 135.46875 93.808594 135.46875 C 93.847656 135.46875 93.886719 135.46875 93.925781 135.46875 C 94.125 135.390625 94.246094 135.191406 94.203125 134.992188 Z M 95.359375 107.691406 C 95.398438 107.691406 95.398438 107.691406 95.4375 107.691406 C 95.636719 107.652344 95.796875 107.453125 95.757812 107.214844 L 94.203125 97.824219 C 94.164062 97.625 93.964844 97.464844 93.726562 97.503906 C 93.527344 97.542969 93.367188 97.742188 93.410156 97.980469 L 94.960938 107.375 C 95 107.574219 95.160156 107.691406 95.359375 107.691406 Z M 95.476562 110.398438 L 97.429688 122.136719 C 97.46875 122.335938 97.628906 122.457031 97.824219 122.457031 C 97.867188 122.457031 97.867188 122.457031 97.90625 122.457031 C 98.105469 122.414062 98.265625 122.214844 98.222656 121.976562 L 96.273438 110.238281 C 96.234375 110.039062 96.035156 109.878906 95.796875 109.921875 C 95.597656 109.960938 95.4375 110.160156 95.476562 110.398438 Z M 98.183594 124.085938 C 97.984375 124.125 97.824219 124.324219 97.867188 124.566406 L 98.820312 130.296875 C 98.859375 130.492188 99.019531 130.613281 99.21875 130.613281 C 99.257812 130.613281 99.257812 130.613281 99.296875 130.613281 C 99.496094 130.574219 99.65625 130.375 99.617188 130.136719 L 98.660156 124.40625 C 98.582031 124.167969 98.382812 124.046875 98.183594 124.085938 Z M 98.183594 124.085938 " fill-opacity="1" fill-rule="nonzero"/></g><g fill="#000000" fill-opacity="1"><g transform="translate(86.148117, 205.999388)"><g><path d="M 1.78125 0 L 1.78125 -0.8125 L 2.828125 -1.046875 C 3.859375 -1.316406 4.671875 -1.789062 5.265625 -2.46875 C 5.859375 -3.144531 6.15625 -4.019531 6.15625 -5.09375 C 6.15625 -7.09375 6.164062 -9.078125 6.1875 -11.046875 C 6.21875 -13.015625 6.234375 -14.992188 6.234375 -16.984375 L 6.234375 -37.296875 L 1.703125 -37.296875 L 1.703125 -38.1875 L 3.484375 -38.515625 C 4.554688 -38.617188 5.332031 -38.992188 5.8125 -39.640625 C 6.300781 -40.285156 6.65625 -41.175781 6.875 -42.3125 C 7.414062 -44.414062 8.210938 -46.265625 9.265625 -47.859375 C 10.316406 -49.453125 11.515625 -50.921875 12.859375 -52.265625 C 14.910156 -54.203125 17.082031 -55.5625 19.375 -56.34375 C 21.664062 -57.132812 23.914062 -57.53125 26.125 -57.53125 C 28.289062 -57.53125 30.257812 -57.082031 32.03125 -56.1875 C 33.8125 -55.300781 34.703125 -53.832031 34.703125 -51.78125 C 34.703125 -50.320312 34.269531 -49.175781 33.40625 -48.34375 C 32.550781 -47.507812 31.34375 -47.09375 29.78125 -47.09375 C 28.476562 -47.09375 27.285156 -47.441406 26.203125 -48.140625 C 25.128906 -48.835938 24.082031 -50.078125 23.0625 -51.859375 L 21.921875 -53.234375 C 21.328125 -53.992188 20.734375 -54.359375 20.140625 -54.328125 C 19.546875 -54.296875 19.113281 -53.851562 18.84375 -53 C 18.46875 -51.101562 18.1875 -48.890625 18 -46.359375 C 17.8125 -43.828125 17.71875 -41.347656 17.71875 -38.921875 L 26.78125 -38.921875 L 26.78125 -37.296875 L 17.71875 -37.296875 L 17.71875 -5.265625 C 17.71875 -3.210938 18.796875 -1.890625 20.953125 -1.296875 L 22.984375 -0.8125 L 22.984375 0 Z M 1.78125 0 "/></g></g></g><g fill="#000000" fill-opacity="1"><g transform="translate(113.894917, 205.999388)"><g><path d="M 1.859375 0 L 1.859375 -0.8125 L 2.828125 -1.125 C 4.773438 -1.78125 5.75 -3.128906 5.75 -5.171875 L 5.75 -48.46875 C 5.75 -49.539062 5.53125 -50.359375 5.09375 -50.921875 C 4.664062 -51.492188 3.910156 -51.914062 2.828125 -52.1875 L 1.78125 -52.421875 L 1.78125 -53.234375 L 16.578125 -56.71875 L 17.5625 -55.984375 L 17.234375 -44.65625 L 17.234375 -16.984375 C 17.234375 -14.992188 17.242188 -13.015625 17.265625 -11.046875 C 17.296875 -9.078125 17.3125 -7.117188 17.3125 -5.171875 C 17.3125 -4.097656 17.523438 -3.222656 17.953125 -2.546875 C 18.390625 -1.867188 19.117188 -1.367188 20.140625 -1.046875 L 21.203125 -0.8125 L 21.203125 0 Z M 1.859375 0 "/></g></g></g><g fill="#000000" fill-opacity="1"><g transform="translate(137.030736, 205.999388)"><g><path d="M 22.09375 1.21875 C 17.988281 1.21875 14.425781 0.367188 11.40625 -1.328125 C 8.382812 -3.035156 6.050781 -5.453125 4.40625 -8.578125 C 2.757812 -11.703125 1.9375 -15.367188 1.9375 -19.578125 C 1.9375 -23.785156 2.8125 -27.425781 4.5625 -30.5 C 6.320312 -33.570312 8.722656 -35.941406 11.765625 -37.609375 C 14.816406 -39.285156 18.257812 -40.125 22.09375 -40.125 C 25.914062 -40.125 29.335938 -39.300781 32.359375 -37.65625 C 35.378906 -36.007812 37.765625 -33.648438 39.515625 -30.578125 C 41.273438 -27.503906 42.15625 -23.835938 42.15625 -19.578125 C 42.15625 -15.316406 41.332031 -11.632812 39.6875 -8.53125 C 38.039062 -5.4375 35.71875 -3.035156 32.71875 -1.328125 C 29.726562 0.367188 26.1875 1.21875 22.09375 1.21875 Z M 22.09375 -0.40625 C 23.976562 -0.40625 25.484375 -0.941406 26.609375 -2.015625 C 27.742188 -3.097656 28.566406 -5.015625 29.078125 -7.765625 C 29.597656 -10.515625 29.859375 -14.398438 29.859375 -19.421875 C 29.859375 -24.484375 29.597656 -28.390625 29.078125 -31.140625 C 28.566406 -33.898438 27.742188 -35.816406 26.609375 -36.890625 C 25.484375 -37.972656 23.976562 -38.515625 22.09375 -38.515625 C 20.195312 -38.515625 18.671875 -37.972656 17.515625 -36.890625 C 16.359375 -35.816406 15.519531 -33.898438 15 -31.140625 C 14.488281 -28.390625 14.234375 -24.484375 14.234375 -19.421875 C 14.234375 -14.398438 14.488281 -10.515625 15 -7.765625 C 15.519531 -5.015625 16.359375 -3.097656 17.515625 -2.015625 C 18.671875 -0.941406 20.195312 -0.40625 22.09375 -0.40625 Z M 22.09375 -0.40625 "/></g></g></g><g fill="#000000" fill-opacity="1"><g transform="translate(181.118229, 205.999388)"><g><path d="M 19.25 -14 C 15.53125 -14 12.378906 -14.617188 9.796875 -15.859375 L 9.796875 -13.109375 C 9.796875 -11.429688 10.628906 -10.429688 12.296875 -10.109375 L 27.515625 -7.28125 C 30.046875 -6.789062 32.332031 -6.15625 34.375 -5.375 C 36.425781 -4.59375 38.070312 -3.488281 39.3125 -2.0625 C 40.5625 -0.632812 41.1875 1.316406 41.1875 3.796875 C 41.1875 6.441406 40.320312 8.882812 38.59375 11.125 C 36.863281 13.363281 34.3125 15.171875 30.9375 16.546875 C 27.570312 17.921875 23.378906 18.609375 18.359375 18.609375 C 14.046875 18.609375 10.617188 18.160156 8.078125 17.265625 C 5.546875 16.378906 3.753906 15.234375 2.703125 13.828125 C 1.648438 12.429688 1.125 10.953125 1.125 9.390625 C 1.125 7.441406 1.785156 5.484375 3.109375 3.515625 C 4.429688 1.546875 6.066406 -0.03125 8.015625 -1.21875 C 6.335938 -1.863281 5.117188 -2.695312 4.359375 -3.71875 C 3.609375 -4.75 3.234375 -5.851562 3.234375 -7.03125 C 3.234375 -8.113281 3.515625 -9.125 4.078125 -10.0625 C 4.648438 -11.007812 5.34375 -11.96875 6.15625 -12.9375 L 8.8125 -16.34375 C 4.875 -18.601562 2.90625 -22.160156 2.90625 -27.015625 C 2.90625 -30.898438 4.296875 -34.054688 7.078125 -36.484375 C 9.859375 -38.910156 13.945312 -40.125 19.34375 -40.125 C 22.09375 -40.125 24.503906 -39.800781 26.578125 -39.15625 C 28.648438 -38.507812 30.363281 -37.59375 31.71875 -36.40625 C 33.4375 -36.675781 35.066406 -37.117188 36.609375 -37.734375 C 38.148438 -38.359375 39.539062 -39.210938 40.78125 -40.296875 L 41.90625 -39.484375 L 41.90625 -35.359375 L 32.765625 -35.359375 C 34.703125 -33.203125 35.671875 -30.421875 35.671875 -27.015625 C 35.671875 -23.242188 34.28125 -20.128906 31.5 -17.671875 C 28.726562 -15.222656 24.644531 -14 19.25 -14 Z M 19.171875 -15.609375 C 21.328125 -15.609375 22.90625 -16.5 23.90625 -18.28125 C 24.90625 -20.0625 25.40625 -23.03125 25.40625 -27.1875 C 25.40625 -31.34375 24.90625 -34.269531 23.90625 -35.96875 C 22.90625 -37.664062 21.382812 -38.515625 19.34375 -38.515625 C 17.34375 -38.515625 15.828125 -37.632812 14.796875 -35.875 C 13.773438 -34.125 13.265625 -31.171875 13.265625 -27.015625 C 13.265625 -22.867188 13.734375 -19.929688 14.671875 -18.203125 C 15.617188 -16.472656 17.117188 -15.609375 19.171875 -15.609375 Z M 7.125 6.796875 C 7.125 9.972656 8.109375 12.367188 10.078125 13.984375 C 12.046875 15.609375 15.160156 16.421875 19.421875 16.421875 C 23.890625 16.421875 27.253906 15.691406 29.515625 14.234375 C 31.785156 12.785156 32.921875 10.738281 32.921875 8.09375 C 32.921875 6.582031 32.367188 5.367188 31.265625 4.453125 C 30.160156 3.535156 28.285156 2.832031 25.640625 2.34375 L 11 -0.40625 C 10.570312 -0.507812 10.140625 -0.617188 9.703125 -0.734375 C 8.953125 0.347656 8.332031 1.578125 7.84375 2.953125 C 7.363281 4.328125 7.125 5.609375 7.125 6.796875 Z M 7.125 6.796875 "/></g></g></g><g fill="#000000" fill-opacity="1"><g transform="translate(224.073189, 205.999388)"><g><path d="M 1.625 0 L 1.625 -0.8125 L 2.828125 -1.125 C 3.910156 -1.457031 4.648438 -1.945312 5.046875 -2.59375 C 5.453125 -3.238281 5.65625 -4.070312 5.65625 -5.09375 L 5.65625 -30.421875 C 5.65625 -31.609375 5.453125 -32.484375 5.046875 -33.046875 C 4.648438 -33.617188 3.910156 -34.007812 2.828125 -34.21875 L 1.625 -34.546875 L 1.625 -35.359375 L 15.53125 -40.046875 L 16.34375 -39.234375 L 17.078125 -32.28125 L 17.078125 -31.640625 C 17.828125 -33.148438 18.804688 -34.535156 20.015625 -35.796875 C 21.234375 -37.066406 22.582031 -38.101562 24.0625 -38.90625 C 25.550781 -39.71875 27.023438 -40.125 28.484375 -40.125 C 30.523438 -40.125 32.085938 -39.554688 33.171875 -38.421875 C 34.253906 -37.296875 34.796875 -35.867188 34.796875 -34.140625 C 34.796875 -32.304688 34.269531 -30.890625 33.21875 -29.890625 C 32.164062 -28.890625 30.910156 -28.390625 29.453125 -28.390625 C 27.179688 -28.390625 25.1875 -29.523438 23.46875 -31.796875 L 23.296875 -31.953125 C 22.753906 -32.710938 22.132812 -33.128906 21.4375 -33.203125 C 20.738281 -33.285156 20.09375 -32.953125 19.5 -32.203125 C 18.957031 -31.710938 18.507812 -31.128906 18.15625 -30.453125 C 17.8125 -29.785156 17.476562 -29.019531 17.15625 -28.15625 L 17.15625 -5.578125 C 17.15625 -3.421875 18.097656 -2.070312 19.984375 -1.53125 L 22.578125 -0.8125 L 22.578125 0 Z M 1.625 0 "/></g></g></g><g fill="#000000" fill-opacity="1"><g transform="translate(259.747647, 205.999388)"><g><path d="M 22.09375 1.21875 C 17.988281 1.21875 14.425781 0.367188 11.40625 -1.328125 C 8.382812 -3.035156 6.050781 -5.453125 4.40625 -8.578125 C 2.757812 -11.703125 1.9375 -15.367188 1.9375 -19.578125 C 1.9375 -23.785156 2.8125 -27.425781 4.5625 -30.5 C 6.320312 -33.570312 8.722656 -35.941406 11.765625 -37.609375 C 14.816406 -39.285156 18.257812 -40.125 22.09375 -40.125 C 25.914062 -40.125 29.335938 -39.300781 32.359375 -37.65625 C 35.378906 -36.007812 37.765625 -33.648438 39.515625 -30.578125 C 41.273438 -27.503906 42.15625 -23.835938 42.15625 -19.578125 C 42.15625 -15.316406 41.332031 -11.632812 39.6875 -8.53125 C 38.039062 -5.4375 35.71875 -3.035156 32.71875 -1.328125 C 29.726562 0.367188 26.1875 1.21875 22.09375 1.21875 Z M 22.09375 -0.40625 C 23.976562 -0.40625 25.484375 -0.941406 26.609375 -2.015625 C 27.742188 -3.097656 28.566406 -5.015625 29.078125 -7.765625 C 29.597656 -10.515625 29.859375 -14.398438 29.859375 -19.421875 C 29.859375 -24.484375 29.597656 -28.390625 29.078125 -31.140625 C 28.566406 -33.898438 27.742188 -35.816406 26.609375 -36.890625 C 25.484375 -37.972656 23.976562 -38.515625 22.09375 -38.515625 C 20.195312 -38.515625 18.671875 -37.972656 17.515625 -36.890625 C 16.359375 -35.816406 15.519531 -33.898438 15 -31.140625 C 14.488281 -28.390625 14.234375 -24.484375 14.234375 -19.421875 C 14.234375 -14.398438 14.488281 -10.515625 15 -7.765625 C 15.519531 -5.015625 16.359375 -3.097656 17.515625 -2.015625 C 18.671875 -0.941406 20.195312 -0.40625 22.09375 -0.40625 Z M 22.09375 -0.40625 "/></g></g></g><g fill="#000000" fill-opacity="1"><g transform="translate(303.83514, 205.999388)"><g><path d="M 18.203125 0.25 L 5.75 -33.984375 C 5.15625 -35.703125 3.96875 -36.914062 2.1875 -37.625 L 0.8125 -38.109375 L 0.8125 -38.921875 L 20.625 -38.921875 L 20.625 -38.109375 L 19.421875 -37.78125 C 17.316406 -37.132812 16.613281 -35.84375 17.3125 -33.90625 L 24.84375 -11 L 31.546875 -28.796875 L 30.015625 -33.421875 C 29.640625 -34.597656 29.25 -35.5 28.84375 -36.125 C 28.4375 -36.75 27.910156 -37.191406 27.265625 -37.453125 L 25.890625 -38.109375 L 25.890625 -38.921875 L 42.640625 -38.921875 L 42.640625 -38.109375 L 41.5 -37.625 C 40.695312 -37.300781 40.210938 -36.867188 40.046875 -36.328125 C 39.890625 -35.785156 40 -34.976562 40.375 -33.90625 L 47.8125 -11.40625 L 55.5 -33.734375 C 56.257812 -35.785156 55.851562 -37.082031 54.28125 -37.625 L 52.515625 -38.109375 L 52.515625 -38.921875 L 62.21875 -38.921875 L 62.21875 -38.109375 L 60.28125 -37.546875 C 59.363281 -37.273438 58.703125 -36.851562 58.296875 -36.28125 C 57.890625 -35.71875 57.523438 -34.953125 57.203125 -33.984375 L 45.546875 0.25 L 41.421875 0.25 L 32.4375 -26.21875 L 22.890625 0.25 Z M 18.203125 0.25 "/></g></g></g></svg>