<svg xmlns="http://www.w3.org/2000/svg" xmlns:xlink="http://www.w3.org/1999/xlink" width="500" zoomAndPan="magnify" viewBox="0 0 375 374.999991" height="500" preserveAspectRatio="xMidYMid meet" version="1.0"><defs><g/><clipPath id="e19887d48d"><path d="M 236.359375 121.355469 L 261 121.355469 L 261 149 L 236.359375 149 Z M 236.359375 121.355469 " clip-rule="nonzero"/></clipPath><clipPath id="be6867ee00"><path d="M 259 139 L 276.109375 139 L 276.109375 158.105469 L 259 158.105469 Z M 259 139 " clip-rule="nonzero"/></clipPath><clipPath id="7e0f4f108b"><path d="M 19.023438 96.015625 L 169 96.015625 L 169 243.015625 L 19.023438 243.015625 Z M 19.023438 96.015625 " clip-rule="nonzero"/></clipPath></defs><g clip-path="url(#e19887d48d)"><path fill="#ffffff" d="M 245.382812 138.445312 L 236.375 134.746094 L 245.367188 131.050781 L 248.34375 121.355469 L 251.324219 131.050781 L 260.460938 134.804688 L 251.910156 138.453125 L 248.496094 148.875 Z M 245.382812 138.445312 " fill-opacity="1" fill-rule="nonzero"/></g><g clip-path="url(#be6867ee00)"><path fill="#ffffff" d="M 265.945312 151.078125 L 259.8125 148.558594 L 265.933594 146.042969 L 267.960938 139.441406 L 269.992188 146.042969 L 276.214844 148.601562 L 270.390625 151.082031 L 268.066406 158.179688 Z M 265.945312 151.078125 " fill-opacity="1" fill-rule="nonzero"/></g><g clip-path="url(#7e0f4f108b)"><path fill="#ffffff" d="M 95.421875 141.730469 L 95.421875 145.949219 C 95.421875 146.132812 95.300781 146.257812 95.117188 146.257812 C 94.929688 146.257812 94.808594 146.132812 94.808594 145.949219 L 94.808594 141.730469 C 94.808594 141.542969 94.929688 141.421875 95.117188 141.421875 C 95.300781 141.421875 95.421875 141.542969 95.421875 141.730469 Z M 95.117188 133.996094 C 94.929688 133.996094 94.808594 134.121094 94.808594 134.304688 L 94.808594 138.617188 C 94.808594 138.800781 94.929688 138.925781 95.117188 138.925781 C 95.300781 138.925781 95.421875 138.800781 95.421875 138.617188 L 95.421875 134.304688 C 95.421875 134.121094 95.300781 133.996094 95.117188 133.996094 Z M 95.117188 106.242188 C 94.929688 106.242188 94.808594 106.363281 94.808594 106.550781 L 94.808594 130.792969 C 94.808594 130.976562 94.929688 131.101562 95.117188 131.101562 C 95.300781 131.101562 95.421875 130.976562 95.421875 130.792969 L 95.421875 106.550781 C 95.421875 106.363281 95.300781 106.242188 95.117188 106.242188 Z M 95.117188 96.015625 C 94.929688 96.015625 94.808594 96.136719 94.808594 96.324219 L 94.808594 103.808594 C 94.808594 103.992188 94.929688 104.117188 95.117188 104.117188 C 95.300781 104.117188 95.421875 103.992188 95.421875 103.808594 L 95.421875 96.324219 C 95.421875 96.136719 95.300781 96.015625 95.117188 96.015625 Z M 168.675781 170.128906 L 164.949219 170.128906 C 164.765625 170.128906 164.640625 170.253906 164.640625 170.4375 C 164.640625 170.625 164.765625 170.746094 164.949219 170.746094 L 168.675781 170.746094 C 168.863281 170.746094 168.984375 170.625 168.984375 170.4375 C 168.984375 170.253906 168.832031 170.128906 168.675781 170.128906 Z M 162.421875 170.128906 L 130.695312 170.128906 C 130.511719 170.128906 130.386719 170.253906 130.386719 170.4375 C 130.386719 170.625 130.511719 170.746094 130.695312 170.746094 L 162.421875 170.746094 C 162.609375 170.746094 162.730469 170.625 162.730469 170.4375 C 162.730469 170.253906 162.578125 170.128906 162.421875 170.128906 Z M 123.394531 170.746094 L 128.355469 170.746094 C 128.539062 170.746094 128.660156 170.625 128.660156 170.4375 C 128.660156 170.253906 128.539062 170.128906 128.355469 170.128906 L 123.394531 170.128906 C 123.210938 170.128906 123.085938 170.253906 123.085938 170.4375 C 123.085938 170.625 123.210938 170.746094 123.394531 170.746094 Z M 118.125 170.128906 C 117.941406 170.128906 117.816406 170.253906 117.816406 170.4375 C 117.816406 170.625 117.941406 170.746094 118.125 170.746094 L 120.28125 170.746094 C 120.46875 170.746094 120.589844 170.625 120.589844 170.4375 C 120.589844 170.253906 120.46875 170.128906 120.28125 170.128906 Z M 94.007812 236.914062 C 93.820312 236.914062 93.699219 237.039062 93.699219 237.222656 L 93.699219 242.707031 C 93.699219 242.890625 93.820312 243.015625 94.007812 243.015625 C 94.191406 243.015625 94.3125 242.890625 94.3125 242.707031 L 94.3125 237.222656 C 94.3125 237.039062 94.191406 236.914062 94.007812 236.914062 Z M 94.007812 227.457031 C 93.820312 227.457031 93.699219 227.582031 93.699219 227.765625 L 93.699219 235.25 C 93.699219 235.4375 93.820312 235.558594 94.007812 235.558594 C 94.191406 235.558594 94.3125 235.4375 94.3125 235.25 L 94.3125 227.765625 C 94.3125 227.613281 94.191406 227.457031 94.007812 227.457031 Z M 94.007812 207.988281 C 93.820312 207.988281 93.699219 208.113281 93.699219 208.296875 L 93.699219 225.609375 C 93.699219 225.792969 93.820312 225.917969 94.007812 225.917969 C 94.191406 225.917969 94.3125 225.792969 94.3125 225.609375 L 94.3125 208.296875 C 94.3125 208.113281 94.191406 207.988281 94.007812 207.988281 Z M 94.007812 201.457031 C 93.820312 201.457031 93.699219 201.582031 93.699219 201.765625 L 93.699219 205.925781 C 93.699219 206.109375 93.820312 206.234375 94.007812 206.234375 C 94.191406 206.234375 94.3125 206.109375 94.3125 205.925781 L 94.3125 201.765625 C 94.3125 201.613281 94.191406 201.457031 94.007812 201.457031 Z M 94.007812 194.433594 C 93.820312 194.433594 93.699219 194.558594 93.699219 194.742188 L 93.699219 198.007812 C 93.699219 198.195312 93.820312 198.316406 94.007812 198.316406 C 94.191406 198.316406 94.3125 198.195312 94.3125 198.007812 L 94.3125 194.742188 C 94.3125 194.589844 94.191406 194.433594 94.007812 194.433594 Z M 25.558594 169.300781 L 19.367188 169.300781 C 19.183594 169.300781 19.058594 169.421875 19.058594 169.605469 C 19.058594 169.792969 19.183594 169.914062 19.367188 169.914062 L 25.558594 169.914062 C 25.742188 169.914062 25.867188 169.792969 25.867188 169.605469 C 25.867188 169.421875 25.710938 169.300781 25.558594 169.300781 Z M 41.054688 169.605469 C 41.054688 169.421875 40.929688 169.300781 40.746094 169.300781 L 28.023438 169.300781 C 27.835938 169.300781 27.714844 169.421875 27.714844 169.605469 C 27.714844 169.792969 27.835938 169.914062 28.023438 169.914062 L 40.714844 169.914062 C 40.898438 169.914062 41.054688 169.761719 41.054688 169.605469 Z M 58.613281 169.605469 C 58.613281 169.421875 58.488281 169.300781 58.304688 169.300781 L 44.132812 169.300781 C 43.949219 169.300781 43.824219 169.421875 43.824219 169.605469 C 43.824219 169.792969 43.949219 169.914062 44.132812 169.914062 L 58.335938 169.914062 C 58.488281 169.914062 58.613281 169.761719 58.613281 169.605469 Z M 65.140625 169.605469 C 65.140625 169.421875 65.019531 169.300781 64.835938 169.300781 L 61.570312 169.300781 C 61.382812 169.300781 61.261719 169.421875 61.261719 169.605469 C 61.261719 169.792969 61.382812 169.914062 61.570312 169.914062 L 64.835938 169.914062 C 64.988281 169.914062 65.140625 169.761719 65.140625 169.605469 Z M 67.238281 169.300781 C 67.050781 169.300781 66.929688 169.421875 66.929688 169.605469 C 66.929688 169.792969 67.050781 169.914062 67.238281 169.914062 L 70.5625 169.914062 C 70.75 169.914062 70.871094 169.792969 70.871094 169.605469 C 70.871094 169.421875 70.75 169.300781 70.5625 169.300781 Z M 99.457031 134.613281 C 99.457031 134.613281 99.488281 134.613281 99.488281 134.613281 C 99.644531 134.613281 99.765625 134.488281 99.796875 134.335938 L 100.136719 131.59375 C 100.167969 131.441406 100.042969 131.285156 99.859375 131.253906 C 99.707031 131.222656 99.550781 131.347656 99.519531 131.53125 L 99.179688 134.273438 C 99.152344 134.429688 99.273438 134.582031 99.457031 134.613281 Z M 100.167969 129.007812 C 100.167969 129.007812 100.199219 129.007812 100.199219 129.007812 C 100.351562 129.007812 100.476562 128.882812 100.507812 128.730469 L 101.554688 120.566406 C 101.585938 120.410156 101.460938 120.257812 101.277344 120.226562 C 101.121094 120.195312 100.96875 120.320312 100.9375 120.503906 L 99.890625 128.667969 C 99.859375 128.820312 99.984375 128.976562 100.167969 129.007812 Z M 101.492188 118.441406 C 101.492188 118.441406 101.523438 118.441406 101.523438 118.441406 C 101.675781 118.441406 101.800781 118.316406 101.832031 118.164062 L 102.507812 112.894531 C 102.539062 112.742188 102.417969 112.585938 102.230469 112.554688 C 102.078125 112.527344 101.921875 112.648438 101.890625 112.832031 L 101.214844 118.101562 C 101.214844 118.253906 101.335938 118.410156 101.492188 118.441406 Z M 102.507812 110.492188 C 102.507812 110.492188 102.539062 110.492188 102.539062 110.492188 C 102.691406 110.492188 102.816406 110.371094 102.847656 110.214844 L 103.1875 107.628906 C 103.21875 107.472656 103.09375 107.320312 102.910156 107.289062 C 102.753906 107.257812 102.601562 107.382812 102.570312 107.566406 L 102.230469 110.152344 C 102.230469 110.308594 102.324219 110.460938 102.507812 110.492188 Z M 103.433594 138.894531 C 103.464844 138.894531 103.496094 138.894531 103.523438 138.894531 C 103.648438 138.894531 103.769531 138.800781 103.832031 138.679688 L 106.144531 129.746094 C 106.175781 129.589844 106.082031 129.40625 105.925781 129.375 C 105.773438 129.34375 105.589844 129.4375 105.558594 129.589844 L 103.246094 138.523438 C 103.1875 138.679688 103.277344 138.863281 103.433594 138.894531 Z M 106.453125 127.3125 C 106.480469 127.3125 106.511719 127.3125 106.542969 127.3125 C 106.667969 127.3125 106.789062 127.21875 106.851562 127.097656 L 109.441406 117.175781 C 109.46875 117.023438 109.378906 116.839844 109.222656 116.808594 C 109.070312 116.777344 108.886719 116.871094 108.855469 117.023438 L 106.265625 126.941406 C 106.203125 127.097656 106.296875 127.28125 106.453125 127.3125 Z M 109.6875 114.960938 C 109.714844 114.960938 109.746094 114.960938 109.777344 114.960938 C 109.902344 114.960938 110.023438 114.867188 110.085938 114.742188 L 111.933594 107.660156 C 111.964844 107.503906 111.871094 107.320312 111.71875 107.289062 C 111.566406 107.257812 111.378906 107.351562 111.347656 107.503906 L 109.5 114.589844 C 109.410156 114.742188 109.53125 114.929688 109.6875 114.960938 Z M 111.597656 125.09375 C 111.441406 125.03125 111.257812 125.125 111.195312 125.277344 L 109.992188 128.605469 C 109.933594 128.761719 110.023438 128.945312 110.179688 129.007812 C 110.210938 129.007812 110.242188 129.035156 110.269531 129.035156 C 110.394531 129.035156 110.519531 128.945312 110.546875 128.820312 L 111.75 125.496094 C 111.84375 125.308594 111.75 125.15625 111.597656 125.09375 Z M 112.027344 123.894531 C 112.058594 123.894531 112.089844 123.921875 112.121094 123.921875 C 112.242188 123.921875 112.367188 123.832031 112.398438 123.707031 L 114.335938 118.316406 C 114.398438 118.164062 114.304688 117.976562 114.152344 117.917969 C 114 117.855469 113.8125 117.949219 113.753906 118.101562 L 111.8125 123.492188 C 111.78125 123.644531 111.871094 123.832031 112.027344 123.894531 Z M 114.832031 116.097656 C 114.859375 116.097656 114.890625 116.128906 114.921875 116.128906 C 115.046875 116.128906 115.167969 116.039062 115.199219 115.914062 L 115.847656 114.160156 C 115.910156 114.003906 115.816406 113.820312 115.660156 113.757812 C 115.507812 113.695312 115.324219 113.789062 115.261719 113.941406 L 114.613281 115.699219 C 114.613281 115.882812 114.675781 116.066406 114.832031 116.097656 Z M 116.15625 112.464844 C 116.1875 112.464844 116.214844 112.496094 116.246094 112.496094 C 116.371094 112.496094 116.492188 112.402344 116.523438 112.28125 L 119.542969 103.902344 C 119.605469 103.746094 119.511719 103.5625 119.359375 103.5 C 119.203125 103.4375 119.019531 103.53125 118.957031 103.683594 L 115.9375 112.0625 C 115.910156 112.25 116 112.433594 116.15625 112.464844 Z M 111.75 135.9375 C 111.597656 135.84375 111.410156 135.90625 111.320312 136.0625 L 110.023438 138.464844 C 109.933594 138.617188 109.992188 138.800781 110.148438 138.894531 C 110.210938 138.925781 110.242188 138.925781 110.300781 138.925781 C 110.425781 138.925781 110.519531 138.863281 110.578125 138.769531 L 111.871094 136.367188 C 111.964844 136.183594 111.902344 136 111.75 135.9375 Z M 117.355469 125.554688 C 117.203125 125.464844 117.015625 125.523438 116.925781 125.679688 C 115.386719 128.511719 113.875 131.347656 112.644531 133.597656 C 112.550781 133.75 112.613281 133.933594 112.765625 134.027344 C 112.828125 134.058594 112.859375 134.058594 112.921875 134.058594 C 113.042969 134.058594 113.136719 133.996094 113.199219 133.902344 C 114.429688 131.65625 115.9375 128.820312 117.480469 125.988281 C 117.570312 125.832031 117.511719 125.648438 117.355469 125.554688 Z M 118.28125 123.832031 C 118.34375 123.863281 118.371094 123.863281 118.433594 123.863281 C 118.558594 123.863281 118.648438 123.800781 118.710938 123.707031 C 119.976562 121.367188 121.175781 119.117188 122.191406 117.238281 C 122.285156 117.085938 122.222656 116.898438 122.070312 116.808594 C 121.914062 116.714844 121.730469 116.777344 121.636719 116.929688 C 120.621094 118.808594 119.421875 121.058594 118.15625 123.398438 C 118.066406 123.585938 118.125 123.769531 118.28125 123.832031 Z M 123.210938 114.652344 C 123.238281 114.683594 123.300781 114.683594 123.363281 114.683594 C 123.488281 114.683594 123.578125 114.621094 123.640625 114.527344 C 124.78125 112.371094 124.8125 112.28125 124.8125 112.21875 C 124.84375 112.0625 124.75 111.878906 124.59375 111.847656 C 124.441406 111.816406 124.257812 111.910156 124.226562 112.0625 C 124.195312 112.125 124.011719 112.496094 123.085938 114.25 C 122.992188 114.40625 123.054688 114.589844 123.210938 114.652344 Z M 118.648438 135.289062 L 115.9375 139.078125 C 115.847656 139.203125 115.878906 139.417969 116 139.511719 C 116.0625 139.542969 116.125 139.574219 116.1875 139.574219 C 116.277344 139.574219 116.371094 139.542969 116.433594 139.449219 L 119.144531 135.660156 C 119.234375 135.535156 119.203125 135.320312 119.082031 135.230469 C 118.925781 135.105469 118.742188 135.167969 118.648438 135.289062 Z M 120.804688 133.320312 L 124.566406 128.113281 C 124.65625 127.988281 124.625 127.773438 124.503906 127.683594 C 124.378906 127.589844 124.164062 127.621094 124.070312 127.742188 L 120.3125 132.949219 C 120.222656 133.074219 120.25 133.289062 120.375 133.378906 C 120.4375 133.410156 120.5 133.441406 120.558594 133.441406 C 120.652344 133.441406 120.746094 133.410156 120.804688 133.320312 Z M 126.167969 125.679688 C 126.257812 125.679688 126.351562 125.648438 126.414062 125.554688 L 130.234375 120.289062 C 130.324219 120.164062 130.292969 119.949219 130.171875 119.855469 C 130.046875 119.765625 129.832031 119.796875 129.738281 119.917969 L 125.921875 125.1875 C 125.828125 125.308594 125.859375 125.523438 125.980469 125.617188 C 126.042969 125.648438 126.105469 125.679688 126.167969 125.679688 Z M 143.386719 119.828125 C 143.480469 119.828125 143.539062 119.796875 143.601562 119.734375 L 145.941406 117.300781 C 146.066406 117.175781 146.066406 116.992188 145.941406 116.871094 C 145.820312 116.746094 145.636719 116.746094 145.511719 116.871094 L 143.171875 119.304688 C 143.046875 119.425781 143.046875 119.609375 143.171875 119.734375 C 143.230469 119.796875 143.324219 119.828125 143.386719 119.828125 Z M 131.742188 131.871094 C 131.835938 131.871094 131.894531 131.839844 131.957031 131.777344 L 141.167969 122.261719 C 141.292969 122.136719 141.292969 121.953125 141.167969 121.828125 C 141.046875 121.707031 140.859375 121.707031 140.738281 121.828125 L 131.527344 131.347656 C 131.402344 131.46875 131.402344 131.65625 131.527344 131.777344 C 131.589844 131.839844 131.679688 131.871094 131.742188 131.871094 Z M 126.167969 137.632812 C 126.257812 137.632812 126.320312 137.601562 126.382812 137.539062 L 130.203125 133.597656 C 130.324219 133.472656 130.324219 133.289062 130.203125 133.164062 C 130.078125 133.042969 129.894531 133.042969 129.769531 133.164062 L 125.949219 137.109375 C 125.828125 137.230469 125.828125 137.414062 125.949219 137.539062 C 126.011719 137.601562 126.074219 137.632812 126.167969 137.632812 Z M 117.171875 146.625 C 117.234375 146.6875 117.292969 146.71875 117.386719 146.71875 C 117.480469 146.71875 117.542969 146.6875 117.601562 146.625 L 124.503906 139.480469 C 124.625 139.355469 124.625 139.171875 124.503906 139.046875 C 124.378906 138.925781 124.195312 138.925781 124.070312 139.046875 L 117.171875 146.195312 C 117.046875 146.289062 117.046875 146.503906 117.171875 146.625 Z M 110.734375 153.28125 C 110.792969 153.34375 110.855469 153.371094 110.949219 153.371094 C 111.042969 153.371094 111.101562 153.34375 111.164062 153.28125 L 115.816406 148.476562 C 115.9375 148.351562 115.9375 148.167969 115.816406 148.042969 C 115.691406 147.921875 115.507812 147.921875 115.386719 148.042969 L 110.734375 152.847656 C 110.609375 152.972656 110.609375 153.15625 110.734375 153.28125 Z M 123.425781 148.691406 C 123.300781 148.566406 123.117188 148.535156 122.992188 148.660156 L 122.070312 149.429688 C 121.945312 149.554688 121.914062 149.738281 122.039062 149.859375 C 122.101562 149.921875 122.191406 149.953125 122.285156 149.953125 C 122.347656 149.953125 122.4375 149.921875 122.5 149.890625 L 123.425781 149.121094 C 123.515625 149 123.546875 148.8125 123.425781 148.691406 Z M 125.273438 147.398438 C 125.335938 147.398438 125.425781 147.367188 125.488281 147.335938 L 129.523438 143.886719 C 129.648438 143.761719 129.679688 143.578125 129.554688 143.453125 C 129.433594 143.332031 129.246094 143.300781 129.125 143.421875 L 125.089844 146.871094 C 124.964844 146.996094 124.933594 147.179688 125.058594 147.304688 C 125.117188 147.367188 125.210938 147.398438 125.273438 147.398438 Z M 131.339844 142.222656 C 131.402344 142.222656 131.496094 142.191406 131.558594 142.160156 L 138.765625 136 C 138.890625 135.875 138.917969 135.691406 138.796875 135.566406 C 138.671875 135.445312 138.488281 135.414062 138.363281 135.535156 L 131.15625 141.699219 C 131.035156 141.820312 131.003906 142.007812 131.125 142.128906 C 131.15625 142.191406 131.25 142.222656 131.339844 142.222656 Z M 140.492188 134.457031 L 143.570312 131.808594 C 143.695312 131.6875 143.726562 131.5 143.601562 131.378906 C 143.480469 131.253906 143.292969 131.222656 143.171875 131.347656 L 140.089844 133.996094 C 139.96875 134.121094 139.9375 134.304688 140.058594 134.429688 C 140.121094 134.488281 140.214844 134.519531 140.304688 134.519531 C 140.367188 134.519531 140.429688 134.488281 140.492188 134.457031 Z M 150.6875 138.1875 C 150.75 138.1875 150.808594 138.15625 150.871094 138.125 L 153.984375 136 C 154.136719 135.90625 154.167969 135.722656 154.074219 135.566406 C 153.984375 135.414062 153.796875 135.382812 153.644531 135.476562 L 150.53125 137.601562 C 150.378906 137.691406 150.347656 137.878906 150.441406 138.03125 C 150.503906 138.125 150.59375 138.1875 150.6875 138.1875 Z M 143.140625 143.054688 C 143.203125 143.144531 143.292969 143.175781 143.386719 143.175781 C 143.449219 143.175781 143.507812 143.144531 143.570312 143.113281 L 149.023438 139.386719 C 149.175781 139.296875 149.207031 139.109375 149.117188 138.957031 C 149.023438 138.800781 148.839844 138.769531 148.683594 138.863281 L 143.203125 142.621094 C 143.078125 142.714844 143.046875 142.898438 143.140625 143.054688 Z M 139.90625 145.269531 C 139.96875 145.363281 140.058594 145.394531 140.152344 145.394531 C 140.214844 145.394531 140.273438 145.363281 140.335938 145.332031 L 141.570312 144.5 C 141.722656 144.410156 141.753906 144.222656 141.660156 144.070312 C 141.570312 143.914062 141.382812 143.886719 141.230469 143.976562 L 139.996094 144.808594 C 139.84375 144.933594 139.8125 145.117188 139.90625 145.269531 Z M 138.640625 146.132812 C 138.550781 145.980469 138.363281 145.949219 138.210938 146.042969 L 131.742188 150.476562 C 131.589844 150.570312 131.558594 150.753906 131.648438 150.910156 C 131.710938 151 131.804688 151.03125 131.894531 151.03125 C 131.957031 151.03125 132.019531 151 132.082031 150.96875 L 138.550781 146.535156 C 138.671875 146.472656 138.734375 146.289062 138.640625 146.132812 Z M 130.234375 151.894531 C 130.140625 151.738281 129.957031 151.710938 129.800781 151.800781 L 123.792969 155.929688 C 123.640625 156.023438 123.609375 156.207031 123.703125 156.359375 C 123.761719 156.453125 123.855469 156.484375 123.949219 156.484375 C 124.011719 156.484375 124.070312 156.453125 124.132812 156.421875 L 130.140625 152.324219 C 130.292969 152.234375 130.324219 152.046875 130.234375 151.894531 Z M 136.332031 154.203125 C 136.394531 154.328125 136.484375 154.390625 136.609375 154.390625 C 136.640625 154.390625 136.703125 154.390625 136.734375 154.359375 C 136.734375 154.359375 138.519531 153.621094 141.167969 152.511719 C 141.324219 152.449219 141.414062 152.265625 141.324219 152.109375 C 141.261719 151.957031 141.074219 151.863281 140.921875 151.957031 C 138.304688 153.035156 136.484375 153.804688 136.484375 153.804688 C 136.332031 153.867188 136.269531 154.050781 136.332031 154.203125 Z M 151.273438 148.011719 C 151.210938 147.859375 151.027344 147.796875 150.871094 147.859375 C 148.316406 148.9375 145.636719 150.046875 143.292969 151.03125 C 143.140625 151.09375 143.046875 151.277344 143.140625 151.433594 C 143.203125 151.554688 143.292969 151.617188 143.417969 151.617188 C 143.449219 151.617188 143.507812 151.617188 143.539062 151.585938 C 145.882812 150.601562 148.5625 149.492188 151.117188 148.414062 C 151.242188 148.351562 151.332031 148.167969 151.273438 148.011719 Z M 152.441406 147.488281 C 152.503906 147.613281 152.597656 147.675781 152.71875 147.675781 C 152.75 147.675781 152.8125 147.675781 152.84375 147.644531 C 154.042969 147.148438 155.183594 146.65625 156.230469 146.226562 C 156.386719 146.164062 156.449219 145.980469 156.386719 145.824219 C 156.324219 145.671875 156.140625 145.609375 155.984375 145.671875 C 154.9375 146.101562 153.796875 146.597656 152.597656 147.089844 C 152.472656 147.179688 152.382812 147.335938 152.441406 147.488281 Z M 158.203125 145.394531 C 158.234375 145.394531 158.296875 145.394531 158.328125 145.363281 C 161.34375 144.070312 161.46875 143.976562 161.53125 143.914062 C 161.652344 143.824219 161.683594 143.636719 161.59375 143.484375 C 161.5 143.359375 161.316406 143.300781 161.160156 143.390625 C 161.066406 143.453125 160.574219 143.699219 158.050781 144.746094 C 157.894531 144.808594 157.832031 144.992188 157.894531 145.148438 C 157.988281 145.300781 158.078125 145.394531 158.203125 145.394531 Z M 159.710938 151.925781 C 159.652344 151.769531 159.496094 151.679688 159.3125 151.738281 L 158.140625 152.109375 C 157.988281 152.171875 157.894531 152.324219 157.957031 152.511719 C 157.988281 152.632812 158.109375 152.726562 158.265625 152.726562 C 158.296875 152.726562 158.328125 152.726562 158.355469 152.726562 L 159.527344 152.355469 C 159.683594 152.265625 159.742188 152.078125 159.710938 151.925781 Z M 153.707031 153.527344 C 153.550781 153.589844 153.460938 153.742188 153.519531 153.925781 C 153.550781 154.050781 153.675781 154.144531 153.828125 154.144531 C 153.859375 154.144531 153.890625 154.144531 153.921875 154.144531 L 156.539062 153.3125 C 156.695312 153.25 156.785156 153.09375 156.726562 152.910156 C 156.664062 152.757812 156.507812 152.664062 156.324219 152.726562 Z M 152.441406 154.265625 C 152.382812 154.113281 152.226562 154.019531 152.042969 154.082031 L 146.3125 155.929688 C 146.160156 155.992188 146.066406 156.144531 146.128906 156.328125 C 146.160156 156.453125 146.28125 156.546875 146.4375 156.546875 C 146.464844 156.546875 146.496094 156.546875 146.527344 156.546875 L 152.257812 154.699219 C 152.382812 154.574219 152.472656 154.421875 152.441406 154.265625 Z M 144.28125 156.546875 L 143.292969 156.855469 C 143.140625 156.914062 143.046875 157.070312 143.109375 157.253906 C 143.140625 157.378906 143.261719 157.46875 143.417969 157.46875 C 143.449219 157.46875 143.480469 157.46875 143.507812 157.46875 L 144.496094 157.160156 C 144.648438 157.101562 144.742188 156.945312 144.679688 156.761719 C 144.617188 156.578125 144.433594 156.484375 144.28125 156.546875 Z M 141.96875 157.59375 C 141.90625 157.4375 141.753906 157.347656 141.570312 157.410156 L 134.453125 159.6875 C 134.300781 159.75 134.207031 159.902344 134.269531 160.089844 C 134.300781 160.210938 134.421875 160.304688 134.574219 160.304688 C 134.605469 160.304688 134.636719 160.304688 134.667969 160.304688 L 141.785156 158.023438 C 141.9375 157.933594 142.03125 157.777344 141.96875 157.59375 Z M 133.128906 160.425781 C 133.066406 160.273438 132.914062 160.179688 132.726562 160.242188 L 129.214844 161.382812 C 129.0625 161.445312 128.96875 161.597656 129.03125 161.78125 C 129.0625 161.90625 129.183594 162 129.339844 162 C 129.371094 162 129.402344 162 129.433594 162 L 132.945312 160.859375 C 133.097656 160.765625 133.191406 160.613281 133.128906 160.425781 Z M 151.210938 163.601562 C 151.210938 163.601562 151.242188 163.601562 151.242188 163.601562 L 158.511719 162.613281 C 158.664062 162.582031 158.789062 162.429688 158.789062 162.273438 C 158.757812 162.121094 158.605469 162 158.449219 162 L 151.179688 162.984375 C 151.027344 163.015625 150.902344 163.167969 150.902344 163.324219 C 150.933594 163.507812 151.054688 163.601562 151.210938 163.601562 Z M 140.058594 165.140625 C 140.058594 165.140625 140.089844 165.140625 140.089844 165.140625 L 149.023438 163.90625 C 149.175781 163.878906 149.300781 163.722656 149.300781 163.570312 C 149.269531 163.414062 149.117188 163.292969 148.960938 163.292969 L 140.027344 164.523438 C 139.875 164.554688 139.75 164.707031 139.75 164.863281 C 139.78125 165.015625 139.90625 165.140625 140.058594 165.140625 Z M 133.746094 166.003906 C 133.746094 166.003906 133.773438 166.003906 133.773438 166.003906 L 138.210938 165.386719 C 138.363281 165.355469 138.488281 165.203125 138.488281 165.046875 C 138.457031 164.894531 138.304688 164.769531 138.148438 164.769531 L 133.714844 165.386719 C 133.558594 165.417969 133.4375 165.570312 133.4375 165.726562 C 133.46875 165.878906 133.589844 166.003906 133.746094 166.003906 Z M 157.679688 179.804688 C 157.710938 179.804688 157.710938 179.804688 157.742188 179.804688 C 157.894531 179.804688 158.019531 179.679688 158.050781 179.558594 C 158.082031 179.402344 157.957031 179.21875 157.804688 179.21875 L 154.566406 178.726562 C 154.414062 178.695312 154.230469 178.816406 154.230469 178.972656 C 154.230469 179.125 154.320312 179.308594 154.476562 179.308594 Z M 150.53125 178.726562 L 151.886719 178.941406 C 151.917969 178.941406 151.917969 178.941406 151.949219 178.941406 C 152.105469 178.941406 152.226562 178.816406 152.257812 178.695312 C 152.289062 178.539062 152.164062 178.355469 152.011719 178.355469 L 150.65625 178.140625 C 150.503906 178.109375 150.316406 178.230469 150.316406 178.386719 C 150.316406 178.539062 150.378906 178.695312 150.53125 178.726562 Z M 147.792969 178.292969 C 147.820312 178.292969 147.820312 178.292969 147.851562 178.292969 C 148.007812 178.292969 148.128906 178.171875 148.160156 178.046875 C 148.191406 177.894531 148.070312 177.707031 147.914062 177.707031 L 141.660156 176.753906 C 141.507812 176.722656 141.324219 176.847656 141.324219 177 C 141.324219 177.152344 141.414062 177.339844 141.570312 177.339844 Z M 139.257812 177 C 139.289062 177 139.289062 177 139.320312 177 C 139.472656 177 139.597656 176.875 139.628906 176.753906 C 139.660156 176.597656 139.535156 176.414062 139.382812 176.414062 L 133.835938 175.582031 C 133.683594 175.550781 133.496094 175.675781 133.496094 175.828125 C 133.496094 175.984375 133.589844 176.167969 133.746094 176.167969 Z M 159.40625 189.96875 C 159.527344 189.96875 159.652344 189.875 159.710938 189.753906 C 159.773438 189.597656 159.652344 189.414062 159.496094 189.382812 L 156.046875 188.398438 C 155.894531 188.335938 155.707031 188.460938 155.675781 188.613281 C 155.617188 188.765625 155.738281 188.953125 155.894531 188.984375 L 159.34375 189.96875 C 159.34375 189.96875 159.375 189.96875 159.40625 189.96875 Z M 150.070312 186.980469 C 150.007812 187.132812 150.132812 187.320312 150.285156 187.351562 L 153.460938 188.273438 C 153.488281 188.273438 153.519531 188.273438 153.550781 188.273438 C 153.675781 188.273438 153.796875 188.183594 153.859375 188.058594 C 153.921875 187.90625 153.796875 187.71875 153.644531 187.6875 L 150.472656 186.765625 C 150.285156 186.734375 150.132812 186.828125 150.070312 186.980469 Z M 132.945312 182.050781 C 132.882812 182.207031 133.003906 182.390625 133.160156 182.421875 L 148.128906 186.734375 C 148.160156 186.734375 148.191406 186.734375 148.222656 186.734375 C 148.347656 186.734375 148.46875 186.640625 148.53125 186.519531 C 148.59375 186.363281 148.46875 186.179688 148.316406 186.148438 L 133.34375 181.835938 C 133.160156 181.804688 132.972656 181.898438 132.945312 182.050781 Z M 131.1875 181.21875 L 127.304688 180.109375 C 127.152344 180.050781 126.96875 180.171875 126.9375 180.328125 C 126.875 180.480469 127 180.664062 127.152344 180.695312 L 131.035156 181.804688 C 131.0625 181.804688 131.09375 181.804688 131.125 181.804688 C 131.25 181.804688 131.371094 181.714844 131.433594 181.589844 C 131.433594 181.4375 131.339844 181.28125 131.1875 181.21875 Z M 162.515625 197.578125 L 157.832031 195.789062 C 157.679688 195.730469 157.496094 195.820312 157.433594 195.976562 C 157.371094 196.128906 157.464844 196.316406 157.617188 196.375 L 162.300781 198.164062 C 162.332031 198.164062 162.363281 198.195312 162.421875 198.195312 C 162.546875 198.195312 162.671875 198.132812 162.699219 198.007812 C 162.761719 197.824219 162.671875 197.640625 162.515625 197.578125 Z M 155.339844 194.867188 L 149.300781 192.585938 C 149.148438 192.527344 148.960938 192.617188 148.898438 192.773438 C 148.839844 192.925781 148.929688 193.109375 149.085938 193.171875 L 155.121094 195.453125 C 155.152344 195.453125 155.183594 195.484375 155.246094 195.484375 C 155.371094 195.484375 155.492188 195.421875 155.523438 195.296875 C 155.554688 195.082031 155.492188 194.929688 155.339844 194.867188 Z M 147.175781 192.402344 C 147.296875 192.402344 147.421875 192.339844 147.453125 192.21875 C 147.515625 192.0625 147.421875 191.878906 147.269531 191.816406 L 141.753906 189.722656 C 141.597656 189.660156 141.414062 189.753906 141.351562 189.90625 C 141.292969 190.0625 141.382812 190.246094 141.539062 190.308594 L 147.050781 192.402344 C 147.113281 192.402344 147.144531 192.402344 147.175781 192.402344 Z M 139.289062 189.414062 C 139.414062 189.414062 139.535156 189.351562 139.566406 189.230469 C 139.628906 189.074219 139.535156 188.890625 139.382812 188.828125 L 136.054688 187.566406 C 135.902344 187.503906 135.714844 187.597656 135.652344 187.75 C 135.59375 187.90625 135.683594 188.089844 135.839844 188.152344 L 139.164062 189.414062 C 139.226562 189.414062 139.257812 189.414062 139.289062 189.414062 Z M 153.984375 205.679688 L 146.621094 200.933594 C 146.464844 200.84375 146.28125 200.875 146.191406 201.027344 C 146.097656 201.183594 146.128906 201.367188 146.28125 201.457031 L 153.644531 206.203125 C 153.707031 206.234375 153.765625 206.265625 153.796875 206.265625 C 153.890625 206.265625 154.015625 206.203125 154.042969 206.109375 C 154.167969 205.988281 154.105469 205.773438 153.984375 205.679688 Z M 144.25 200.105469 C 144.339844 200.105469 144.464844 200.042969 144.496094 199.949219 C 144.585938 199.796875 144.558594 199.609375 144.402344 199.519531 L 137.132812 194.835938 C 136.980469 194.742188 136.792969 194.773438 136.703125 194.929688 C 136.609375 195.082031 136.640625 195.265625 136.792969 195.359375 L 144.0625 200.042969 C 144.125 200.074219 144.1875 200.105469 144.25 200.105469 Z M 133.835938 192.742188 C 133.683594 192.648438 133.496094 192.679688 133.40625 192.832031 C 133.3125 192.988281 133.34375 193.171875 133.496094 193.265625 L 134.792969 194.097656 C 134.851562 194.128906 134.914062 194.160156 134.945312 194.160156 C 135.039062 194.160156 135.160156 194.097656 135.191406 194.003906 C 135.285156 193.851562 135.253906 193.664062 135.101562 193.574219 Z M 131.988281 191.539062 L 125.828125 187.597656 C 125.671875 187.503906 125.488281 187.535156 125.394531 187.6875 C 125.304688 187.84375 125.335938 188.027344 125.488281 188.121094 L 131.648438 192.0625 C 131.710938 192.09375 131.773438 192.125 131.804688 192.125 C 131.894531 192.125 132.019531 192.0625 132.050781 191.972656 C 132.171875 191.816406 132.140625 191.632812 131.988281 191.539062 Z M 138.363281 206.234375 C 138.242188 206.355469 138.273438 206.574219 138.394531 206.664062 L 143.203125 210.730469 C 143.261719 210.792969 143.324219 210.792969 143.386719 210.792969 C 143.480469 210.792969 143.570312 210.761719 143.632812 210.667969 C 143.757812 210.546875 143.726562 210.332031 143.601562 210.238281 L 138.796875 206.171875 C 138.640625 206.109375 138.457031 206.109375 138.363281 206.234375 Z M 130.972656 200.011719 C 130.847656 200.132812 130.878906 200.351562 131.003906 200.441406 L 136.269531 204.910156 C 136.332031 204.96875 136.394531 204.96875 136.457031 204.96875 C 136.546875 204.96875 136.640625 204.941406 136.703125 204.847656 C 136.824219 204.722656 136.792969 204.507812 136.671875 204.417969 L 131.402344 199.949219 C 131.28125 199.855469 131.09375 199.886719 130.972656 200.011719 Z M 129.648438 198.472656 L 124.964844 194.496094 C 124.84375 194.375 124.625 194.40625 124.535156 194.527344 C 124.410156 194.652344 124.441406 194.867188 124.566406 194.960938 L 129.246094 198.933594 C 129.308594 198.996094 129.371094 198.996094 129.433594 198.996094 C 129.523438 198.996094 129.617188 198.964844 129.679688 198.871094 C 129.769531 198.777344 129.769531 198.59375 129.648438 198.472656 Z M 131.371094 209.253906 C 131.25 209.128906 131.0625 209.128906 130.941406 209.253906 C 130.816406 209.375 130.816406 209.5625 130.941406 209.683594 L 145.511719 224.933594 C 145.574219 224.992188 145.664062 225.023438 145.726562 225.023438 C 145.789062 225.023438 145.882812 224.992188 145.941406 224.933594 C 146.066406 224.808594 146.066406 224.625 145.941406 224.5 Z M 126.84375 204.476562 C 126.722656 204.355469 126.535156 204.355469 126.414062 204.476562 C 126.289062 204.601562 126.289062 204.785156 126.414062 204.910156 L 128.96875 207.558594 C 129.03125 207.621094 129.125 207.652344 129.183594 207.652344 C 129.246094 207.652344 129.339844 207.621094 129.402344 207.558594 C 129.523438 207.433594 129.523438 207.25 129.402344 207.128906 Z M 124.75 203.0625 C 124.8125 203.0625 124.902344 203.03125 124.964844 202.96875 C 125.089844 202.84375 125.089844 202.660156 124.964844 202.535156 L 110.117188 186.980469 C 109.992188 186.859375 109.808594 186.859375 109.6875 186.980469 C 109.5625 187.105469 109.5625 187.289062 109.6875 187.410156 L 124.535156 202.96875 C 124.59375 203.03125 124.6875 203.0625 124.75 203.0625 Z M 128.199219 217.324219 C 128.105469 217.199219 127.890625 217.167969 127.769531 217.261719 C 127.644531 217.355469 127.613281 217.570312 127.707031 217.691406 L 130.261719 220.988281 C 130.324219 221.082031 130.417969 221.113281 130.511719 221.113281 C 130.570312 221.113281 130.632812 221.082031 130.695312 221.050781 C 130.816406 220.957031 130.847656 220.742188 130.757812 220.621094 Z M 123.085938 210.730469 C 122.992188 210.609375 122.777344 210.578125 122.65625 210.667969 C 122.53125 210.761719 122.5 210.976562 122.59375 211.101562 L 126.167969 215.691406 C 126.226562 215.78125 126.320312 215.8125 126.414062 215.8125 C 126.472656 215.8125 126.535156 215.78125 126.597656 215.753906 C 126.722656 215.660156 126.75 215.445312 126.660156 215.320312 Z M 121.546875 209.5625 C 121.605469 209.5625 121.667969 209.53125 121.730469 209.5 C 121.855469 209.40625 121.882812 209.191406 121.792969 209.066406 L 118.957031 205.402344 C 118.867188 205.277344 118.648438 205.246094 118.527344 205.339844 C 118.402344 205.433594 118.371094 205.648438 118.464844 205.773438 L 121.300781 209.4375 C 121.359375 209.53125 121.453125 209.5625 121.546875 209.5625 Z M 117.292969 204.078125 C 117.355469 204.078125 117.417969 204.046875 117.480469 204.015625 C 117.601562 203.921875 117.632812 203.707031 117.542969 203.585938 L 116 201.613281 C 115.910156 201.488281 115.691406 201.457031 115.570312 201.550781 C 115.445312 201.644531 115.414062 201.859375 115.507812 201.984375 L 117.046875 203.953125 C 117.109375 204.015625 117.203125 204.078125 117.292969 204.078125 Z M 121.667969 223.390625 C 121.578125 223.238281 121.390625 223.207031 121.238281 223.300781 C 121.082031 223.390625 121.054688 223.578125 121.144531 223.730469 L 124.503906 229.183594 C 124.566406 229.277344 124.65625 229.335938 124.78125 229.335938 C 124.84375 229.335938 124.902344 229.335938 124.933594 229.304688 C 125.089844 229.214844 125.117188 229.027344 125.027344 228.875 Z M 118.371094 218.585938 C 118.21875 218.679688 118.1875 218.863281 118.28125 219.019531 L 119.820312 221.511719 C 119.882812 221.605469 119.976562 221.667969 120.097656 221.667969 C 120.160156 221.667969 120.222656 221.667969 120.25 221.636719 C 120.40625 221.542969 120.4375 221.359375 120.34375 221.203125 L 118.804688 218.710938 C 118.710938 218.554688 118.527344 218.492188 118.371094 218.585938 Z M 115.324219 213.625 C 115.167969 213.71875 115.136719 213.902344 115.230469 214.058594 L 117.386719 217.570312 C 117.449219 217.664062 117.542969 217.722656 117.664062 217.722656 C 117.726562 217.722656 117.789062 217.722656 117.816406 217.691406 C 117.972656 217.601562 118.003906 217.414062 117.910156 217.261719 L 115.753906 213.75 C 115.660156 213.597656 115.476562 213.535156 115.324219 213.625 Z M 113.753906 211.039062 C 113.597656 211.132812 113.566406 211.316406 113.660156 211.46875 L 114.335938 212.609375 C 114.398438 212.703125 114.492188 212.765625 114.613281 212.765625 C 114.675781 212.765625 114.738281 212.765625 114.769531 212.734375 C 114.921875 212.640625 114.953125 212.457031 114.859375 212.300781 L 114.183594 211.164062 C 114.089844 210.976562 113.90625 210.945312 113.753906 211.039062 Z M 112.425781 209.191406 C 112.488281 209.191406 112.550781 209.191406 112.582031 209.160156 C 112.734375 209.066406 112.765625 208.882812 112.675781 208.730469 L 108.332031 201.613281 C 108.238281 201.457031 108.054688 201.429688 107.898438 201.519531 C 107.746094 201.613281 107.714844 201.796875 107.808594 201.953125 L 112.148438 209.066406 C 112.242188 209.128906 112.335938 209.191406 112.425781 209.191406 Z M 117.078125 231 C 117.015625 230.847656 116.832031 230.785156 116.679688 230.847656 C 116.523438 230.910156 116.464844 231.09375 116.523438 231.246094 L 119.789062 238.917969 C 119.851562 239.039062 119.945312 239.101562 120.066406 239.101562 C 120.097656 239.101562 120.160156 239.101562 120.191406 239.070312 C 120.34375 239.011719 120.40625 238.824219 120.34375 238.671875 Z M 115.691406 227.703125 C 115.632812 227.550781 115.445312 227.488281 115.292969 227.550781 C 115.136719 227.613281 115.078125 227.796875 115.136719 227.949219 L 115.785156 229.460938 C 115.847656 229.582031 115.9375 229.644531 116.0625 229.644531 C 116.09375 229.644531 116.15625 229.644531 116.1875 229.613281 C 116.339844 229.554688 116.402344 229.367188 116.339844 229.214844 Z M 112.765625 220.867188 C 112.703125 220.710938 112.519531 220.648438 112.367188 220.710938 C 112.210938 220.773438 112.148438 220.957031 112.210938 221.113281 L 114.335938 226.070312 C 114.398438 226.195312 114.492188 226.257812 114.613281 226.257812 C 114.644531 226.257812 114.707031 226.257812 114.738281 226.226562 C 114.890625 226.164062 114.953125 225.980469 114.890625 225.824219 Z M 111.503906 219.019531 C 111.535156 219.019531 111.597656 219.019531 111.625 218.988281 C 111.78125 218.925781 111.84375 218.742188 111.78125 218.585938 L 109.378906 212.980469 C 109.316406 212.824219 109.132812 212.765625 108.976562 212.824219 C 108.824219 212.886719 108.761719 213.074219 108.824219 213.226562 L 111.226562 218.832031 C 111.289062 218.957031 111.378906 219.019531 111.503906 219.019531 Z M 110.703125 230.261719 C 110.640625 230.105469 110.488281 230.015625 110.300781 230.046875 C 110.148438 230.105469 110.054688 230.261719 110.085938 230.445312 L 111.410156 234.695312 C 111.441406 234.820312 111.566406 234.914062 111.71875 234.914062 C 111.75 234.914062 111.78125 234.914062 111.8125 234.914062 C 111.964844 234.851562 112.058594 234.695312 112.027344 234.511719 Z M 107.929688 221.421875 C 107.867188 221.265625 107.714844 221.175781 107.53125 221.203125 C 107.375 221.265625 107.28125 221.421875 107.3125 221.605469 L 109.347656 228.105469 C 109.378906 228.226562 109.5 228.320312 109.65625 228.320312 C 109.6875 228.320312 109.714844 228.320312 109.746094 228.320312 C 109.902344 228.257812 109.992188 228.105469 109.964844 227.921875 Z M 107.4375 219.757812 L 106.359375 216.277344 C 106.296875 216.121094 106.144531 216.03125 105.957031 216.058594 C 105.804688 216.121094 105.710938 216.277344 105.742188 216.460938 L 106.820312 219.941406 C 106.851562 220.066406 106.976562 220.15625 107.128906 220.15625 C 107.160156 220.15625 107.191406 220.15625 107.222656 220.15625 C 107.375 220.097656 107.46875 219.941406 107.4375 219.757812 Z M 102.632812 204.417969 C 102.570312 204.261719 102.414062 204.167969 102.230469 204.199219 C 102.078125 204.261719 101.984375 204.417969 102.015625 204.601562 L 104.972656 214.058594 C 105.003906 214.179688 105.125 214.273438 105.28125 214.273438 C 105.3125 214.273438 105.34375 214.273438 105.375 214.273438 C 105.527344 214.210938 105.621094 214.058594 105.589844 213.875 Z M 102.292969 230.414062 C 102.140625 230.445312 102.015625 230.601562 102.046875 230.753906 L 102.691406 235.28125 C 102.722656 235.4375 102.847656 235.558594 103 235.558594 C 103 235.558594 103.03125 235.558594 103.03125 235.558594 C 103.1875 235.527344 103.308594 235.375 103.277344 235.222656 L 102.632812 230.691406 C 102.632812 230.507812 102.476562 230.382812 102.292969 230.414062 Z M 102.140625 229.304688 C 102.292969 229.277344 102.414062 229.121094 102.386719 228.96875 L 101.984375 226.257812 C 101.953125 226.101562 101.800781 225.980469 101.644531 226.011719 C 101.492188 226.042969 101.367188 226.195312 101.398438 226.347656 L 101.800781 229.058594 C 101.832031 229.214844 101.953125 229.335938 102.109375 229.335938 C 102.109375 229.304688 102.140625 229.304688 102.140625 229.304688 Z M 101.707031 224.039062 L 100.476562 215.351562 C 100.445312 215.199219 100.289062 215.074219 100.136719 215.105469 C 99.984375 215.136719 99.859375 215.289062 99.890625 215.445312 L 101.121094 224.132812 C 101.152344 224.285156 101.277344 224.410156 101.429688 224.410156 C 101.429688 224.410156 101.460938 224.410156 101.460938 224.410156 C 101.613281 224.378906 101.738281 224.191406 101.707031 224.039062 Z M 100.136719 213.074219 L 99.550781 208.914062 C 99.519531 208.757812 99.367188 208.636719 99.210938 208.667969 C 99.058594 208.699219 98.933594 208.851562 98.964844 209.007812 L 99.550781 213.164062 C 99.582031 213.320312 99.707031 213.441406 99.859375 213.441406 C 99.859375 213.441406 99.890625 213.441406 99.890625 213.441406 C 100.042969 213.378906 100.167969 213.226562 100.136719 213.074219 Z M 87.199219 225.363281 C 87.011719 225.332031 86.890625 225.457031 86.859375 225.640625 L 85.875 235.222656 C 85.84375 235.375 85.964844 235.527344 86.152344 235.558594 C 86.152344 235.558594 86.183594 235.558594 86.183594 235.558594 C 86.335938 235.558594 86.460938 235.4375 86.488281 235.28125 L 87.476562 225.703125 C 87.507812 225.546875 87.382812 225.394531 87.199219 225.363281 Z M 87.90625 218.402344 C 87.722656 218.402344 87.597656 218.492188 87.566406 218.679688 L 87.074219 223.453125 C 87.042969 223.609375 87.167969 223.761719 87.351562 223.792969 C 87.351562 223.792969 87.382812 223.792969 87.382812 223.792969 C 87.539062 223.792969 87.660156 223.667969 87.691406 223.515625 L 88.183594 218.742188 C 88.214844 218.585938 88.09375 218.433594 87.90625 218.402344 Z M 88.953125 207.988281 C 88.769531 207.988281 88.644531 208.082031 88.617188 208.265625 L 87.816406 216.277344 C 87.785156 216.429688 87.90625 216.585938 88.09375 216.613281 C 88.09375 216.613281 88.121094 216.613281 88.121094 216.613281 C 88.277344 216.613281 88.398438 216.492188 88.429688 216.335938 L 89.230469 208.328125 C 89.261719 208.144531 89.140625 207.988281 88.953125 207.988281 Z M 77.648438 232.324219 C 77.496094 232.261719 77.308594 232.386719 77.28125 232.539062 L 76.539062 235.160156 C 76.476562 235.3125 76.601562 235.5 76.753906 235.527344 C 76.785156 235.527344 76.816406 235.527344 76.847656 235.527344 C 76.972656 235.527344 77.09375 235.4375 77.15625 235.3125 L 77.894531 232.695312 C 77.894531 232.539062 77.804688 232.386719 77.648438 232.324219 Z M 79.3125 226.441406 C 79.160156 226.378906 78.972656 226.503906 78.941406 226.65625 L 77.988281 230.015625 C 77.925781 230.167969 78.050781 230.355469 78.203125 230.382812 C 78.234375 230.382812 78.265625 230.382812 78.296875 230.382812 C 78.417969 230.382812 78.542969 230.292969 78.605469 230.167969 L 79.558594 226.8125 C 79.589844 226.65625 79.496094 226.472656 79.3125 226.441406 Z M 82.792969 214.242188 C 82.640625 214.179688 82.453125 214.304688 82.421875 214.457031 L 79.558594 224.53125 C 79.496094 224.6875 79.621094 224.871094 79.773438 224.902344 C 79.804688 224.902344 79.835938 224.902344 79.867188 224.902344 C 79.988281 224.902344 80.113281 224.808594 80.175781 224.6875 L 83.039062 214.613281 C 83.039062 214.457031 82.949219 214.273438 82.792969 214.242188 Z M 85.382812 205.125 C 85.226562 205.0625 85.042969 205.1875 85.011719 205.339844 L 83.007812 212.425781 C 82.949219 212.578125 83.070312 212.765625 83.226562 212.796875 C 83.253906 212.796875 83.285156 212.796875 83.316406 212.796875 C 83.441406 212.796875 83.5625 212.703125 83.625 212.578125 L 85.628906 205.496094 C 85.628906 205.339844 85.535156 205.1875 85.382812 205.125 Z M 71.734375 229.429688 C 71.582031 229.367188 71.394531 229.460938 71.335938 229.613281 L 67.175781 240.242188 C 67.113281 240.394531 67.207031 240.582031 67.359375 240.640625 C 67.390625 240.640625 67.421875 240.671875 67.484375 240.671875 C 67.605469 240.671875 67.730469 240.613281 67.761719 240.488281 L 71.917969 229.859375 C 71.949219 229.675781 71.886719 229.492188 71.734375 229.429688 Z M 75.800781 219.019531 C 75.648438 218.957031 75.460938 219.046875 75.398438 219.203125 L 72.195312 227.367188 C 72.136719 227.519531 72.226562 227.703125 72.382812 227.765625 C 72.414062 227.765625 72.441406 227.796875 72.503906 227.796875 C 72.628906 227.796875 72.75 227.734375 72.78125 227.613281 L 75.984375 219.449219 C 76.046875 219.265625 75.953125 219.078125 75.800781 219.019531 Z M 76.785156 217.386719 L 78.417969 213.226562 C 78.480469 213.074219 78.386719 212.886719 78.234375 212.824219 C 78.082031 212.765625 77.894531 212.855469 77.832031 213.011719 L 76.203125 217.167969 C 76.140625 217.324219 76.230469 217.507812 76.386719 217.570312 C 76.417969 217.570312 76.449219 217.601562 76.507812 217.601562 C 76.601562 217.601562 76.726562 217.507812 76.785156 217.386719 Z M 67.207031 222.558594 C 67.050781 222.46875 66.867188 222.53125 66.773438 222.652344 L 63.015625 228.84375 C 62.925781 229 62.984375 229.183594 63.109375 229.277344 C 63.171875 229.304688 63.203125 229.304688 63.261719 229.304688 C 63.355469 229.304688 63.480469 229.246094 63.539062 229.152344 L 67.296875 222.960938 C 67.390625 222.835938 67.359375 222.652344 67.207031 222.558594 Z M 68.777344 219.386719 L 67.824219 220.988281 C 67.730469 221.144531 67.792969 221.328125 67.914062 221.421875 C 67.976562 221.453125 68.007812 221.453125 68.070312 221.453125 C 68.160156 221.453125 68.285156 221.390625 68.347656 221.296875 L 69.300781 219.695312 C 69.394531 219.542969 69.332031 219.355469 69.207031 219.265625 C 69.054688 219.203125 68.871094 219.265625 68.777344 219.386719 Z M 70.007812 217.96875 C 70.070312 218 70.101562 218 70.164062 218 C 70.257812 218 70.378906 217.9375 70.441406 217.847656 L 73.429688 212.980469 C 73.519531 212.824219 73.460938 212.640625 73.335938 212.546875 C 73.183594 212.457031 72.996094 212.519531 72.90625 212.640625 L 69.917969 217.507812 C 69.824219 217.691406 69.855469 217.878906 70.007812 217.96875 Z M 74.230469 211.039062 C 74.292969 211.070312 74.320312 211.070312 74.382812 211.070312 C 74.476562 211.070312 74.597656 211.007812 74.660156 210.914062 L 79.035156 203.738281 C 79.128906 203.585938 79.066406 203.398438 78.941406 203.308594 C 78.789062 203.214844 78.605469 203.277344 78.511719 203.398438 L 74.136719 210.609375 C 74.042969 210.761719 74.105469 210.945312 74.230469 211.039062 Z M 61.691406 217.046875 L 58.304688 221.605469 C 58.210938 221.726562 58.242188 221.945312 58.367188 222.035156 C 58.425781 222.066406 58.488281 222.097656 58.550781 222.097656 C 58.640625 222.097656 58.734375 222.066406 58.796875 221.976562 L 62.183594 217.414062 C 62.277344 217.292969 62.246094 217.078125 62.125 216.984375 C 62 216.890625 61.816406 216.890625 61.691406 217.046875 Z M 63.386719 215.8125 L 65.914062 212.394531 C 66.003906 212.269531 65.972656 212.054688 65.851562 211.964844 C 65.726562 211.871094 65.511719 211.902344 65.417969 212.023438 L 62.894531 215.445312 C 62.800781 215.566406 62.832031 215.78125 62.957031 215.875 C 63.015625 215.90625 63.078125 215.9375 63.140625 215.9375 C 63.234375 215.9375 63.324219 215.875 63.386719 215.8125 Z M 70.53125 205.679688 C 70.410156 205.585938 70.195312 205.617188 70.101562 205.742188 L 67.207031 209.652344 C 67.113281 209.777344 67.144531 209.992188 67.269531 210.085938 C 67.328125 210.113281 67.390625 210.144531 67.453125 210.144531 C 67.546875 210.144531 67.636719 210.113281 67.699219 210.023438 L 70.59375 206.109375 C 70.6875 205.957031 70.65625 205.773438 70.53125 205.679688 Z M 71.949219 204.230469 L 72.996094 202.785156 C 73.089844 202.660156 73.058594 202.445312 72.9375 202.351562 C 72.8125 202.261719 72.597656 202.289062 72.503906 202.414062 L 71.457031 203.863281 C 71.363281 203.984375 71.394531 204.199219 71.519531 204.292969 C 71.582031 204.324219 71.640625 204.355469 71.703125 204.355469 C 71.796875 204.355469 71.917969 204.324219 71.949219 204.230469 Z M 46.382812 220.402344 L 43.117188 223.699219 C 42.992188 223.824219 42.992188 224.007812 43.117188 224.132812 C 43.179688 224.191406 43.238281 224.222656 43.332031 224.222656 C 43.425781 224.222656 43.488281 224.191406 43.546875 224.132812 L 46.8125 220.835938 C 46.9375 220.710938 46.9375 220.527344 46.8125 220.402344 C 46.722656 220.28125 46.503906 220.28125 46.382812 220.402344 Z M 57.316406 209.40625 L 48.136719 218.648438 C 48.015625 218.769531 48.015625 218.957031 48.136719 219.078125 C 48.199219 219.140625 48.261719 219.171875 48.355469 219.171875 C 48.445312 219.171875 48.507812 219.140625 48.570312 219.078125 L 57.75 209.835938 C 57.871094 209.714844 57.871094 209.53125 57.75 209.40625 C 57.65625 209.285156 57.441406 209.285156 57.316406 209.40625 Z M 62 204.695312 L 59.105469 207.621094 C 58.980469 207.742188 58.980469 207.929688 59.105469 208.050781 C 59.167969 208.113281 59.226562 208.144531 59.320312 208.144531 C 59.414062 208.144531 59.472656 208.113281 59.535156 208.050781 L 62.429688 205.125 C 62.554688 205 62.554688 204.816406 62.429688 204.695312 C 62.308594 204.570312 62.125 204.570312 62 204.695312 Z M 75.125 191.910156 C 75 191.785156 74.816406 191.785156 74.691406 191.910156 L 63.847656 202.84375 C 63.726562 202.96875 63.726562 203.152344 63.847656 203.277344 C 63.910156 203.339844 63.972656 203.367188 64.0625 203.367188 C 64.15625 203.367188 64.21875 203.339844 64.28125 203.277344 L 75.125 192.339844 C 75.246094 192.21875 75.246094 192.03125 75.125 191.910156 Z M 77.894531 188.675781 L 76.601562 190 C 76.476562 190.121094 76.476562 190.308594 76.601562 190.429688 C 76.664062 190.492188 76.726562 190.523438 76.816406 190.523438 C 76.910156 190.523438 76.972656 190.492188 77.03125 190.429688 L 78.328125 189.105469 C 78.449219 188.984375 78.449219 188.796875 78.328125 188.675781 C 78.203125 188.550781 78.019531 188.550781 77.894531 188.675781 Z M 47.335938 208.390625 L 44.78125 210.546875 C 44.65625 210.667969 44.625 210.855469 44.75 210.976562 C 44.8125 211.039062 44.902344 211.101562 44.996094 211.101562 C 45.058594 211.101562 45.148438 211.070312 45.179688 211.039062 L 47.738281 208.882812 C 47.859375 208.757812 47.890625 208.574219 47.769531 208.453125 C 47.644531 208.296875 47.460938 208.265625 47.335938 208.390625 Z M 49.15625 207.558594 C 49.214844 207.558594 49.308594 207.527344 49.339844 207.496094 L 54.855469 202.875 C 54.976562 202.753906 55.007812 202.566406 54.882812 202.445312 C 54.761719 202.320312 54.578125 202.289062 54.453125 202.414062 L 48.9375 207.035156 C 48.816406 207.15625 48.785156 207.34375 48.910156 207.464844 C 48.96875 207.527344 49.0625 207.558594 49.15625 207.558594 Z M 60.523438 197.300781 L 55.839844 201.242188 C 55.714844 201.367188 55.683594 201.550781 55.808594 201.675781 C 55.871094 201.734375 55.960938 201.796875 56.054688 201.796875 C 56.117188 201.796875 56.207031 201.765625 56.238281 201.734375 L 60.921875 197.792969 C 61.046875 197.671875 61.074219 197.484375 60.953125 197.363281 C 60.828125 197.207031 60.644531 197.207031 60.523438 197.300781 Z M 64.25 194.988281 C 64.371094 194.867188 64.402344 194.683594 64.28125 194.558594 C 64.15625 194.433594 63.972656 194.40625 63.847656 194.527344 L 62.523438 195.636719 C 62.402344 195.761719 62.371094 195.945312 62.492188 196.066406 C 62.554688 196.128906 62.648438 196.191406 62.738281 196.191406 C 62.800781 196.191406 62.894531 196.160156 62.925781 196.128906 Z M 37.757812 204.847656 L 34.707031 207.003906 C 34.554688 207.097656 34.523438 207.28125 34.644531 207.433594 C 34.707031 207.527344 34.800781 207.558594 34.890625 207.558594 C 34.953125 207.558594 35.015625 207.527344 35.078125 207.496094 L 38.125 205.339844 C 38.28125 205.246094 38.3125 205.0625 38.1875 204.910156 C 38.066406 204.785156 37.878906 204.722656 37.757812 204.847656 Z M 45.582031 199.640625 C 45.488281 199.488281 45.304688 199.457031 45.148438 199.578125 L 39.574219 203.554688 C 39.421875 203.644531 39.390625 203.832031 39.511719 203.984375 C 39.574219 204.078125 39.667969 204.109375 39.757812 204.109375 C 39.820312 204.109375 39.882812 204.078125 39.945312 204.046875 L 45.519531 200.074219 C 45.644531 199.980469 45.671875 199.796875 45.582031 199.640625 Z M 48.078125 197.515625 L 46.8125 198.410156 C 46.660156 198.5 46.628906 198.6875 46.75 198.839844 C 46.8125 198.933594 46.90625 198.964844 47 198.964844 C 47.058594 198.964844 47.121094 198.933594 47.183594 198.902344 L 48.445312 198.007812 C 48.601562 197.917969 48.632812 197.730469 48.507812 197.578125 C 48.382812 197.453125 48.199219 197.421875 48.078125 197.515625 Z M 49.738281 196.714844 C 49.800781 196.808594 49.894531 196.839844 49.988281 196.839844 C 50.046875 196.839844 50.109375 196.808594 50.171875 196.777344 L 53.929688 194.097656 C 54.082031 194.003906 54.113281 193.820312 53.992188 193.664062 C 53.898438 193.542969 53.714844 193.480469 53.558594 193.605469 L 49.800781 196.285156 C 49.679688 196.375 49.617188 196.5625 49.738281 196.714844 Z M 62.492188 187.660156 C 62.402344 187.503906 62.214844 187.472656 62.0625 187.597656 L 55.316406 192.371094 C 55.160156 192.464844 55.128906 192.648438 55.253906 192.804688 C 55.316406 192.894531 55.40625 192.925781 55.5 192.925781 C 55.5625 192.925781 55.625 192.894531 55.683594 192.863281 L 62.429688 188.089844 C 62.554688 187.996094 62.585938 187.8125 62.492188 187.660156 Z M 29.007812 197.023438 L 26.789062 197.976562 C 26.636719 198.039062 26.574219 198.222656 26.636719 198.378906 C 26.699219 198.5 26.789062 198.5625 26.914062 198.5625 C 26.945312 198.5625 27.007812 198.5625 27.035156 198.53125 L 29.253906 197.578125 C 29.410156 197.515625 29.46875 197.332031 29.410156 197.175781 C 29.347656 197.054688 29.164062 196.960938 29.007812 197.023438 Z M 34.554688 195.019531 C 34.492188 194.867188 34.308594 194.804688 34.152344 194.867188 L 30.609375 196.375 C 30.457031 196.4375 30.394531 196.621094 30.457031 196.777344 C 30.519531 196.898438 30.609375 196.960938 30.734375 196.960938 C 30.765625 196.960938 30.824219 196.960938 30.855469 196.929688 L 34.398438 195.421875 C 34.523438 195.359375 34.613281 195.175781 34.554688 195.019531 Z M 37.941406 193.234375 L 36.433594 193.882812 C 36.277344 193.941406 36.214844 194.128906 36.277344 194.28125 C 36.339844 194.40625 36.433594 194.464844 36.554688 194.464844 C 36.585938 194.464844 36.648438 194.464844 36.679688 194.433594 L 38.1875 193.789062 C 38.34375 193.726562 38.402344 193.542969 38.34375 193.386719 C 38.28125 193.234375 38.097656 193.171875 37.941406 193.234375 Z M 39.820312 193.078125 C 39.851562 193.078125 39.914062 193.078125 39.945312 193.050781 L 43.457031 191.539062 C 43.609375 191.476562 43.671875 191.292969 43.609375 191.140625 C 43.546875 190.984375 43.363281 190.921875 43.210938 190.984375 L 39.699219 192.496094 C 39.542969 192.554688 39.480469 192.742188 39.542969 192.894531 C 39.574219 193.019531 39.699219 193.078125 39.820312 193.078125 Z M 51.710938 187.71875 C 51.648438 187.566406 51.464844 187.503906 51.3125 187.566406 L 45.148438 190.183594 C 44.996094 190.246094 44.933594 190.429688 44.996094 190.585938 C 45.058594 190.707031 45.148438 190.769531 45.273438 190.769531 C 45.304688 190.769531 45.367188 190.769531 45.398438 190.738281 L 51.558594 188.121094 C 51.679688 188.058594 51.773438 187.875 51.710938 187.71875 Z M 28.855469 190.152344 C 28.886719 190.277344 29.007812 190.371094 29.164062 190.371094 C 29.191406 190.371094 29.222656 190.371094 29.253906 190.371094 L 34.554688 188.675781 C 34.707031 188.613281 34.800781 188.460938 34.738281 188.273438 C 34.675781 188.121094 34.523438 188.027344 34.335938 188.089844 L 29.039062 189.785156 C 28.886719 189.816406 28.792969 190 28.855469 190.152344 Z M 42.902344 185.625 C 42.839844 185.472656 42.6875 185.378906 42.5 185.441406 L 35.910156 187.566406 C 35.753906 187.628906 35.664062 187.78125 35.722656 187.964844 C 35.753906 188.089844 35.878906 188.183594 36.03125 188.183594 C 36.0625 188.183594 36.09375 188.183594 36.125 188.183594 L 42.714844 186.054688 C 42.871094 185.964844 42.964844 185.78125 42.902344 185.625 Z M 44.347656 185.472656 C 44.378906 185.472656 44.410156 185.472656 44.441406 185.472656 L 50.757812 183.4375 C 50.910156 183.375 51.003906 183.222656 50.941406 183.039062 C 50.878906 182.882812 50.726562 182.792969 50.539062 182.851562 L 44.226562 184.886719 C 44.070312 184.949219 43.980469 185.101562 44.042969 185.285156 C 44.070312 185.378906 44.195312 185.472656 44.347656 185.472656 Z M 56.734375 181.1875 C 56.671875 181.035156 56.515625 180.941406 56.332031 181.003906 L 52.695312 182.175781 C 52.542969 182.238281 52.449219 182.390625 52.511719 182.574219 C 52.542969 182.699219 52.667969 182.792969 52.820312 182.792969 C 52.851562 182.792969 52.882812 182.792969 52.914062 182.792969 L 56.546875 181.621094 C 56.703125 181.527344 56.792969 181.34375 56.734375 181.1875 Z M 58.335938 180.972656 C 58.367188 180.972656 58.394531 180.972656 58.425781 180.972656 L 60.828125 180.203125 C 60.984375 180.140625 61.074219 179.988281 61.015625 179.804688 C 60.953125 179.648438 60.800781 179.558594 60.613281 179.617188 L 58.210938 180.386719 C 58.058594 180.449219 57.964844 180.605469 58.027344 180.789062 C 58.089844 180.882812 58.210938 180.972656 58.335938 180.972656 Z M 30.765625 180.203125 L 33.042969 179.804688 C 33.199219 179.773438 33.320312 179.617188 33.289062 179.433594 C 33.257812 179.28125 33.105469 179.15625 32.921875 179.1875 L 30.640625 179.585938 C 30.488281 179.617188 30.363281 179.773438 30.394531 179.957031 C 30.425781 180.109375 30.546875 180.203125 30.703125 180.203125 C 30.703125 180.203125 30.734375 180.203125 30.765625 180.203125 Z M 45.980469 177.214844 C 45.949219 177.0625 45.796875 176.9375 45.613281 176.96875 L 35.167969 178.785156 C 35.015625 178.816406 34.890625 178.972656 34.921875 179.15625 C 34.953125 179.308594 35.078125 179.402344 35.230469 179.402344 C 35.261719 179.402344 35.261719 179.402344 35.292969 179.402344 L 45.734375 177.585938 C 45.890625 177.554688 46.011719 177.402344 45.980469 177.214844 Z M 47.800781 176.597656 C 47.644531 176.628906 47.523438 176.785156 47.554688 176.96875 C 47.582031 177.125 47.707031 177.214844 47.859375 177.214844 C 47.890625 177.214844 47.890625 177.214844 47.921875 177.214844 L 54.578125 176.046875 C 54.730469 176.015625 54.855469 175.859375 54.824219 175.675781 C 54.792969 175.519531 54.636719 175.398438 54.453125 175.429688 Z M 30.394531 161.75 C 30.363281 161.90625 30.488281 162.089844 30.640625 162.089844 L 40.929688 163.570312 C 40.929688 163.570312 40.960938 163.570312 40.960938 163.570312 C 41.113281 163.570312 41.238281 163.445312 41.269531 163.292969 C 41.300781 163.136719 41.175781 162.953125 41.023438 162.953125 L 30.734375 161.472656 C 30.578125 161.445312 30.425781 161.566406 30.394531 161.75 Z M 51.867188 165.171875 C 52.019531 165.171875 52.144531 165.046875 52.171875 164.894531 C 52.203125 164.738281 52.082031 164.554688 51.925781 164.554688 L 43.332031 163.292969 C 43.179688 163.261719 42.992188 163.382812 42.992188 163.539062 C 42.964844 163.691406 43.085938 163.878906 43.238281 163.878906 L 51.835938 165.140625 C 51.835938 165.171875 51.867188 165.171875 51.867188 165.171875 Z M 55.808594 165.726562 C 55.808594 165.726562 55.839844 165.726562 55.839844 165.726562 C 55.992188 165.726562 56.117188 165.601562 56.148438 165.449219 C 56.179688 165.292969 56.054688 165.109375 55.902344 165.109375 L 53.992188 164.832031 C 53.835938 164.800781 53.652344 164.925781 53.652344 165.078125 C 53.621094 165.234375 53.746094 165.417969 53.898438 165.417969 Z M 31.8125 152.695312 L 27.777344 151.585938 C 27.621094 151.554688 27.4375 151.648438 27.40625 151.800781 C 27.375 151.957031 27.46875 152.140625 27.621094 152.171875 L 31.65625 153.28125 C 31.6875 153.28125 31.71875 153.28125 31.75 153.28125 C 31.875 153.28125 31.996094 153.1875 32.058594 153.066406 C 32.058594 152.910156 31.964844 152.726562 31.8125 152.695312 Z M 33.8125 153.867188 L 35.414062 154.296875 C 35.445312 154.296875 35.476562 154.296875 35.507812 154.296875 C 35.632812 154.296875 35.753906 154.203125 35.816406 154.082031 C 35.847656 153.925781 35.753906 153.742188 35.601562 153.710938 L 34 153.28125 C 33.84375 153.25 33.660156 153.34375 33.628906 153.496094 C 33.566406 153.648438 33.660156 153.835938 33.8125 153.867188 Z M 37.695312 154.605469 C 37.664062 154.757812 37.757812 154.945312 37.910156 154.976562 L 48.292969 157.808594 C 48.324219 157.808594 48.355469 157.808594 48.382812 157.808594 C 48.507812 157.808594 48.632812 157.714844 48.691406 157.59375 C 48.722656 157.4375 48.632812 157.253906 48.476562 157.222656 L 38.097656 154.390625 C 37.910156 154.359375 37.726562 154.449219 37.695312 154.605469 Z M 61.570312 161.445312 C 61.691406 161.445312 61.816406 161.351562 61.878906 161.226562 C 61.90625 161.074219 61.816406 160.890625 61.660156 160.859375 L 50.941406 157.933594 C 50.789062 157.902344 50.601562 157.992188 50.570312 158.148438 C 50.539062 158.300781 50.632812 158.488281 50.789062 158.515625 L 61.507812 161.445312 C 61.507812 161.445312 61.539062 161.445312 61.570312 161.445312 Z M 24.972656 142.777344 L 32.304688 146.101562 C 32.335938 146.132812 32.398438 146.132812 32.429688 146.132812 C 32.550781 146.132812 32.644531 146.070312 32.703125 145.949219 C 32.765625 145.792969 32.703125 145.609375 32.550781 145.546875 L 25.21875 142.222656 C 25.066406 142.160156 24.878906 142.222656 24.820312 142.375 C 24.757812 142.53125 24.820312 142.714844 24.972656 142.777344 Z M 34.246094 146.996094 L 43.148438 151.03125 C 43.179688 151.0625 43.238281 151.0625 43.269531 151.0625 C 43.394531 151.0625 43.488281 151 43.546875 150.878906 C 43.609375 150.722656 43.546875 150.539062 43.394531 150.476562 L 34.492188 146.441406 C 34.335938 146.378906 34.152344 146.441406 34.089844 146.597656 C 34.03125 146.75 34.089844 146.933594 34.246094 146.996094 Z M 45.457031 151.769531 C 45.398438 151.925781 45.457031 152.109375 45.613281 152.171875 L 52.203125 155.160156 C 52.234375 155.191406 52.296875 155.191406 52.328125 155.191406 C 52.449219 155.191406 52.542969 155.128906 52.605469 155.003906 C 52.667969 154.851562 52.605469 154.667969 52.449219 154.605469 L 45.859375 151.617188 C 45.703125 151.523438 45.519531 151.617188 45.457031 151.769531 Z M 63.261719 154.542969 C 63.355469 154.542969 63.449219 154.480469 63.507812 154.421875 C 63.601562 154.265625 63.570312 154.082031 63.417969 153.988281 L 61.628906 152.816406 C 61.476562 152.726562 61.292969 152.757812 61.199219 152.910156 C 61.105469 153.066406 61.136719 153.25 61.292969 153.34375 L 63.078125 154.511719 C 63.140625 154.511719 63.203125 154.542969 63.261719 154.542969 Z M 52.082031 146.84375 C 51.988281 146.996094 52.019531 147.179688 52.171875 147.273438 L 59.226562 151.957031 C 59.289062 151.988281 59.351562 152.015625 59.414062 152.015625 C 59.503906 152.015625 59.597656 151.957031 59.660156 151.894531 C 59.75 151.738281 59.722656 151.554688 59.566406 151.464844 L 52.511719 146.78125 C 52.359375 146.65625 52.171875 146.6875 52.082031 146.84375 Z M 41.667969 140.34375 L 49.894531 145.765625 C 49.957031 145.792969 50.015625 145.824219 50.078125 145.824219 C 50.171875 145.824219 50.261719 145.765625 50.324219 145.703125 C 50.417969 145.546875 50.386719 145.363281 50.234375 145.269531 L 42.007812 139.847656 C 41.855469 139.757812 41.667969 139.789062 41.578125 139.941406 C 41.484375 140.035156 41.515625 140.21875 41.667969 140.34375 Z M 38.867188 138.496094 L 39.945312 139.203125 C 40.003906 139.234375 40.066406 139.265625 40.128906 139.265625 C 40.222656 139.265625 40.3125 139.203125 40.375 139.140625 C 40.46875 138.988281 40.4375 138.800781 40.28125 138.710938 L 39.203125 138 C 39.050781 137.910156 38.867188 137.941406 38.773438 138.09375 C 38.679688 138.1875 38.742188 138.402344 38.867188 138.496094 Z M 34.707031 135.722656 L 36.832031 137.140625 C 36.894531 137.167969 36.957031 137.199219 37.019531 137.199219 C 37.109375 137.199219 37.203125 137.140625 37.265625 137.078125 C 37.355469 136.921875 37.324219 136.738281 37.171875 136.644531 L 35.046875 135.230469 C 34.890625 135.136719 34.707031 135.167969 34.613281 135.320312 C 34.523438 135.445312 34.554688 135.628906 34.707031 135.722656 Z M 44.71875 130.578125 C 44.59375 130.699219 44.625 130.917969 44.75 131.007812 L 48.324219 134.058594 C 48.382812 134.121094 48.445312 134.121094 48.507812 134.121094 C 48.601562 134.121094 48.691406 134.089844 48.753906 134.027344 C 48.878906 133.902344 48.847656 133.6875 48.722656 133.597656 L 45.148438 130.546875 C 45.027344 130.421875 44.84375 130.453125 44.71875 130.578125 Z M 51.804688 136.214844 L 50.078125 134.734375 C 49.957031 134.613281 49.738281 134.644531 49.648438 134.765625 C 49.523438 134.890625 49.554688 135.105469 49.679688 135.199219 L 51.402344 136.675781 C 51.464844 136.738281 51.527344 136.738281 51.589844 136.738281 C 51.679688 136.738281 51.773438 136.707031 51.835938 136.644531 C 51.925781 136.523438 51.925781 136.335938 51.804688 136.214844 Z M 53.5 137.664062 C 53.375 137.539062 53.160156 137.570312 53.066406 137.691406 C 52.945312 137.816406 52.972656 138.03125 53.097656 138.125 L 57.441406 141.851562 C 57.503906 141.914062 57.5625 141.914062 57.625 141.914062 C 57.71875 141.914062 57.8125 141.882812 57.871094 141.820312 C 57.996094 141.699219 57.964844 141.480469 57.839844 141.390625 Z M 59.414062 143.144531 C 59.289062 143.269531 59.320312 143.484375 59.445312 143.578125 L 64.25 147.703125 C 64.3125 147.765625 64.371094 147.765625 64.433594 147.765625 C 64.527344 147.765625 64.617188 147.734375 64.679688 147.675781 C 64.804688 147.550781 64.773438 147.335938 64.648438 147.242188 L 59.84375 143.113281 C 59.722656 142.992188 59.503906 143.023438 59.414062 143.144531 Z M 46.226562 120.441406 C 46.289062 120.503906 46.382812 120.535156 46.445312 120.535156 C 46.503906 120.535156 46.597656 120.503906 46.660156 120.441406 C 46.78125 120.320312 46.78125 120.132812 46.660156 120.011719 L 42.839844 116.039062 C 42.714844 115.914062 42.53125 115.914062 42.410156 116.039062 C 42.285156 116.160156 42.285156 116.34375 42.410156 116.46875 Z M 57.347656 131.996094 C 57.410156 132.054688 57.503906 132.085938 57.5625 132.085938 C 57.625 132.085938 57.71875 132.054688 57.78125 131.996094 C 57.902344 131.871094 57.902344 131.6875 57.78125 131.5625 L 48.355469 121.765625 C 48.230469 121.644531 48.046875 121.644531 47.921875 121.765625 C 47.800781 121.890625 47.800781 122.074219 47.921875 122.199219 Z M 59.503906 133.320312 C 59.382812 133.195312 59.195312 133.195312 59.074219 133.320312 C 58.949219 133.441406 58.949219 133.628906 59.074219 133.75 L 62.554688 137.355469 C 62.617188 137.414062 62.707031 137.445312 62.769531 137.445312 C 62.832031 137.445312 62.925781 137.414062 62.984375 137.355469 C 63.109375 137.230469 63.109375 137.046875 62.984375 136.921875 Z M 64.464844 138.894531 C 64.339844 139.019531 64.339844 139.203125 64.464844 139.324219 L 71.671875 146.78125 C 71.734375 146.84375 71.828125 146.871094 71.886719 146.871094 C 71.949219 146.871094 72.042969 146.84375 72.105469 146.78125 C 72.226562 146.65625 72.226562 146.472656 72.105469 146.347656 L 64.894531 138.894531 C 64.773438 138.769531 64.585938 138.769531 64.464844 138.894531 Z M 73.796875 148.136719 C 73.675781 148.011719 73.492188 148.011719 73.367188 148.136719 C 73.242188 148.257812 73.242188 148.445312 73.367188 148.566406 L 77.894531 153.28125 C 77.957031 153.34375 78.050781 153.371094 78.109375 153.371094 C 78.171875 153.371094 78.265625 153.34375 78.328125 153.28125 C 78.449219 153.15625 78.449219 152.972656 78.328125 152.847656 Z M 64.3125 128.390625 C 64.371094 128.484375 64.464844 128.511719 64.558594 128.511719 C 64.617188 128.511719 64.679688 128.484375 64.742188 128.453125 C 64.863281 128.359375 64.925781 128.175781 64.804688 128.019531 L 58.703125 119.519531 C 58.613281 119.394531 58.425781 119.332031 58.273438 119.457031 C 58.148438 119.550781 58.089844 119.734375 58.210938 119.886719 Z M 65.757812 129.898438 C 65.636719 129.992188 65.574219 130.175781 65.695312 130.332031 L 69.515625 135.660156 C 69.578125 135.753906 69.671875 135.785156 69.761719 135.785156 C 69.824219 135.785156 69.886719 135.753906 69.949219 135.722656 C 70.070312 135.628906 70.132812 135.445312 70.007812 135.289062 L 66.191406 129.960938 C 66.066406 129.839844 65.882812 129.808594 65.757812 129.898438 Z M 71.210938 137.507812 C 71.085938 137.601562 71.027344 137.785156 71.148438 137.941406 L 72.691406 140.066406 C 72.75 140.15625 72.84375 140.1875 72.9375 140.1875 C 72.996094 140.1875 73.058594 140.15625 73.121094 140.125 C 73.242188 140.035156 73.304688 139.847656 73.183594 139.695312 L 71.640625 137.570312 C 71.519531 137.445312 71.335938 137.414062 71.210938 137.507812 Z M 68.007812 119.117188 C 68.070312 119.210938 68.160156 119.273438 68.285156 119.273438 C 68.347656 119.273438 68.375 119.273438 68.4375 119.242188 C 68.59375 119.148438 68.652344 118.964844 68.5625 118.808594 L 64.742188 112.003906 C 64.648438 111.847656 64.464844 111.785156 64.3125 111.878906 C 64.15625 111.972656 64.09375 112.15625 64.1875 112.308594 Z M 69.949219 121.304688 C 69.855469 121.152344 69.671875 121.089844 69.515625 121.183594 C 69.363281 121.273438 69.300781 121.460938 69.394531 121.613281 L 73.027344 128.050781 C 73.089844 128.144531 73.183594 128.207031 73.304688 128.207031 C 73.367188 128.207031 73.398438 128.207031 73.460938 128.175781 C 73.613281 128.082031 73.675781 127.898438 73.582031 127.742188 Z M 79.4375 138.863281 C 79.589844 138.769531 79.652344 138.585938 79.558594 138.433594 L 74.753906 129.867188 C 74.660156 129.714844 74.476562 129.652344 74.320312 129.746094 C 74.167969 129.839844 74.105469 130.023438 74.199219 130.175781 L 79.003906 138.742188 C 79.066406 138.832031 79.160156 138.894531 79.28125 138.894531 C 79.34375 138.894531 79.40625 138.894531 79.4375 138.863281 Z M 70.257812 108.769531 C 70.316406 108.890625 70.410156 108.953125 70.53125 108.953125 C 70.5625 108.953125 70.59375 108.953125 70.65625 108.921875 C 70.808594 108.859375 70.902344 108.675781 70.839844 108.519531 L 68.375 102.269531 C 68.316406 102.113281 68.128906 102.019531 67.976562 102.082031 C 67.824219 102.144531 67.730469 102.328125 67.792969 102.484375 Z M 71.640625 112.25 C 71.703125 112.371094 71.796875 112.433594 71.917969 112.433594 C 71.949219 112.433594 71.980469 112.433594 72.042969 112.402344 C 72.195312 112.339844 72.289062 112.15625 72.226562 112.003906 L 71.703125 110.648438 C 71.640625 110.492188 71.457031 110.398438 71.304688 110.460938 C 71.148438 110.523438 71.058594 110.707031 71.117188 110.863281 Z M 72.226562 113.789062 L 76.261719 124.046875 C 76.324219 124.171875 76.417969 124.230469 76.539062 124.230469 C 76.570312 124.230469 76.601562 124.230469 76.664062 124.199219 C 76.816406 124.140625 76.910156 123.953125 76.847656 123.800781 L 72.8125 113.574219 C 72.75 113.417969 72.566406 113.328125 72.414062 113.386719 C 72.257812 113.449219 72.164062 113.632812 72.226562 113.789062 Z M 78.109375 128.234375 C 78.140625 128.234375 78.171875 128.234375 78.234375 128.207031 C 78.386719 128.144531 78.480469 127.957031 78.417969 127.804688 L 77.710938 126.019531 C 77.648438 125.863281 77.464844 125.773438 77.308594 125.832031 C 77.15625 125.894531 77.0625 126.078125 77.125 126.234375 L 77.832031 128.019531 C 77.894531 128.144531 77.988281 128.234375 78.109375 128.234375 Z M 78.636719 114.714844 C 78.664062 114.835938 78.789062 114.929688 78.941406 114.929688 C 78.972656 114.929688 79.003906 114.929688 79.035156 114.929688 C 79.1875 114.867188 79.28125 114.714844 79.25 114.558594 L 76.878906 106.457031 C 76.816406 106.304688 76.664062 106.210938 76.507812 106.242188 C 76.355469 106.304688 76.261719 106.457031 76.292969 106.609375 Z M 81.871094 125.832031 C 81.898438 125.957031 82.023438 126.050781 82.175781 126.050781 C 82.207031 126.050781 82.238281 126.050781 82.269531 126.050781 C 82.421875 125.988281 82.515625 125.832031 82.484375 125.679688 L 79.835938 116.652344 C 79.773438 116.5 79.621094 116.40625 79.464844 116.4375 C 79.3125 116.5 79.21875 116.652344 79.25 116.808594 Z M 84.027344 133.195312 C 84.054688 133.320312 84.179688 133.410156 84.332031 133.410156 C 84.363281 133.410156 84.394531 133.410156 84.425781 133.410156 C 84.582031 133.351562 84.671875 133.195312 84.640625 133.042969 L 83.132812 127.929688 C 83.070312 127.773438 82.917969 127.683594 82.761719 127.710938 C 82.609375 127.773438 82.515625 127.929688 82.546875 128.082031 Z M 85.074219 134.582031 C 85.011719 134.429688 84.855469 134.335938 84.703125 134.367188 C 84.550781 134.429688 84.457031 134.582031 84.488281 134.734375 L 84.980469 136.460938 C 85.011719 136.585938 85.132812 136.675781 85.289062 136.675781 C 85.320312 136.675781 85.351562 136.675781 85.382812 136.675781 C 85.535156 136.613281 85.628906 136.460938 85.597656 136.308594 Z M 86.488281 115.175781 C 86.519531 115.175781 86.519531 115.175781 86.550781 115.175781 C 86.707031 115.144531 86.828125 114.988281 86.796875 114.804688 L 85.597656 107.535156 C 85.566406 107.382812 85.410156 107.257812 85.226562 107.289062 C 85.074219 107.320312 84.949219 107.472656 84.980469 107.660156 L 86.183594 114.929688 C 86.210938 115.082031 86.335938 115.175781 86.488281 115.175781 Z M 86.582031 117.269531 L 88.09375 126.355469 C 88.121094 126.511719 88.246094 126.605469 88.398438 126.605469 C 88.429688 126.605469 88.429688 126.605469 88.460938 126.605469 C 88.617188 126.574219 88.738281 126.417969 88.707031 126.234375 L 87.199219 117.148438 C 87.167969 116.992188 87.011719 116.871094 86.828125 116.898438 C 86.675781 116.929688 86.550781 117.085938 86.582031 117.269531 Z M 88.675781 127.867188 C 88.523438 127.898438 88.398438 128.050781 88.429688 128.234375 L 89.171875 132.671875 C 89.199219 132.824219 89.324219 132.917969 89.476562 132.917969 C 89.507812 132.917969 89.507812 132.917969 89.539062 132.917969 C 89.695312 132.886719 89.816406 132.734375 89.785156 132.550781 L 89.046875 128.113281 C 88.984375 127.929688 88.832031 127.835938 88.675781 127.867188 Z M 88.675781 127.867188 " fill-opacity="1" fill-rule="nonzero"/></g><g fill="#ffffff" fill-opacity="1"><g transform="translate(77.860846, 192.73175)"><g><path d="M 15.152344 -43.832031 C 9.265625 -43.832031 4.132812 -38.949219 4.132812 -35.003906 L 4.132812 -3.445312 C 4.132812 -1.941406 3.003906 -0.625 1.566406 -0.375 L 1.566406 0 L 16.09375 0 L 16.09375 -0.375 C 14.652344 -0.625 13.523438 -1.941406 13.523438 -3.445312 L 13.523438 -21.726562 C 16.21875 -21.726562 18.410156 -19.535156 18.410156 -16.84375 L 18.785156 -16.84375 L 18.785156 -26.925781 L 18.410156 -26.925781 C 18.410156 -24.296875 16.21875 -22.105469 13.523438 -22.105469 L 13.523438 -35.003906 C 13.273438 -37.507812 10.082031 -38.507812 10.082031 -41.015625 C 10.082031 -43.144531 13.589844 -43.457031 15.152344 -43.457031 C 16.65625 -43.457031 20.226562 -43.144531 20.226562 -41.015625 C 20.226562 -38.761719 17.53125 -37.632812 17.53125 -35.003906 C 17.53125 -32.3125 19.660156 -30.117188 22.355469 -30.117188 C 25.046875 -30.117188 27.238281 -32.3125 27.238281 -35.003906 C 27.238281 -38.949219 21.539062 -43.832031 15.152344 -43.832031 Z M 15.152344 -43.832031 "/></g></g></g><g fill="#ffffff" fill-opacity="1"><g transform="translate(105.097635, 192.73175)"><g><path d="M 13.523438 -42.707031 C 13.523438 -43.332031 13.085938 -43.832031 12.460938 -43.832031 C 12.398438 -43.832031 12.335938 -43.832031 12.273438 -43.832031 L 1.566406 -42.265625 L 1.566406 -41.890625 C 3.003906 -41.640625 4.132812 -40.324219 4.132812 -38.824219 L 4.132812 -3.445312 C 4.132812 -1.941406 3.003906 -0.625 1.566406 -0.375 L 1.566406 0 L 16.09375 0 L 16.09375 -0.375 C 14.652344 -0.625 13.523438 -1.941406 13.523438 -3.445312 Z M 13.523438 -42.707031 "/></g></g></g><g fill="#ffffff" fill-opacity="1"><g transform="translate(122.754586, 192.73175)"><g><path d="M 16.46875 -31.371094 C 8.578125 -31.371094 2.191406 -24.296875 2.191406 -15.527344 C 2.191406 -6.761719 8.578125 0.3125 16.46875 0.3125 C 24.359375 0.3125 30.746094 -6.761719 30.746094 -15.527344 C 30.746094 -24.296875 24.359375 -31.371094 16.46875 -31.371094 Z M 16.46875 -0.0625 C 13.335938 -0.0625 11.585938 -5.261719 11.585938 -15.527344 C 11.585938 -25.859375 13.335938 -30.996094 16.46875 -30.996094 C 19.597656 -30.996094 21.289062 -25.859375 21.289062 -15.527344 C 21.289062 -5.261719 19.597656 -0.0625 16.46875 -0.0625 Z M 16.46875 -0.0625 "/></g></g></g><g fill="#ffffff" fill-opacity="1"><g transform="translate(155.689181, 192.73175)"><g><path d="M 26.363281 -6.761719 C 29.742188 -9.265625 31.871094 -13.210938 31.871094 -17.59375 C 31.871094 -22.417969 29.429688 -26.550781 25.546875 -29.054688 C 24.296875 -29.867188 23.292969 -30.933594 23.292969 -31.996094 C 23.292969 -32.9375 24.046875 -33.8125 25.421875 -34.378906 C 27.238281 -35.191406 28.617188 -36.882812 28.617188 -38.949219 C 28.617188 -41.640625 26.488281 -43.832031 23.792969 -43.832031 C 21.101562 -43.832031 18.910156 -41.640625 18.910156 -38.949219 C 18.910156 -35.253906 21.539062 -31.996094 23.605469 -30.117188 C 21.789062 -30.933594 19.722656 -31.371094 17.59375 -31.371094 C 9.707031 -31.371094 3.320312 -25.234375 3.320312 -17.59375 C 3.320312 -14.402344 4.445312 -11.460938 6.386719 -9.140625 C 3.066406 -8.140625 0.625 -4.882812 0.625 -1.066406 C 0.625 3.632812 4.195312 7.390625 8.640625 7.390625 C 16.28125 7.390625 19.222656 -3.945312 26.613281 -3.945312 C 30.808594 -3.945312 34.25 -0.375 34.25 4.070312 C 34.25 10.019531 29.679688 14.777344 24.109375 14.777344 C 22.855469 14.777344 22.167969 14.464844 22.167969 13.460938 C 22.167969 12.835938 22.667969 12.085938 23.230469 11.523438 C 24.109375 10.644531 24.609375 9.394531 24.609375 8.078125 C 24.609375 5.386719 22.480469 3.195312 19.789062 3.195312 C 17.09375 3.195312 14.902344 5.386719 14.902344 8.078125 C 14.902344 11.898438 19.285156 15.152344 24.109375 15.152344 C 29.867188 15.152344 34.628906 10.207031 34.628906 4.070312 C 34.628906 -1.191406 31.058594 -5.636719 26.363281 -6.761719 Z M 17.59375 -30.996094 C 20.789062 -30.996094 22.480469 -26.550781 22.480469 -17.59375 C 22.480469 -12.273438 21.851562 -8.515625 20.664062 -6.386719 C 19.285156 -5.886719 17.910156 -5.195312 16.53125 -4.382812 C 14.089844 -5.324219 12.773438 -9.769531 12.773438 -17.59375 C 12.773438 -26.550781 14.464844 -30.996094 17.59375 -30.996094 Z M 4.507812 -5.324219 C 4.507812 -6.824219 5.324219 -8.140625 6.574219 -8.890625 C 8.828125 -6.261719 12.085938 -4.445312 15.78125 -3.945312 C 13.273438 -2.566406 10.957031 -1.191406 8.640625 -1.191406 C 6.386719 -1.191406 4.507812 -3.066406 4.507812 -5.324219 Z M 4.507812 -5.324219 "/></g></g></g><g fill="#ffffff" fill-opacity="1"><g transform="translate(190.940471, 192.73175)"><g><path d="M 21.539062 -31.996094 C 19.097656 -32.121094 15.78125 -30.558594 13.523438 -29.367188 L 13.523438 -29.679688 C 13.523438 -30.246094 13.085938 -30.746094 12.460938 -30.746094 C 12.398438 -30.746094 12.335938 -30.746094 12.273438 -30.746094 L 1.566406 -29.179688 L 1.566406 -28.804688 C 3.003906 -28.554688 4.132812 -27.300781 4.132812 -25.734375 L 4.132812 -3.445312 C 4.132812 -1.941406 3.003906 -0.625 1.566406 -0.375 L 1.566406 0 L 16.09375 0 L 16.09375 -0.375 C 14.652344 -0.625 13.523438 -1.941406 13.523438 -3.445312 L 13.523438 -28.992188 C 14.527344 -29.492188 15.339844 -29.742188 15.90625 -29.742188 C 16.53125 -29.742188 16.90625 -29.429688 16.90625 -28.804688 C 16.90625 -28.304688 16.71875 -27.988281 16.71875 -27.175781 C 16.71875 -24.484375 18.910156 -22.292969 21.539062 -22.292969 C 24.234375 -22.292969 26.425781 -24.484375 26.425781 -27.175781 C 26.425781 -29.804688 24.234375 -31.871094 21.539062 -31.996094 Z M 21.539062 -31.996094 "/></g></g></g><g fill="#ffffff" fill-opacity="1"><g transform="translate(218.928621, 192.73175)"><g><path d="M 16.46875 -31.371094 C 8.578125 -31.371094 2.191406 -24.296875 2.191406 -15.527344 C 2.191406 -6.761719 8.578125 0.3125 16.46875 0.3125 C 24.359375 0.3125 30.746094 -6.761719 30.746094 -15.527344 C 30.746094 -24.296875 24.359375 -31.371094 16.46875 -31.371094 Z M 16.46875 -0.0625 C 13.335938 -0.0625 11.585938 -5.261719 11.585938 -15.527344 C 11.585938 -25.859375 13.335938 -30.996094 16.46875 -30.996094 C 19.597656 -30.996094 21.289062 -25.859375 21.289062 -15.527344 C 21.289062 -5.261719 19.597656 -0.0625 16.46875 -0.0625 Z M 16.46875 -0.0625 "/></g></g></g><g fill="#ffffff" fill-opacity="1"><g transform="translate(251.863216, 192.73175)"><g><path d="M 43.394531 -28.742188 C 42.640625 -30.371094 40.953125 -31.496094 39.074219 -31.496094 C 36.378906 -31.496094 34.1875 -29.304688 34.1875 -26.613281 C 34.1875 -23.984375 36.378906 -21.789062 39.074219 -21.789062 C 40.199219 -21.789062 40.828125 -22.230469 41.890625 -22.230469 C 43.582031 -22.230469 43.769531 -20.789062 43.394531 -18.722656 C 42.707031 -14.527344 41.140625 -10.457031 38.824219 -7.136719 C 37.382812 -5.132812 35.816406 -3.445312 34.125 -2.253906 C 33.125 -1.503906 31.621094 -0.8125 30.371094 -0.6875 C 28.117188 -0.5625 26.738281 -1.566406 26.738281 -2.941406 C 26.738281 -5.261719 29.992188 -6.074219 29.992188 -9.265625 L 29.992188 -29.679688 C 29.992188 -30.308594 29.554688 -30.746094 28.929688 -30.746094 C 28.867188 -30.746094 28.804688 -30.746094 28.742188 -30.746094 L 18.035156 -29.179688 L 18.035156 -28.804688 C 19.472656 -28.554688 20.601562 -27.300781 20.601562 -25.734375 L 20.601562 -8.515625 C 20.601562 -6.136719 21.101562 -4.257812 21.980469 -2.816406 C 21.101562 -2.316406 18.160156 -0.625 14.527344 -0.625 C 12.085938 -0.625 10.269531 -1.503906 10.269531 -2.816406 C 10.269531 -5.132812 13.523438 -5.949219 13.523438 -9.140625 L 13.523438 -29.679688 C 13.523438 -30.308594 13.085938 -30.746094 12.460938 -30.746094 C 12.398438 -30.746094 12.335938 -30.746094 12.273438 -30.746094 L 1.566406 -29.179688 L 1.566406 -28.804688 C 3.003906 -28.554688 4.132812 -27.300781 4.132812 -25.734375 L 4.132812 -8.265625 C 4.132812 -1.816406 8.140625 0.3125 12.585938 0.3125 C 15.339844 0.3125 19.097656 -0.5625 22.167969 -2.566406 C 23.417969 -0.625 25.484375 0.3125 27.863281 0.3125 C 36.128906 0.3125 44.207031 -11.019531 44.207031 -23.792969 C 44.207031 -25.296875 44.144531 -27.238281 43.394531 -28.742188 Z M 43.394531 -28.742188 "/></g></g></g></svg>